AnekMalayalam-CondensedThin.ufo
<glyph name="five" format="2">
  <advance width="552"/>
  <unicode hex="0035"/>
  <outline>
    <contour>
      <point x="267" y="-20" type="curve" smooth="yes"/>
      <point x="404" y="-20"/>
      <point x="463" y="74"/>
      <point x="463" y="245" type="curve" smooth="yes"/>
      <point x="463" y="519" type="line" smooth="yes"/>
      <point x="463" y="682"/>
      <point x="406" y="781"/>
      <point x="287" y="781" type="curve" smooth="yes"/>
      <point x="195" y="781"/>
      <point x="145" y="724"/>
      <point x="127" y="645" type="curve"/>
      <point x="130" y="640" type="line"/>
      <point x="134" y="824" type="line"/>
      <point x="134" y="1244" type="line"/>
      <point x="454" y="1244" type="line"/>
      <point x="454" y="1278" type="line"/>
      <point x="97" y="1278" type="line"/>
      <point x="97" y="612" type="line"/>
      <point x="130" y="608" type="line"/>
      <point x="156" y="697"/>
      <point x="197" y="747"/>
      <point x="279" y="747" type="curve" smooth="yes"/>
      <point x="385" y="747"/>
      <point x="425" y="657"/>
      <point x="425" y="514" type="curve" smooth="yes"/>
      <point x="425" y="245" type="line" smooth="yes"/>
      <point x="425" y="95"/>
      <point x="377" y="15"/>
      <point x="267" y="15" type="curve" smooth="yes"/>
      <point x="197" y="15"/>
      <point x="143" y="45"/>
      <point x="92" y="86" type="curve"/>
      <point x="98" y="43" type="line"/>
      <point x="129" y="14"/>
      <point x="190" y="-20"/>
    </contour>
  </outline>
</glyph>
<glyph name="at" format="2">
  <advance width="1119"/>
  <unicode hex="0040"/>
  <outline>
    <contour>
      <point x="512" y="74" type="curve" smooth="yes"/>
      <point x="604" y="74"/>
      <point x="655" y="137"/>
      <point x="678" y="249" type="curve"/>
      <point x="689" y="249" type="line"/>
      <point x="675" y="289" type="line"/>
      <point x="644" y="168"/>
      <point x="599" y="105"/>
      <point x="518" y="105" type="curve" smooth="yes"/>
      <point x="442" y="105"/>
      <point x="409" y="159"/>
      <point x="409" y="260" type="curve" smooth="yes"/>
      <point x="409" y="295"/>
      <point x="410" y="305"/>
      <point x="448" y="696" type="curve" smooth="yes"/>
      <point x="461" y="831"/>
      <point x="510" y="890"/>
      <point x="587" y="890" type="curve" smooth="yes"/>
      <point x="669" y="890"/>
      <point x="713" y="823"/>
      <point x="713" y="717" type="curve" smooth="yes"/>
      <point x="713" y="709"/>
      <point x="713" y="700"/>
      <point x="712" y="691" type="curve"/>
      <point x="735" y="726" type="line"/>
      <point x="725" y="726" type="line"/>
      <point x="733" y="841"/>
      <point x="684" y="921"/>
      <point x="587" y="921" type="curve" smooth="yes"/>
      <point x="491" y="921"/>
      <point x="429" y="860"/>
      <point x="413" y="696" type="curve" smooth="yes"/>
      <point x="375" y="308"/>
      <point x="374" y="296"/>
      <point x="374" y="257" type="curve" smooth="yes"/>
      <point x="374" y="137"/>
      <point x="420" y="74"/>
    </contour>
    <contour>
      <point x="685" y="85" type="line"/>
      <point x="767" y="910" type="line"/>
      <point x="732" y="910" type="line"/>
      <point x="732" y="901" type="line"/>
      <point x="719" y="753" type="line"/>
      <point x="716" y="737" type="line"/>
      <point x="670" y="252" type="line"/>
      <point x="671" y="238" type="line"/>
      <point x="651" y="83" type="line"/>
    </contour>
    <contour>
      <point x="651" y="83" type="line"/>
      <point x="685" y="76"/>
      <point x="700" y="73"/>
      <point x="745" y="73" type="curve" smooth="yes"/>
      <point x="894" y="73"/>
      <point x="965" y="169"/>
      <point x="982" y="347" type="curve" smooth="yes"/>
      <point x="1000" y="530"/>
      <point x="1020" y="758"/>
      <point x="1028" y="847" type="curve" smooth="yes"/>
      <point x="1057" y="1164"/>
      <point x="895" y="1340"/>
      <point x="621" y="1340" type="curve" smooth="yes"/>
      <point x="334" y="1340"/>
      <point x="189" y="1175"/>
      <point x="158" y="834" type="curve" smooth="yes"/>
      <point x="147" y="710"/>
      <point x="111" y="258"/>
      <point x="101" y="128" type="curve" smooth="yes"/>
      <point x="78" y="-170"/>
      <point x="244" y="-331"/>
      <point x="532" y="-331" type="curve" smooth="yes"/>
      <point x="695" y="-331"/>
      <point x="823" y="-279"/>
      <point x="919" y="-208" type="curve"/>
      <point x="925" y="-164" type="line"/>
      <point x="837" y="-234"/>
      <point x="708" y="-298"/>
      <point x="532" y="-298" type="curve" smooth="yes"/>
      <point x="263" y="-298"/>
      <point x="120" y="-149"/>
      <point x="136" y="129" type="curve" smooth="yes"/>
      <point x="143" y="255"/>
      <point x="183" y="710"/>
      <point x="194" y="833" type="curve" smooth="yes"/>
      <point x="224" y="1154"/>
      <point x="353" y="1307"/>
      <point x="620" y="1307" type="curve" smooth="yes"/>
      <point x="876" y="1307"/>
      <point x="1023" y="1151"/>
      <point x="994" y="848" type="curve" smooth="yes"/>
      <point x="986" y="764"/>
      <point x="966" y="534"/>
      <point x="947" y="347" type="curve" smooth="yes"/>
      <point x="929" y="173"/>
      <point x="856" y="103"/>
      <point x="742" y="103" type="curve" smooth="yes"/>
      <point x="712" y="103"/>
      <point x="693" y="104"/>
      <point x="670" y="112" type="curve"/>
    </contour>
  </outline>
</glyph>
<glyph name="P" format="2">
  <advance width="599"/>
  <unicode hex="0050"/>
  <anchor x="300" y="0" name="bottom"/>
  <anchor x="300" y="1278" name="top"/>
  <outline>
    <contour>
      <point x="305" y="476" type="line" smooth="yes"/>
      <point x="453" y="476"/>
      <point x="526" y="582"/>
      <point x="526" y="748" type="curve" smooth="yes"/>
      <point x="526" y="1008" type="line" smooth="yes"/>
      <point x="526" y="1173"/>
      <point x="453" y="1278"/>
      <point x="307" y="1278" type="curve" smooth="yes"/>
      <point x="139" y="1278" type="line"/>
      <point x="139" y="1243" type="line"/>
      <point x="305" y="1243" type="line" smooth="yes"/>
      <point x="428" y="1243"/>
      <point x="487" y="1153"/>
      <point x="487" y="1006" type="curve" smooth="yes"/>
      <point x="487" y="750" type="line" smooth="yes"/>
      <point x="487" y="602"/>
      <point x="428" y="511"/>
      <point x="303" y="511" type="curve" smooth="yes"/>
      <point x="132" y="511" type="line"/>
      <point x="132" y="476" type="line"/>
    </contour>
    <contour>
      <point x="160" y="0" type="line"/>
      <point x="160" y="485" type="line"/>
      <point x="160" y="502" type="line"/>
      <point x="160" y="1278" type="line"/>
      <point x="121" y="1278" type="line"/>
      <point x="121" y="0" type="line"/>
    </contour>
  </outline>
</glyph>
<glyph name="Z" format="2">
  <advance width="544"/>
  <unicode hex="005A"/>
  <anchor x="272" y="0" name="bottom"/>
  <anchor x="272" y="639" name="center"/>
  <anchor x="272" y="1278" name="top"/>
  <outline>
    <contour>
      <point x="104" y="35" type="line"/>
      <point x="475" y="1247" type="line"/>
      <point x="475" y="1278" type="line"/>
      <point x="69" y="1278" type="line"/>
      <point x="69" y="1243" type="line"/>
      <point x="436" y="1243" type="line"/>
      <point x="66" y="31" type="line"/>
      <point x="66" y="0" type="line"/>
      <point x="478" y="0" type="line"/>
      <point x="478" y="35" type="line"/>
    </contour>
  </outline>
</glyph>
<glyph name="n" format="2">
  <advance width="623"/>
  <unicode hex="006E"/>
  <anchor x="312" y="0" name="bottom"/>
  <anchor x="312" y="990" name="top"/>
  <outline>
    <contour>
      <point x="521" y="0" type="line"/>
      <point x="521" y="740" type="line" smooth="yes"/>
      <point x="521" y="911"/>
      <point x="462" y="1003"/>
      <point x="333" y="1003" type="curve" smooth="yes"/>
      <point x="221" y="1003"/>
      <point x="159" y="929"/>
      <point x="138" y="805" type="curve"/>
      <point x="125" y="805" type="line"/>
      <point x="145" y="760" type="line"/>
      <point x="170" y="897"/>
      <point x="227" y="970"/>
      <point x="327" y="970" type="curve" smooth="yes"/>
      <point x="440" y="970"/>
      <point x="484" y="887"/>
      <point x="484" y="738" type="curve" smooth="yes"/>
      <point x="484" y="0" type="line"/>
    </contour>
    <contour>
      <point x="147" y="0" type="line"/>
      <point x="147" y="822" type="line"/>
      <point x="144" y="822" type="line"/>
      <point x="148" y="990" type="line"/>
      <point x="110" y="990" type="line"/>
      <point x="110" y="0" type="line"/>
    </contour>
  </outline>
</glyph>
<glyph name="y" format="2">
  <advance width="567"/>
  <unicode hex="0079"/>
  <anchor x="403" y="-10" name="bottom"/>
  <anchor x="284" y="990" name="top"/>
  <outline>
    <contour>
      <point x="277" y="83" type="line"/>
      <point x="93" y="990" type="line"/>
      <point x="54" y="990" type="line"/>
      <point x="249" y="50" type="line"/>
      <point x="299" y="50" type="line"/>
      <point x="286" y="68" type="line"/>
      <point x="200" y="-350" type="line"/>
      <point x="236" y="-350" type="line"/>
      <point x="513" y="990" type="line"/>
      <point x="474" y="990" type="line"/>
      <point x="288" y="74" type="line"/>
      <point x="304" y="83" type="line"/>
    </contour>
  </outline>
</glyph>
<glyph name="ordfeminine" format="2">
  <advance width="381"/>
  <unicode hex="00AA"/>
  <outline>
    <contour>
      <point x="311" y="639" type="line"/>
      <point x="311" y="1119" type="line" smooth="yes"/>
      <point x="311" y="1229"/>
      <point x="271" y="1287"/>
      <point x="183" y="1287" type="curve" smooth="yes"/>
      <point x="137" y="1287"/>
      <point x="94" y="1267"/>
      <point x="61" y="1240" type="curve"/>
      <point x="58" y="1203" type="line"/>
      <point x="95" y="1234"/>
      <point x="139" y="1255"/>
      <point x="181" y="1255" type="curve" smooth="yes"/>
      <point x="252" y="1255"/>
      <point x="276" y="1201"/>
      <point x="276" y="1118" type="curve" smooth="yes"/>
      <point x="276" y="1029" type="line"/>
      <point x="276" y="753" type="line"/>
      <point x="279" y="753" type="line"/>
      <point x="276" y="639" type="line"/>
    </contour>
    <contour>
      <point x="168" y="630" type="curve" smooth="yes"/>
      <point x="243" y="630"/>
      <point x="276" y="686"/>
      <point x="285" y="759" type="curve"/>
      <point x="295" y="759" type="line"/>
      <point x="277" y="789" type="line"/>
      <point x="265" y="716"/>
      <point x="235" y="661"/>
      <point x="175" y="661" type="curve" smooth="yes"/>
      <point x="104" y="661"/>
      <point x="86" y="715"/>
      <point x="86" y="787" type="curve" smooth="yes"/>
      <point x="86" y="836" type="line" smooth="yes"/>
      <point x="86" y="908"/>
      <point x="108" y="945"/>
      <point x="180" y="971" type="curve" smooth="yes"/>
      <point x="290" y="1011" type="line"/>
      <point x="287" y="1043" type="line"/>
      <point x="171" y="1000" type="line" smooth="yes"/>
      <point x="78" y="966"/>
      <point x="51" y="917"/>
      <point x="51" y="835" type="curve" smooth="yes"/>
      <point x="51" y="784" type="line" smooth="yes"/>
      <point x="51" y="684"/>
      <point x="87" y="630"/>
    </contour>
  </outline>
</glyph>
<glyph name="registered" format="2">
  <advance width="577"/>
  <unicode hex="00AE"/>
  <outline>
    <contour>
      <point x="289" y="590" type="curve" smooth="yes"/>
      <point x="430" y="590"/>
      <point x="502" y="677"/>
      <point x="502" y="835" type="curve" smooth="yes"/>
      <point x="502" y="1043" type="line" smooth="yes"/>
      <point x="502" y="1203"/>
      <point x="430" y="1288"/>
      <point x="289" y="1288" type="curve" smooth="yes"/>
      <point x="148" y="1288"/>
      <point x="76" y="1203"/>
      <point x="76" y="1043" type="curve" smooth="yes"/>
      <point x="76" y="835" type="line" smooth="yes"/>
      <point x="76" y="677"/>
      <point x="148" y="590"/>
    </contour>
    <contour>
      <point x="289" y="620" type="curve" smooth="yes"/>
      <point x="165" y="620"/>
      <point x="108" y="691"/>
      <point x="108" y="835" type="curve" smooth="yes"/>
      <point x="108" y="1043" type="line" smooth="yes"/>
      <point x="108" y="1186"/>
      <point x="165" y="1258"/>
      <point x="289" y="1258" type="curve" smooth="yes"/>
      <point x="413" y="1258"/>
      <point x="470" y="1186"/>
      <point x="470" y="1043" type="curve" smooth="yes"/>
      <point x="470" y="835" type="line" smooth="yes"/>
      <point x="470" y="691"/>
      <point x="413" y="620"/>
    </contour>
    <contour>
      <point x="382" y="742" type="line"/>
      <point x="369" y="830" type="line" smooth="yes"/>
      <point x="359" y="900"/>
      <point x="344" y="922"/>
      <point x="305" y="930" type="curve"/>
      <point x="301" y="922" type="line"/>
      <point x="309" y="927" type="line"/>
      <point x="360" y="933"/>
      <point x="373" y="966"/>
      <point x="373" y="1008" type="curve" smooth="yes"/>
      <point x="373" y="1045" type="line" smooth="yes"/>
      <point x="373" y="1109"/>
      <point x="346" y="1137"/>
      <point x="292" y="1137" type="curve" smooth="yes"/>
      <point x="239" y="1137" type="line"/>
      <point x="239" y="1109" type="line"/>
      <point x="291" y="1109" type="line" smooth="yes"/>
      <point x="332" y="1109"/>
      <point x="341" y="1080"/>
      <point x="341" y="1043" type="curve" smooth="yes"/>
      <point x="341" y="1004" type="line" smooth="yes"/>
      <point x="341" y="961"/>
      <point x="325" y="940"/>
      <point x="285" y="940" type="curve" smooth="yes"/>
      <point x="243" y="940" type="line"/>
      <point x="243" y="912" type="line"/>
      <point x="279" y="912" type="line" smooth="yes"/>
      <point x="309" y="912"/>
      <point x="329" y="901"/>
      <point x="338" y="829" type="curve" smooth="yes"/>
      <point x="349" y="742" type="line"/>
    </contour>
    <contour>
      <point x="251" y="742" type="line"/>
      <point x="251" y="920" type="line"/>
      <point x="251" y="932" type="line"/>
      <point x="251" y="1137" type="line"/>
      <point x="219" y="1137" type="line"/>
      <point x="219" y="742" type="line"/>
    </contour>
  </outline>
</glyph>
<glyph name="Eth" format="2">
  <advance width="665"/>
  <unicode hex="00D0"/>
  <outline>
    <component base="D"/>
    <contour>
      <point x="354" y="647" type="line"/>
      <point x="354" y="681" type="line"/>
      <point x="22" y="681" type="line"/>
      <point x="22" y="647" type="line"/>
    </contour>
  </outline>
</glyph>
<glyph name="circumflexcomb" format="2">
  <advance width="487"/>
  <unicode hex="0302"/>
  <anchor x="243" y="990" name="_top"/>
  <anchor x="244" y="1268" name="top"/>
  <outline>
    <contour>
      <point x="100" y="1108" type="line"/>
      <point x="100" y="1108" type="line"/>
      <point x="131" y="1108" type="line"/>
      <point x="240" y="1300" type="line"/>
      <point x="247" y="1300" type="line"/>
      <point x="356" y="1108" type="line"/>
      <point x="387" y="1108" type="line"/>
      <point x="387" y="1108" type="line"/>
      <point x="269" y="1331" type="line"/>
      <point x="218" y="1331" type="line"/>
    </contour>
  </outline>
</glyph>
<glyph name="Chandrabindu.mlm" format="2">
  <unicode hex="0D01"/>
  <outline>
    <contour>
      <point x="-331" y="1340" type="curve" smooth="yes"/>
      <point x="-432.935" y="1340"/>
      <point x="-492" y="1391.63"/>
      <point x="-492" y="1493" type="curve" smooth="yes"/>
      <point x="-492" y="1512" type="line"/>
      <point x="-526" y="1512" type="line"/>
      <point x="-526" y="1493" type="line" smooth="yes"/>
      <point x="-526" y="1372.51"/>
      <point x="-454.916" y="1308"/>
      <point x="-331" y="1308" type="curve" smooth="yes"/>
      <point x="-207.109" y="1308"/>
      <point x="-137" y="1372.51"/>
      <point x="-137" y="1493" type="curve" smooth="yes"/>
      <point x="-137" y="1512" type="line"/>
      <point x="-170" y="1512" type="line"/>
      <point x="-170" y="1493" type="line" smooth="yes"/>
      <point x="-170" y="1391.63"/>
      <point x="-229.065" y="1340"/>
    </contour>
    <contour>
      <point x="-362" y="1518" type="line" smooth="yes"/>
      <point x="-362" y="1492"/>
      <point x="-353" y="1479"/>
      <point x="-331" y="1479" type="curve" smooth="yes"/>
      <point x="-309" y="1479"/>
      <point x="-300" y="1492"/>
      <point x="-300" y="1518" type="curve" smooth="yes"/>
      <point x="-300" y="1529" type="line" smooth="yes"/>
      <point x="-300" y="1555"/>
      <point x="-309" y="1568"/>
      <point x="-331" y="1568" type="curve" smooth="yes"/>
      <point x="-353" y="1568"/>
      <point x="-362" y="1555"/>
      <point x="-362" y="1529" type="curve" smooth="yes"/>
    </contour>
  </outline>
</glyph>
<glyph name="Anuswara.mlm" format="2">
  <advance width="567"/>
  <unicode hex="0D02"/>
  <outline>
    <contour>
      <point x="432" y="539" type="curve" smooth="yes"/>
      <point x="432" y="232" type="line" smooth="yes"/>
      <point x="432" y="94"/>
      <point x="383" y="24"/>
      <point x="283" y="24" type="curve" smooth="yes"/>
      <point x="183" y="24"/>
      <point x="134" y="94"/>
      <point x="134" y="232" type="curve" smooth="yes"/>
      <point x="134" y="539" type="line" smooth="yes"/>
      <point x="134" y="677"/>
      <point x="183" y="747"/>
      <point x="283" y="747" type="curve" smooth="yes"/>
      <point x="383" y="747"/>
      <point x="432" y="677"/>
    </contour>
    <contour>
      <point x="99" y="539" type="curve" smooth="yes"/>
      <point x="99" y="232" type="line" smooth="yes"/>
      <point x="99" y="74"/>
      <point x="159" y="-9"/>
      <point x="283" y="-9" type="curve" smooth="yes"/>
      <point x="407" y="-9"/>
      <point x="467" y="74"/>
      <point x="467" y="232" type="curve" smooth="yes"/>
      <point x="467" y="539" type="line" smooth="yes"/>
      <point x="467" y="697"/>
      <point x="407" y="780"/>
      <point x="283" y="780" type="curve" smooth="yes"/>
      <point x="159" y="780"/>
      <point x="99" y="697"/>
    </contour>
  </outline>
</glyph>
<glyph name="vowelAa.mlm" format="2">
  <advance width="2021"/>
  <unicode hex="0D06"/>
  <outline>
    <contour>
      <point x="1618" y="886" type="line"/>
      <point x="1795" y="878"/>
      <point x="1877" y="766"/>
      <point x="1877" y="551" type="curve" smooth="yes"/>
      <point x="1877" y="177" type="line" smooth="yes"/>
      <point x="1877" y="-84"/>
      <point x="1783" y="-203"/>
      <point x="1579" y="-203" type="curve" smooth="yes"/>
      <point x="1498" y="-203"/>
      <point x="1437" y="-189"/>
      <point x="1377" y="-169" type="curve"/>
      <point x="1386" y="-205" type="line"/>
      <point x="1443" y="-224"/>
      <point x="1511" y="-237"/>
      <point x="1579" y="-237" type="curve" smooth="yes"/>
      <point x="1807" y="-237"/>
      <point x="1912" y="-104"/>
      <point x="1912" y="176" type="curve" smooth="yes"/>
      <point x="1912" y="551" type="line" smooth="yes"/>
      <point x="1912" y="786"/>
      <point x="1819" y="911"/>
      <point x="1616" y="919" type="curve"/>
    </contour>
    <contour>
      <point x="1321" y="1159" type="curve" smooth="yes"/>
      <point x="1479" y="1159"/>
      <point x="1569" y="1080"/>
      <point x="1593" y="917" type="curve"/>
      <point x="1594" y="906" type="line"/>
      <point x="1598" y="879"/>
      <point x="1599" y="850"/>
      <point x="1599" y="819" type="curve" smooth="yes"/>
      <point x="1599" y="249" type="line" smooth="yes"/>
      <point x="1599" y="128"/>
      <point x="1557" y="63"/>
      <point x="1461" y="63" type="curve" smooth="yes"/>
      <point x="1367" y="63"/>
      <point x="1323" y="128"/>
      <point x="1323" y="249" type="curve" smooth="yes"/>
      <point x="1323" y="551" type="line" smooth="yes"/>
      <point x="1323" y="773"/>
      <point x="1413" y="886"/>
      <point x="1597" y="886" type="curve"/>
      <point x="1599" y="886"/>
      <point x="1605" y="886"/>
      <point x="1607" y="886" type="curve"/>
      <point x="1605" y="919" type="line"/>
      <point x="1605" y="919"/>
      <point x="1599" y="919"/>
      <point x="1597" y="919" type="curve"/>
      <point x="1389" y="919"/>
      <point x="1288" y="794"/>
      <point x="1288" y="551" type="curve" smooth="yes"/>
      <point x="1288" y="249" type="line" smooth="yes"/>
      <point x="1288" y="106"/>
      <point x="1345" y="30"/>
      <point x="1461" y="30" type="curve" smooth="yes"/>
      <point x="1579" y="30"/>
      <point x="1634" y="106"/>
      <point x="1634" y="249" type="curve" smooth="yes"/>
      <point x="1634" y="819" type="line" smooth="yes"/>
      <point x="1634" y="851"/>
      <point x="1633" y="880"/>
      <point x="1629" y="908" type="curve"/>
      <point x="1628" y="912" type="line"/>
      <point x="1603" y="1097"/>
      <point x="1500" y="1192"/>
      <point x="1321" y="1192" type="curve" smooth="yes"/>
      <point x="1160" y="1192"/>
      <point x="1066" y="1113"/>
      <point x="1044" y="972" type="curve"/>
      <point x="1033" y="972" type="line"/>
      <point x="1033" y="672" type="line"/>
      <point x="1060" y="672" type="line"/>
      <point x="1060" y="881" type="line" smooth="yes"/>
      <point x="1060" y="1065"/>
      <point x="1150" y="1159"/>
    </contour>
    <contour>
      <point x="1025" y="2" type="line"/>
      <point x="1060" y="2" type="line"/>
      <point x="1060" y="791" type="line"/>
      <point x="1025" y="791" type="line"/>
    </contour>
    <contour>
      <point x="1041" y="972" type="line"/>
      <point x="1019" y="1113"/>
      <point x="926" y="1192"/>
      <point x="753" y="1192" type="curve" smooth="yes"/>
      <point x="696" y="1192"/>
      <point x="640" y="1181"/>
      <point x="600" y="1161" type="curve"/>
      <point x="627" y="1139" type="line"/>
      <point x="661" y="1152"/>
      <point x="707" y="1159"/>
      <point x="753" y="1159" type="curve" smooth="yes"/>
      <point x="933" y="1159"/>
      <point x="1025" y="1065"/>
      <point x="1025" y="881" type="curve" smooth="yes"/>
      <point x="1025" y="672" type="line"/>
      <point x="1041" y="672" type="line"/>
    </contour>
    <contour>
      <point x="147" y="811" type="line" smooth="yes"/>
      <point x="147" y="1041.29"/>
      <point x="247.457" y="1159"/>
      <point x="444" y="1159" type="curve" smooth="yes"/>
      <point x="497.609" y="1159"/>
      <point x="543.275" y="1154"/>
      <point x="581" y="1141" type="curve"/>
      <point x="585" y="1139"/>
      <point x="598" y="1135"/>
      <point x="600" y="1133" type="curve"/>
      <point x="716" y="1082"/>
      <point x="762" y="988"/>
      <point x="762" y="837" type="curve" smooth="yes"/>
      <point x="762" y="815" type="line" smooth="yes"/>
      <point x="762" y="664"/>
      <point x="712" y="607"/>
      <point x="600" y="596" type="curve" smooth="yes"/>
      <point x="581" y="594" type="line"/>
      <point x="581" y="567" type="line"/>
      <point x="607" y="565" type="line" smooth="yes"/>
      <point x="721" y="558"/>
      <point x="762" y="491"/>
      <point x="762" y="348" type="curve" smooth="yes"/>
      <point x="762" y="226" type="line" smooth="yes"/>
      <point x="762" y="92"/>
      <point x="716" y="24"/>
      <point x="607" y="24" type="curve" smooth="yes"/>
      <point x="499" y="24"/>
      <point x="451" y="92"/>
      <point x="451" y="226" type="curve" smooth="yes"/>
      <point x="451" y="813" type="line" smooth="yes"/>
      <point x="451" y="979"/>
      <point x="499" y="1086"/>
      <point x="613" y="1135" type="curve"/>
      <point x="581" y="1152" type="line"/>
      <point x="464" y="1093"/>
      <point x="416" y="981"/>
      <point x="416" y="813" type="curve" smooth="yes"/>
      <point x="416" y="226" type="line" smooth="yes"/>
      <point x="416" y="70"/>
      <point x="477" y="-9"/>
      <point x="607" y="-9" type="curve" smooth="yes"/>
      <point x="738" y="-9"/>
      <point x="797" y="70"/>
      <point x="797" y="226" type="curve" smooth="yes"/>
      <point x="797" y="346" type="line" smooth="yes"/>
      <point x="797" y="491"/>
      <point x="753" y="567"/>
      <point x="655" y="581" type="curve"/>
      <point x="655" y="583" type="line"/>
      <point x="753" y="598"/>
      <point x="797" y="673"/>
      <point x="797" y="815" type="curve" smooth="yes"/>
      <point x="797" y="837" type="line" smooth="yes"/>
      <point x="797" y="984"/>
      <point x="745" y="1100"/>
      <point x="633" y="1150" type="curve"/>
      <point x="620" y="1159" type="line"/>
      <point x="572" y="1181"/>
      <point x="512" y="1192"/>
      <point x="443" y="1192" type="curve" smooth="yes"/>
      <point x="225.894" y="1192"/>
      <point x="112" y="1060.9"/>
      <point x="112" y="811" type="curve" smooth="yes"/>
      <point x="112" y="362" type="line" smooth="yes"/>
      <point x="112" y="190"/>
      <point x="140" y="70"/>
      <point x="199" y="0" type="curve"/>
      <point x="241" y="0" type="line"/>
      <point x="180" y="70"/>
      <point x="147" y="191"/>
      <point x="147" y="364" type="curve" smooth="yes"/>
    </contour>
  </outline>
</glyph>
<glyph name="vowelshortE.mlm" format="2">
  <advance width="1525"/>
  <unicode hex="0D0E"/>
  <outline>
    <contour>
      <point x="293" y="771" type="curve" smooth="yes"/>
      <point x="165" y="771"/>
      <point x="102" y="684"/>
      <point x="102" y="521" type="curve" smooth="yes"/>
      <point x="102" y="258" type="line" smooth="yes"/>
      <point x="102" y="132"/>
      <point x="119" y="50"/>
      <point x="154" y="0" type="curve"/>
      <point x="194" y="0" type="line"/>
      <point x="157" y="52"/>
      <point x="137" y="134"/>
      <point x="137" y="259" type="curve" smooth="yes"/>
      <point x="137" y="521" type="line" smooth="yes"/>
      <point x="137" y="664"/>
      <point x="189" y="738"/>
      <point x="293" y="738" type="curve" smooth="yes"/>
      <point x="398" y="738"/>
      <point x="450" y="664"/>
      <point x="450" y="521" type="curve" smooth="yes"/>
      <point x="450" y="259" type="line" smooth="yes"/>
      <point x="450" y="138"/>
      <point x="430" y="57"/>
      <point x="391" y="6" type="curve"/>
      <point x="391" y="0" type="line"/>
      <point x="420" y="0" type="line"/>
      <point x="465" y="50"/>
      <point x="485" y="132"/>
      <point x="485" y="258" type="curve" smooth="yes"/>
      <point x="485" y="521" type="line" smooth="yes"/>
      <point x="485" y="684"/>
      <point x="422" y="771"/>
    </contour>
    <contour>
      <point x="428" y="31" type="line"/>
      <point x="391" y="0" type="line"/>
      <point x="739" y="0" type="line"/>
      <point x="746" y="0" type="line"/>
      <point x="1079" y="0" type="line"/>
      <point x="1079" y="31" type="line"/>
    </contour>
    <contour>
      <point x="1068" y="1192" type="curve" smooth="yes"/>
      <point x="836" y="1192"/>
      <point x="726" y="1049"/>
      <point x="726" y="771" type="curve" smooth="yes"/>
      <point x="726" y="-72" type="line" smooth="yes"/>
      <point x="726" y="-224"/>
      <point x="787" y="-305"/>
      <point x="910" y="-305" type="curve" smooth="yes"/>
      <point x="1035" y="-305"/>
      <point x="1090" y="-224"/>
      <point x="1090" y="-72" type="curve" smooth="yes"/>
      <point x="1090" y="1038" type="line"/>
      <point x="1055" y="1038" type="line"/>
      <point x="1055" y="24" type="line"/>
      <point x="1055" y="13" type="line"/>
      <point x="1055" y="-75" type="line" smooth="yes"/>
      <point x="1055" y="-208"/>
      <point x="1011" y="-274"/>
      <point x="910" y="-274" type="curve" smooth="yes"/>
      <point x="810" y="-274"/>
      <point x="761" y="-208"/>
      <point x="761" y="-75" type="curve" smooth="yes"/>
      <point x="761" y="2" type="line"/>
      <point x="761" y="5" type="line" smooth="yes"/>
      <point x="761" y="9"/>
      <point x="761" y="11"/>
      <point x="761" y="14" type="curve" smooth="yes"/>
      <point x="761" y="771" type="line" smooth="yes"/>
      <point x="761" y="1029"/>
      <point x="860" y="1159"/>
      <point x="1068" y="1159" type="curve" smooth="yes"/>
      <point x="1276" y="1159"/>
      <point x="1375" y="1029"/>
      <point x="1375" y="771" type="curve" smooth="yes"/>
      <point x="1375" y="118" type="line" smooth="yes"/>
      <point x="1375" y="-74"/>
      <point x="1339" y="-206"/>
      <point x="1265" y="-283" type="curve"/>
      <point x="1309" y="-283" type="line"/>
      <point x="1379" y="-206"/>
      <point x="1410" y="-75"/>
      <point x="1410" y="116" type="curve" smooth="yes"/>
      <point x="1410" y="771" type="line" smooth="yes"/>
      <point x="1410" y="1049"/>
      <point x="1300" y="1192"/>
    </contour>
  </outline>
</glyph>
<glyph name="vowelE.mlm" format="2">
  <advance width="1530"/>
  <unicode hex="0D0F"/>
  <outline>
    <contour>
      <point x="293" y="771" type="curve" smooth="yes"/>
      <point x="165" y="771"/>
      <point x="102" y="684"/>
      <point x="102" y="521" type="curve" smooth="yes"/>
      <point x="102" y="258" type="line" smooth="yes"/>
      <point x="102" y="132"/>
      <point x="119" y="50"/>
      <point x="154" y="0" type="curve"/>
      <point x="194" y="0" type="line"/>
      <point x="157" y="52"/>
      <point x="137" y="134"/>
      <point x="137" y="259" type="curve" smooth="yes"/>
      <point x="137" y="521" type="line" smooth="yes"/>
      <point x="137" y="664"/>
      <point x="189" y="738"/>
      <point x="293" y="738" type="curve" smooth="yes"/>
      <point x="398" y="738"/>
      <point x="450" y="664"/>
      <point x="450" y="521" type="curve" smooth="yes"/>
      <point x="450" y="259" type="line" smooth="yes"/>
      <point x="450" y="138"/>
      <point x="430" y="57"/>
      <point x="391" y="6" type="curve"/>
      <point x="391" y="0" type="line"/>
      <point x="420" y="0" type="line"/>
      <point x="465" y="50"/>
      <point x="485" y="132"/>
      <point x="485" y="258" type="curve" smooth="yes"/>
      <point x="485" y="521" type="line" smooth="yes"/>
      <point x="485" y="684"/>
      <point x="422" y="771"/>
    </contour>
    <contour>
      <point x="1074" y="1192" type="curve" smooth="yes"/>
      <point x="838" y="1192"/>
      <point x="726" y="1049"/>
      <point x="726" y="771" type="curve" smooth="yes"/>
      <point x="726" y="-72" type="line" smooth="yes"/>
      <point x="726" y="-224"/>
      <point x="787" y="-305"/>
      <point x="910" y="-305" type="curve" smooth="yes"/>
      <point x="1035" y="-305"/>
      <point x="1090" y="-224"/>
      <point x="1090" y="-72" type="curve" smooth="yes"/>
      <point x="1090" y="1038" type="line"/>
      <point x="1055" y="1038" type="line"/>
      <point x="1055" y="24" type="line"/>
      <point x="1055" y="13" type="line"/>
      <point x="1055" y="-75" type="line" smooth="yes"/>
      <point x="1055" y="-208"/>
      <point x="1011" y="-274"/>
      <point x="910" y="-274" type="curve" smooth="yes"/>
      <point x="810" y="-274"/>
      <point x="761" y="-208"/>
      <point x="761" y="-75" type="curve" smooth="yes"/>
      <point x="761" y="6" type="line"/>
      <point x="761" y="9" type="line" smooth="yes"/>
      <point x="761" y="13"/>
      <point x="761" y="15"/>
      <point x="761" y="18" type="curve" smooth="yes"/>
      <point x="761" y="771" type="line" smooth="yes"/>
      <point x="761" y="1029"/>
      <point x="862" y="1159"/>
      <point x="1074" y="1159" type="curve" smooth="yes"/>
      <point x="1285" y="1159"/>
      <point x="1385" y="1029"/>
      <point x="1385" y="773" type="curve" smooth="yes"/>
      <point x="1385" y="583" type="line" smooth="yes"/>
      <point x="1385" y="432"/>
      <point x="1335" y="370"/>
      <point x="1223" y="364" type="curve" smooth="yes"/>
      <point x="1204" y="363" type="line"/>
      <point x="1204" y="334" type="line"/>
      <point x="1230" y="333" type="line" smooth="yes"/>
      <point x="1351" y="328"/>
      <point x="1396" y="259"/>
      <point x="1396" y="116" type="curve" smooth="yes"/>
      <point x="1396" y="-31" type="line" smooth="yes"/>
      <point x="1396" y="-186"/>
      <point x="1344" y="-258"/>
      <point x="1235" y="-258" type="curve" smooth="yes"/>
      <point x="1213" y="-258"/>
      <point x="1188" y="-254"/>
      <point x="1164" y="-248" type="curve"/>
      <point x="1171" y="-282" type="line"/>
      <point x="1189" y="-287"/>
      <point x="1217" y="-291"/>
      <point x="1241" y="-291" type="curve" smooth="yes"/>
      <point x="1368" y="-291"/>
      <point x="1431" y="-208"/>
      <point x="1431" y="-33" type="curve" smooth="yes"/>
      <point x="1431" y="114" type="line" smooth="yes"/>
      <point x="1431" y="259"/>
      <point x="1384" y="335"/>
      <point x="1280" y="350" type="curve"/>
      <point x="1280" y="351" type="line"/>
      <point x="1376" y="366"/>
      <point x="1419" y="442"/>
      <point x="1419" y="583" type="curve" smooth="yes"/>
      <point x="1419" y="773" type="line" smooth="yes"/>
      <point x="1419" y="1049"/>
      <point x="1309" y="1192"/>
    </contour>
    <contour>
      <point x="428" y="31" type="line"/>
      <point x="391" y="0" type="line"/>
      <point x="737" y="0" type="line"/>
      <point x="746" y="0" type="line"/>
      <point x="1079" y="0" type="line"/>
      <point x="1079" y="31" type="line"/>
    </contour>
  </outline>
</glyph>
<glyph name="vowelshortO.mlm" format="2">
  <advance width="891"/>
  <unicode hex="0D12"/>
  <outline>
    <contour>
      <point x="602" y="-7" type="curve" smooth="yes"/>
      <point x="732" y="-7"/>
      <point x="793" y="75"/>
      <point x="793" y="250" type="curve" smooth="yes"/>
      <point x="793" y="335" type="line" smooth="yes"/>
      <point x="793" y="480"/>
      <point x="746" y="556"/>
      <point x="643" y="570" type="curve"/>
      <point x="643" y="572" type="line"/>
      <point x="739" y="587"/>
      <point x="782" y="662"/>
      <point x="782" y="804" type="curve" smooth="yes"/>
      <point x="782" y="837" type="line" smooth="yes"/>
      <point x="782" y="1071"/>
      <point x="677" y="1192"/>
      <point x="453" y="1192" type="curve" smooth="yes"/>
      <point x="219" y="1192"/>
      <point x="112" y="1052"/>
      <point x="112" y="782" type="curve" smooth="yes"/>
      <point x="112" y="223" type="line" smooth="yes"/>
      <point x="112" y="68"/>
      <point x="167" y="-9"/>
      <point x="287" y="-9" type="curve" smooth="yes"/>
      <point x="403" y="-9"/>
      <point x="462" y="68"/>
      <point x="462" y="223" type="curve" smooth="yes"/>
      <point x="462" y="589" type="line" smooth="yes"/>
      <point x="462" y="727"/>
      <point x="405" y="799"/>
      <point x="300" y="799" type="curve" smooth="yes"/>
      <point x="210" y="799"/>
      <point x="153" y="738"/>
      <point x="134" y="653" type="curve"/>
      <point x="147" y="642" type="line"/>
      <point x="177" y="727"/>
      <point x="226" y="765"/>
      <point x="296" y="765" type="curve" smooth="yes"/>
      <point x="383" y="765"/>
      <point x="427" y="707"/>
      <point x="427" y="585" type="curve" smooth="yes"/>
      <point x="427" y="223" type="line" smooth="yes"/>
      <point x="427" y="90"/>
      <point x="381" y="24"/>
      <point x="287" y="24" type="curve" smooth="yes"/>
      <point x="191" y="24"/>
      <point x="147" y="90"/>
      <point x="147" y="223" type="curve" smooth="yes"/>
      <point x="147" y="662" type="line"/>
      <point x="158" y="694" type="line"/>
      <point x="147" y="694" type="line"/>
      <point x="147" y="782" type="line" smooth="yes"/>
      <point x="147" y="1032"/>
      <point x="243" y="1159"/>
      <point x="453" y="1159" type="curve" smooth="yes"/>
      <point x="653" y="1159"/>
      <point x="747" y="1051"/>
      <point x="747" y="837" type="curve" smooth="yes"/>
      <point x="747" y="804" type="line" smooth="yes"/>
      <point x="747" y="653"/>
      <point x="697" y="590"/>
      <point x="585" y="585" type="curve" smooth="yes"/>
      <point x="563" y="584" type="line"/>
      <point x="563" y="555" type="line"/>
      <point x="592" y="554" type="line" smooth="yes"/>
      <point x="714" y="550"/>
      <point x="758" y="480"/>
      <point x="758" y="337" type="curve" smooth="yes"/>
      <point x="758" y="252" type="line" smooth="yes"/>
      <point x="758" y="98"/>
      <point x="708" y="26"/>
      <point x="598" y="26" type="curve" smooth="yes"/>
      <point x="578" y="26"/>
      <point x="550" y="28"/>
      <point x="532" y="31" type="curve"/>
      <point x="541" y="-4" type="line"/>
      <point x="559" y="-7"/>
      <point x="583" y="-7"/>
    </contour>
  </outline>
</glyph>
<glyph name="Ka.mlm" format="2">
  <advance width="1194"/>
  <unicode hex="0D15"/>
  <outline>
    <contour>
      <point x="602" y="22" type="curve" smooth="yes"/>
      <point x="493" y="22"/>
      <point x="443" y="94"/>
      <point x="443" y="241" type="curve" smooth="yes"/>
      <point x="443" y="942" type="line" smooth="yes"/>
      <point x="443" y="1089"/>
      <point x="493" y="1161"/>
      <point x="602" y="1161" type="curve" smooth="yes"/>
      <point x="710" y="1161"/>
      <point x="760" y="1089"/>
      <point x="760" y="942" type="curve" smooth="yes"/>
      <point x="760" y="241" type="line" smooth="yes"/>
      <point x="760" y="94"/>
      <point x="710" y="22"/>
    </contour>
    <contour>
      <point x="602" y="1194" type="curve" smooth="yes"/>
      <point x="469" y="1194"/>
      <point x="408" y="1110"/>
      <point x="408" y="942" type="curve" smooth="yes"/>
      <point x="408" y="241" type="line" smooth="yes"/>
      <point x="408" y="193"/>
      <point x="414" y="156"/>
      <point x="423" y="121" type="curve"/>
      <point x="431" y="101" type="line" smooth="yes"/>
      <point x="460" y="24"/>
      <point x="515" y="-11"/>
      <point x="602" y="-11" type="curve" smooth="yes"/>
      <point x="734" y="-11"/>
      <point x="795" y="74"/>
      <point x="795" y="241" type="curve" smooth="yes"/>
      <point x="795" y="942" type="line" smooth="yes"/>
      <point x="795" y="1110"/>
      <point x="734" y="1194"/>
    </contour>
    <contour>
      <point x="1058" y="499" type="curve" smooth="yes"/>
      <point x="1058" y="276" type="line" smooth="yes"/>
      <point x="1058" y="147"/>
      <point x="1030" y="59"/>
      <point x="979" y="0" type="curve"/>
      <point x="1021" y="0" type="line"/>
      <point x="1069" y="59"/>
      <point x="1093" y="145"/>
      <point x="1093" y="274" type="curve" smooth="yes"/>
      <point x="1093" y="499" type="line" smooth="yes"/>
      <point x="1093" y="683"/>
      <point x="1025" y="776"/>
      <point x="874" y="776" type="curve" smooth="yes"/>
      <point x="784" y="776" type="line"/>
      <point x="769" y="776" type="line"/>
      <point x="432" y="776" type="line"/>
      <point x="418" y="776" type="line"/>
      <point x="318" y="776" type="line" smooth="yes"/>
      <point x="167" y="776"/>
      <point x="99" y="683"/>
      <point x="99" y="499" type="curve" smooth="yes"/>
      <point x="99" y="230" type="line" smooth="yes"/>
      <point x="99" y="72"/>
      <point x="155" y="-11"/>
      <point x="278" y="-11" type="curve" smooth="yes"/>
      <point x="359" y="-11"/>
      <point x="408" y="33"/>
      <point x="431" y="101" type="curve"/>
      <point x="442" y="103" type="line"/>
      <point x="420" y="155" type="line"/>
      <point x="401" y="68"/>
      <point x="351" y="22"/>
      <point x="280" y="22" type="curve" smooth="yes"/>
      <point x="178" y="22"/>
      <point x="134" y="92"/>
      <point x="134" y="230" type="curve" smooth="yes"/>
      <point x="134" y="499" type="line" smooth="yes"/>
      <point x="134" y="664"/>
      <point x="191" y="745"/>
      <point x="320" y="745" type="curve" smooth="yes"/>
      <point x="416" y="745" type="line"/>
      <point x="432" y="745" type="line"/>
      <point x="771" y="745" type="line"/>
      <point x="784" y="745" type="line"/>
      <point x="872" y="745" type="line" smooth="yes"/>
      <point x="1001" y="745"/>
      <point x="1058" y="664"/>
    </contour>
  </outline>
</glyph>
<glyph name="Kha.mlm" format="2">
  <advance width="1207"/>
  <unicode hex="0D16"/>
  <outline>
    <contour>
      <point x="1045" y="1174" type="line"/>
      <point x="1045" y="0" type="line"/>
      <point x="1080" y="0" type="line"/>
      <point x="1080" y="1174" type="line"/>
    </contour>
    <contour>
      <point x="674" y="31" type="line"/>
      <point x="633" y="0" type="line"/>
      <point x="1075" y="0" type="line"/>
      <point x="1075" y="31" type="line"/>
    </contour>
    <contour>
      <point x="438" y="1192" type="curve" smooth="yes"/>
      <point x="215" y="1192"/>
      <point x="112" y="1052"/>
      <point x="112" y="782" type="curve" smooth="yes"/>
      <point x="112" y="223" type="line" smooth="yes"/>
      <point x="112" y="68"/>
      <point x="169" y="-9"/>
      <point x="291" y="-9" type="curve" smooth="yes"/>
      <point x="410" y="-9"/>
      <point x="469" y="68"/>
      <point x="469" y="223" type="curve" smooth="yes"/>
      <point x="469" y="585" type="line" smooth="yes"/>
      <point x="469" y="725"/>
      <point x="410" y="799"/>
      <point x="304" y="799" type="curve" smooth="yes"/>
      <point x="212" y="799"/>
      <point x="153" y="736"/>
      <point x="134" y="650" type="curve"/>
      <point x="147" y="638" type="line"/>
      <point x="177" y="725"/>
      <point x="228" y="765"/>
      <point x="300" y="765" type="curve" smooth="yes"/>
      <point x="390" y="765"/>
      <point x="434" y="705"/>
      <point x="434" y="581" type="curve" smooth="yes"/>
      <point x="434" y="223" type="line" smooth="yes"/>
      <point x="434" y="90"/>
      <point x="388" y="24"/>
      <point x="291" y="24" type="curve" smooth="yes"/>
      <point x="193" y="24"/>
      <point x="147" y="90"/>
      <point x="147" y="223" type="curve" smooth="yes"/>
      <point x="147" y="663" type="line"/>
      <point x="158" y="691" type="line"/>
      <point x="147" y="691" type="line"/>
      <point x="147" y="782" type="line" smooth="yes"/>
      <point x="147" y="1032"/>
      <point x="239" y="1159"/>
      <point x="438" y="1159" type="curve" smooth="yes"/>
      <point x="637" y="1159"/>
      <point x="731" y="1032"/>
      <point x="731" y="782" type="curve" smooth="yes"/>
      <point x="731" y="374" type="line" smooth="yes"/>
      <point x="731" y="208"/>
      <point x="698" y="83"/>
      <point x="633" y="6" type="curve"/>
      <point x="633" y="0" type="line"/>
      <point x="679" y="11" type="line"/>
      <point x="736" y="88"/>
      <point x="766" y="208"/>
      <point x="766" y="372" type="curve" smooth="yes"/>
      <point x="766" y="782" type="line" smooth="yes"/>
      <point x="766" y="1052"/>
      <point x="661" y="1192"/>
    </contour>
  </outline>
</glyph>
<glyph name="Gha.mlm" format="2">
  <advance width="1521"/>
  <unicode hex="0D18"/>
  <outline>
    <contour>
      <point x="427" y="351" type="line"/>
      <point x="382" y="320" type="line"/>
      <point x="721" y="320" type="line"/>
      <point x="721" y="351" type="line"/>
    </contour>
    <contour>
      <point x="290" y="1067" type="curve" smooth="yes"/>
      <point x="163" y="1067"/>
      <point x="101" y="983"/>
      <point x="101" y="822" type="curve" smooth="yes"/>
      <point x="101" y="578" type="line" smooth="yes"/>
      <point x="101" y="453"/>
      <point x="117" y="370"/>
      <point x="154" y="320" type="curve"/>
      <point x="193" y="320" type="line"/>
      <point x="158" y="372"/>
      <point x="136" y="454"/>
      <point x="136" y="580" type="curve" smooth="yes"/>
      <point x="136" y="822" type="line" smooth="yes"/>
      <point x="136" y="962"/>
      <point x="187" y="1034"/>
      <point x="290" y="1034" type="curve" smooth="yes"/>
      <point x="393" y="1034"/>
      <point x="441" y="962"/>
      <point x="441" y="822" type="curve" smooth="yes"/>
      <point x="441" y="580" type="line" smooth="yes"/>
      <point x="441" y="458"/>
      <point x="421" y="377"/>
      <point x="382" y="326" type="curve"/>
      <point x="382" y="320" type="line"/>
      <point x="412" y="320" type="line"/>
      <point x="456" y="370"/>
      <point x="476" y="453"/>
      <point x="476" y="578" type="curve" smooth="yes"/>
      <point x="476" y="822" type="line" smooth="yes"/>
      <point x="476" y="983"/>
      <point x="417" y="1067"/>
    </contour>
    <contour>
      <point x="1061" y="351" type="line"/>
      <point x="734" y="351" type="line"/>
      <point x="734" y="933" type="line" smooth="yes"/>
      <point x="734" y="1084"/>
      <point x="787" y="1159"/>
      <point x="898" y="1159" type="curve" smooth="yes"/>
      <point x="1008" y="1159"/>
      <point x="1061" y="1084"/>
      <point x="1061" y="933" type="curve" smooth="yes"/>
    </contour>
    <contour>
      <point x="898" y="1192" type="curve" smooth="yes"/>
      <point x="763" y="1192"/>
      <point x="699" y="1104"/>
      <point x="699" y="933" type="curve" smooth="yes"/>
      <point x="699" y="0" type="line"/>
      <point x="1394" y="0" type="line"/>
      <point x="1394" y="1174" type="line"/>
      <point x="1359" y="1174" type="line"/>
      <point x="1359" y="31" type="line"/>
      <point x="734" y="31" type="line"/>
      <point x="734" y="320" type="line"/>
      <point x="1096" y="320" type="line"/>
      <point x="1096" y="933" type="line" smooth="yes"/>
      <point x="1096" y="1104"/>
      <point x="1032" y="1192"/>
    </contour>
  </outline>
</glyph>
<glyph name="Cha.mlm" format="2">
  <advance width="1509"/>
  <unicode hex="0D1B"/>
  <outline>
    <contour>
      <point x="22" y="31" type="line"/>
      <point x="28" y="0" type="line"/>
      <point x="778" y="0" type="line"/>
      <point x="797" y="31" type="line"/>
    </contour>
    <contour>
      <point x="304" y="29" type="curve"/>
      <point x="335" y="17" type="line"/>
      <point x="462" y="84"/>
      <point x="519" y="243"/>
      <point x="519" y="471" type="curve" smooth="yes"/>
      <point x="519" y="576" type="line" smooth="yes"/>
      <point x="519" y="734"/>
      <point x="460" y="817"/>
      <point x="337" y="817" type="curve" smooth="yes"/>
      <point x="213" y="817"/>
      <point x="155" y="734"/>
      <point x="155" y="576" type="curve" smooth="yes"/>
      <point x="155" y="482" type="line" smooth="yes"/>
      <point x="155" y="370"/>
      <point x="173" y="294"/>
      <point x="202" y="247" type="curve"/>
      <point x="241" y="247" type="line"/>
      <point x="212" y="296"/>
      <point x="190" y="372"/>
      <point x="190" y="484" type="curve" smooth="yes"/>
      <point x="190" y="576" type="line" smooth="yes"/>
      <point x="190" y="714"/>
      <point x="237" y="784"/>
      <point x="337" y="784" type="curve" smooth="yes"/>
      <point x="436" y="784"/>
      <point x="484" y="714"/>
      <point x="484" y="576" type="curve" smooth="yes"/>
      <point x="484" y="467" type="line" smooth="yes"/>
      <point x="484" y="243"/>
      <point x="427" y="102"/>
    </contour>
    <contour>
      <point x="837" y="31" type="line"/>
      <point x="659" y="31" type="line"/>
      <point x="659" y="0" type="line"/>
      <point x="878" y="0" type="line"/>
    </contour>
    <contour>
      <point x="745" y="372" type="line" smooth="yes"/>
      <point x="745" y="208"/>
      <point x="775" y="88"/>
      <point x="832" y="11" type="curve"/>
      <point x="878" y="0" type="line"/>
      <point x="878" y="6" type="line"/>
      <point x="813" y="83"/>
      <point x="780" y="208"/>
      <point x="780" y="374" type="curve" smooth="yes"/>
      <point x="780" y="782" type="line" smooth="yes"/>
      <point x="780" y="1032"/>
      <point x="872" y="1159"/>
      <point x="1071" y="1159" type="curve" smooth="yes"/>
      <point x="1268" y="1159"/>
      <point x="1363" y="1030"/>
      <point x="1363" y="776" type="curve" smooth="yes"/>
      <point x="1363" y="728" type="line"/>
      <point x="1352" y="728" type="line"/>
      <point x="1363" y="708" type="line"/>
      <point x="1363" y="223" type="line" smooth="yes"/>
      <point x="1363" y="90"/>
      <point x="1317" y="24"/>
      <point x="1219" y="24" type="curve" smooth="yes"/>
      <point x="1124" y="24"/>
      <point x="1078" y="90"/>
      <point x="1078" y="223" type="curve" smooth="yes"/>
      <point x="1078" y="589" type="line" smooth="yes"/>
      <point x="1078" y="712"/>
      <point x="1122" y="773"/>
      <point x="1221" y="773" type="curve" smooth="yes"/>
      <point x="1284" y="773"/>
      <point x="1335" y="745"/>
      <point x="1363" y="684" type="curve"/>
      <point x="1376" y="696" type="line"/>
      <point x="1359" y="760"/>
      <point x="1299" y="806"/>
      <point x="1218" y="806" type="curve" smooth="yes"/>
      <point x="1102" y="806"/>
      <point x="1043" y="732"/>
      <point x="1043" y="592" type="curve" smooth="yes"/>
      <point x="1043" y="223" type="line" smooth="yes"/>
      <point x="1043" y="68"/>
      <point x="1100" y="-9"/>
      <point x="1219" y="-9" type="curve" smooth="yes"/>
      <point x="1341" y="-9"/>
      <point x="1398" y="68"/>
      <point x="1398" y="223" type="curve" smooth="yes"/>
      <point x="1398" y="776" type="line" smooth="yes"/>
      <point x="1398" y="1051"/>
      <point x="1292" y="1192"/>
      <point x="1071" y="1192" type="curve" smooth="yes"/>
      <point x="848" y="1192"/>
      <point x="745" y="1052"/>
      <point x="745" y="782" type="curve" smooth="yes"/>
    </contour>
  </outline>
</glyph>
<glyph name="Ja.mlm" format="2">
  <advance width="1098"/>
  <unicode hex="0D1C"/>
  <outline>
    <contour>
      <point x="616" y="57" type="line"/>
      <point x="671" y="2"/>
      <point x="736" y="-18"/>
      <point x="800" y="-18" type="curve" smooth="yes"/>
      <point x="918" y="-18"/>
      <point x="986" y="48"/>
      <point x="986" y="167" type="curve" smooth="yes"/>
      <point x="986" y="182" type="line" smooth="yes"/>
      <point x="986" y="289"/>
      <point x="935" y="350"/>
      <point x="844" y="364" type="curve"/>
      <point x="841" y="365"/>
      <point x="829" y="367"/>
      <point x="826" y="368" type="curve"/>
      <point x="819" y="370"/>
      <point x="809" y="370"/>
      <point x="802" y="370" type="curve" smooth="yes"/>
      <point x="686" y="370"/>
      <point x="626" y="316"/>
      <point x="574" y="239" type="curve" smooth="yes"/>
      <point x="502" y="132" type="line" smooth="yes"/>
      <point x="461" y="71"/>
      <point x="405" y="15"/>
      <point x="298" y="15" type="curve" smooth="yes"/>
      <point x="195" y="15"/>
      <point x="145" y="68"/>
      <point x="145" y="167" type="curve" smooth="yes"/>
      <point x="145" y="182" type="line" smooth="yes"/>
      <point x="145" y="267"/>
      <point x="176" y="320"/>
      <point x="252" y="335" type="curve"/>
      <point x="202" y="350" type="line"/>
      <point x="202" y="344" type="line"/>
      <point x="143" y="324"/>
      <point x="110" y="260"/>
      <point x="110" y="180" type="curve" smooth="yes"/>
      <point x="110" y="166" type="line" smooth="yes"/>
      <point x="110" y="48"/>
      <point x="176" y="-18"/>
      <point x="298" y="-18" type="curve" smooth="yes"/>
      <point x="414" y="-18"/>
      <point x="480" y="40"/>
      <point x="530" y="114" type="curve" smooth="yes"/>
      <point x="602" y="221" type="line" smooth="yes"/>
      <point x="648" y="289"/>
      <point x="706" y="339"/>
      <point x="802" y="339" type="curve" smooth="yes"/>
      <point x="898" y="339"/>
      <point x="951" y="285"/>
      <point x="951" y="182" type="curve" smooth="yes"/>
      <point x="951" y="167" type="line" smooth="yes"/>
      <point x="951" y="68"/>
      <point x="900" y="15"/>
      <point x="800" y="15" type="curve" smooth="yes"/>
      <point x="732" y="15"/>
      <point x="679" y="39"/>
      <point x="616" y="98" type="curve"/>
    </contour>
    <contour>
      <point x="108" y="861" type="curve" smooth="yes"/>
      <point x="108" y="532" type="line" smooth="yes"/>
      <point x="108" y="423"/>
      <point x="142" y="362"/>
      <point x="211" y="342" type="curve"/>
      <point x="213" y="341"/>
      <point x="219" y="338"/>
      <point x="221" y="337" type="curve"/>
      <point x="232" y="335"/>
      <point x="246" y="333"/>
      <point x="261" y="333" type="curve" smooth="yes"/>
      <point x="362" y="333"/>
      <point x="416" y="401"/>
      <point x="416" y="532" type="curve" smooth="yes"/>
      <point x="416" y="734" type="line" smooth="yes"/>
      <point x="416" y="852"/>
      <point x="368" y="916"/>
      <point x="276" y="916" type="curve" smooth="yes"/>
      <point x="193" y="916"/>
      <point x="145" y="867"/>
      <point x="130" y="799" type="curve"/>
      <point x="143" y="788" type="line"/>
      <point x="165" y="852"/>
      <point x="211" y="883"/>
      <point x="272" y="883" type="curve" smooth="yes"/>
      <point x="342" y="883"/>
      <point x="381" y="832"/>
      <point x="381" y="730" type="curve" smooth="yes"/>
      <point x="381" y="532" type="line" smooth="yes"/>
      <point x="381" y="421"/>
      <point x="338" y="366"/>
      <point x="261" y="366" type="curve" smooth="yes"/>
      <point x="180" y="366"/>
      <point x="143" y="421"/>
      <point x="143" y="532" type="curve" smooth="yes"/>
      <point x="143" y="811" type="line"/>
      <point x="152" y="837" type="line"/>
      <point x="143" y="837" type="line"/>
      <point x="143" y="861" type="line" smooth="yes"/>
      <point x="143" y="1058"/>
      <point x="221" y="1159"/>
      <point x="383" y="1159" type="curve" smooth="yes"/>
      <point x="532" y="1159"/>
      <point x="607" y="1076"/>
      <point x="607" y="918" type="curve" smooth="yes"/>
      <point x="607" y="453" type="line"/>
      <point x="642" y="453" type="line"/>
      <point x="642" y="953" type="line" smooth="yes"/>
      <point x="642" y="1075"/>
      <point x="677" y="1159"/>
      <point x="793" y="1159" type="curve" smooth="yes"/>
      <point x="900" y="1159"/>
      <point x="946" y="1095"/>
      <point x="946" y="953" type="curve" smooth="yes"/>
      <point x="946" y="626" type="line" smooth="yes"/>
      <point x="946" y="467"/>
      <point x="889" y="381"/>
      <point x="771" y="366" type="curve"/>
      <point x="855" y="351" type="line"/>
      <point x="855" y="363" type="line"/>
      <point x="950" y="398"/>
      <point x="981" y="502"/>
      <point x="981" y="626" type="curve" smooth="yes"/>
      <point x="981" y="953" type="line" smooth="yes"/>
      <point x="981" y="1111"/>
      <point x="925" y="1192"/>
      <point x="797" y="1192" type="curve" smooth="yes"/>
      <point x="695" y="1192"/>
      <point x="635" y="1139"/>
      <point x="620" y="1027" type="curve"/>
      <point x="618" y="1027" type="line"/>
      <point x="600" y="1130"/>
      <point x="519" y="1192"/>
      <point x="384" y="1192" type="curve" smooth="yes"/>
      <point x="197" y="1192"/>
      <point x="108" y="1076"/>
    </contour>
  </outline>
</glyph>
<glyph name="Jha.mlm" format="2">
  <advance width="1904"/>
  <unicode hex="0D1D"/>
  <outline>
    <contour>
      <point x="1419" y="385" type="line"/>
      <point x="1419" y="1168" type="line"/>
      <point x="1384" y="1168" type="line"/>
      <point x="1384" y="385" type="line"/>
    </contour>
    <contour>
      <point x="1064" y="237" type="curve" smooth="yes"/>
      <point x="1064" y="399"/>
      <point x="1082" y="672"/>
      <point x="1082" y="834" type="curve" smooth="yes"/>
      <point x="1082" y="1071"/>
      <point x="977" y="1192"/>
      <point x="775" y="1192" type="curve" smooth="yes"/>
      <point x="699" y="1192"/>
      <point x="638" y="1178"/>
      <point x="587" y="1148" type="curve"/>
      <point x="578" y="1141" type="line"/>
      <point x="473" y="1076"/>
      <point x="423" y="951"/>
      <point x="423" y="760" type="curve" smooth="yes"/>
      <point x="423" y="223" type="line" smooth="yes"/>
      <point x="423" y="68"/>
      <point x="480" y="-9"/>
      <point x="604" y="-9" type="curve" smooth="yes"/>
      <point x="725" y="-9"/>
      <point x="784" y="68"/>
      <point x="784" y="223" type="curve" smooth="yes"/>
      <point x="784" y="760" type="line" smooth="yes"/>
      <point x="784" y="951"/>
      <point x="734" y="1076"/>
      <point x="629" y="1141" type="curve"/>
      <point x="620" y="1148" type="line"/>
      <point x="570" y="1178"/>
      <point x="508" y="1192"/>
      <point x="434" y="1192" type="curve" smooth="yes"/>
      <point x="219" y="1192"/>
      <point x="112" y="1058"/>
      <point x="112" y="797" type="curve" smooth="yes"/>
      <point x="112" y="362" type="line" smooth="yes"/>
      <point x="112" y="190"/>
      <point x="140" y="70"/>
      <point x="199" y="0" type="curve"/>
      <point x="241" y="0" type="line"/>
      <point x="180" y="70"/>
      <point x="147" y="191"/>
      <point x="147" y="364" type="curve" smooth="yes"/>
      <point x="147" y="797" type="line" smooth="yes"/>
      <point x="147" y="1038"/>
      <point x="239" y="1159"/>
      <point x="434" y="1159" type="curve" smooth="yes"/>
      <point x="491" y="1159"/>
      <point x="543" y="1150"/>
      <point x="583" y="1132" type="curve"/>
      <point x="583" y="1132"/>
      <point x="598" y="1124"/>
      <point x="598" y="1124" type="curve"/>
      <point x="701" y="1065"/>
      <point x="749" y="946"/>
      <point x="749" y="760" type="curve" smooth="yes"/>
      <point x="749" y="223" type="line" smooth="yes"/>
      <point x="749" y="90"/>
      <point x="703" y="24"/>
      <point x="604" y="24" type="curve" smooth="yes"/>
      <point x="504" y="24"/>
      <point x="458" y="90"/>
      <point x="458" y="223" type="curve" smooth="yes"/>
      <point x="458" y="760" type="line" smooth="yes"/>
      <point x="458" y="946"/>
      <point x="506" y="1065"/>
      <point x="609" y="1124" type="curve"/>
      <point x="609" y="1124"/>
      <point x="624" y="1132"/>
      <point x="624" y="1132" type="curve"/>
      <point x="666" y="1150"/>
      <point x="716" y="1159"/>
      <point x="775" y="1159" type="curve" smooth="yes"/>
      <point x="957" y="1159"/>
      <point x="1047" y="1051"/>
      <point x="1047" y="834" type="curve" smooth="yes"/>
      <point x="1047" y="672"/>
      <point x="1029" y="399"/>
      <point x="1029" y="237" type="curve" smooth="yes"/>
      <point x="1029" y="70"/>
      <point x="1089" y="-13"/>
      <point x="1222" y="-13" type="curve" smooth="yes"/>
      <point x="1325" y="-13"/>
      <point x="1382" y="46"/>
      <point x="1400" y="156" type="curve"/>
      <point x="1411" y="156" type="line"/>
      <point x="1411" y="477" type="line"/>
      <point x="1384" y="523" type="line"/>
      <point x="1384" y="256" type="line" smooth="yes"/>
      <point x="1384" y="98"/>
      <point x="1332" y="20"/>
      <point x="1222" y="20" type="curve" smooth="yes"/>
      <point x="1111" y="20"/>
      <point x="1064" y="90"/>
    </contour>
    <contour>
      <point x="1403" y="156" type="line"/>
      <point x="1419" y="48"/>
      <point x="1484" y="-13"/>
      <point x="1588" y="-13" type="curve" smooth="yes"/>
      <point x="1730" y="-13"/>
      <point x="1791" y="75"/>
      <point x="1791" y="256" type="curve" smooth="yes"/>
      <point x="1791" y="806" type="line" smooth="yes"/>
      <point x="1791" y="981"/>
      <point x="1758" y="1102"/>
      <point x="1697" y="1172" type="curve"/>
      <point x="1657" y="1172" type="line"/>
      <point x="1719" y="1102"/>
      <point x="1756" y="979"/>
      <point x="1756" y="804" type="curve" smooth="yes"/>
      <point x="1756" y="256" type="line" smooth="yes"/>
      <point x="1756" y="98"/>
      <point x="1706" y="20"/>
      <point x="1588" y="20" type="curve" smooth="yes"/>
      <point x="1474" y="20"/>
      <point x="1419" y="98"/>
      <point x="1419" y="256" type="curve" smooth="yes"/>
      <point x="1419" y="523" type="line"/>
      <point x="1403" y="523" type="line"/>
    </contour>
  </outline>
</glyph>
<glyph name="Dda.mlm" format="2">
  <advance width="1332"/>
  <unicode hex="0D21"/>
  <outline>
    <contour>
      <point x="847" y="385" type="line"/>
      <point x="847" y="1168" type="line"/>
      <point x="812" y="1168" type="line"/>
      <point x="812" y="385" type="line"/>
    </contour>
    <contour>
      <point x="647" y="-13" type="curve" smooth="yes"/>
      <point x="752" y="-13"/>
      <point x="811" y="46"/>
      <point x="829" y="156" type="curve"/>
      <point x="840" y="156" type="line"/>
      <point x="840" y="477" type="line"/>
      <point x="812" y="523" type="line"/>
      <point x="812" y="256" type="line" smooth="yes"/>
      <point x="812" y="98"/>
      <point x="759" y="20"/>
      <point x="647" y="20" type="curve" smooth="yes"/>
      <point x="535" y="20"/>
      <point x="485" y="92"/>
      <point x="485" y="241" type="curve" smooth="yes"/>
      <point x="485" y="438"/>
      <point x="514" y="732"/>
      <point x="514" y="929" type="curve" smooth="yes"/>
      <point x="514" y="1104"/>
      <point x="450" y="1192"/>
      <point x="316" y="1192" type="curve" smooth="yes"/>
      <point x="179" y="1192"/>
      <point x="113" y="1104"/>
      <point x="113" y="929" type="curve" smooth="yes"/>
      <point x="113" y="362" type="line" smooth="yes"/>
      <point x="113" y="190"/>
      <point x="141" y="70"/>
      <point x="198" y="0" type="curve"/>
      <point x="242" y="0" type="line"/>
      <point x="179" y="70"/>
      <point x="148" y="191"/>
      <point x="148" y="364" type="curve" smooth="yes"/>
      <point x="148" y="929" type="line" smooth="yes"/>
      <point x="148" y="1084"/>
      <point x="202" y="1159"/>
      <point x="316" y="1159" type="curve" smooth="yes"/>
      <point x="428" y="1159"/>
      <point x="479" y="1084"/>
      <point x="479" y="929" type="curve" smooth="yes"/>
      <point x="479" y="732"/>
      <point x="450" y="438"/>
      <point x="450" y="241" type="curve" smooth="yes"/>
      <point x="450" y="72"/>
      <point x="513" y="-13"/>
    </contour>
    <contour>
      <point x="831" y="156" type="line"/>
      <point x="847" y="48"/>
      <point x="912" y="-13"/>
      <point x="1016" y="-13" type="curve" smooth="yes"/>
      <point x="1158" y="-13"/>
      <point x="1219" y="75"/>
      <point x="1219" y="256" type="curve" smooth="yes"/>
      <point x="1219" y="806" type="line" smooth="yes"/>
      <point x="1219" y="981"/>
      <point x="1186" y="1102"/>
      <point x="1125" y="1172" type="curve"/>
      <point x="1085" y="1172" type="line"/>
      <point x="1147" y="1102"/>
      <point x="1184" y="979"/>
      <point x="1184" y="804" type="curve" smooth="yes"/>
      <point x="1184" y="256" type="line" smooth="yes"/>
      <point x="1184" y="98"/>
      <point x="1134" y="20"/>
      <point x="1016" y="20" type="curve" smooth="yes"/>
      <point x="902" y="20"/>
      <point x="847" y="98"/>
      <point x="847" y="256" type="curve" smooth="yes"/>
      <point x="847" y="523" type="line"/>
      <point x="831" y="523" type="line"/>
    </contour>
  </outline>
</glyph>
<glyph name="Nna.mlm" format="2">
  <advance width="1595"/>
  <unicode hex="0D23"/>
  <outline>
    <contour>
      <point x="695" y="2" type="line"/>
      <point x="730" y="2" type="line"/>
      <point x="730" y="788" type="line"/>
      <point x="695" y="788" type="line"/>
    </contour>
    <contour>
      <point x="432" y="1192" type="curve" smooth="yes"/>
      <point x="215" y="1192"/>
      <point x="112" y="1062"/>
      <point x="112" y="811" type="curve" smooth="yes"/>
      <point x="112" y="223" type="line" smooth="yes"/>
      <point x="112" y="68"/>
      <point x="169" y="-9"/>
      <point x="290" y="-9" type="curve" smooth="yes"/>
      <point x="410" y="-9"/>
      <point x="469" y="68"/>
      <point x="469" y="223" type="curve" smooth="yes"/>
      <point x="469" y="585" type="line" smooth="yes"/>
      <point x="469" y="725"/>
      <point x="410" y="799"/>
      <point x="303" y="799" type="curve" smooth="yes"/>
      <point x="211" y="799"/>
      <point x="152" y="736"/>
      <point x="134" y="650" type="curve"/>
      <point x="147" y="638" type="line"/>
      <point x="176" y="725"/>
      <point x="228" y="765"/>
      <point x="299" y="765" type="curve" smooth="yes"/>
      <point x="390" y="765"/>
      <point x="434" y="705"/>
      <point x="434" y="581" type="curve" smooth="yes"/>
      <point x="434" y="223" type="line" smooth="yes"/>
      <point x="434" y="90"/>
      <point x="388" y="24"/>
      <point x="290" y="24" type="curve" smooth="yes"/>
      <point x="193" y="24"/>
      <point x="147" y="90"/>
      <point x="147" y="223" type="curve" smooth="yes"/>
      <point x="147" y="663" type="line"/>
      <point x="159" y="692" type="line"/>
      <point x="147" y="692" type="line"/>
      <point x="147" y="811" type="line" smooth="yes"/>
      <point x="147" y="1041"/>
      <point x="239" y="1159"/>
      <point x="432" y="1159" type="curve" smooth="yes"/>
      <point x="605" y="1159"/>
      <point x="695" y="1067"/>
      <point x="695" y="881" type="curve" smooth="yes"/>
      <point x="695" y="672" type="line"/>
      <point x="708" y="672" type="line"/>
      <point x="708" y="990" type="line"/>
      <point x="684" y="1115"/>
      <point x="596" y="1192"/>
    </contour>
    <contour>
      <point x="1068" y="788" type="line"/>
      <point x="1068" y="2" type="line"/>
      <point x="1103" y="2" type="line"/>
      <point x="1103" y="788" type="line"/>
    </contour>
    <contour>
      <point x="1085" y="1019" type="line"/>
      <point x="1068" y="1130"/>
      <point x="1006" y="1192"/>
      <point x="899" y="1192" type="curve" smooth="yes"/>
      <point x="790" y="1192"/>
      <point x="720" y="1130"/>
      <point x="710" y="990" type="curve"/>
      <point x="702" y="990" type="line"/>
      <point x="702" y="696" type="line"/>
      <point x="730" y="694" type="line"/>
      <point x="730" y="920" type="line" smooth="yes"/>
      <point x="730" y="1080"/>
      <point x="781" y="1159"/>
      <point x="899" y="1159" type="curve" smooth="yes"/>
      <point x="1017" y="1159"/>
      <point x="1068" y="1080"/>
      <point x="1068" y="920" type="curve" smooth="yes"/>
      <point x="1068" y="650" type="line"/>
      <point x="1085" y="650" type="line"/>
    </contour>
    <contour>
      <point x="1103" y="650" type="line"/>
      <point x="1103" y="920" type="line" smooth="yes"/>
      <point x="1103" y="1080"/>
      <point x="1158" y="1159"/>
      <point x="1275" y="1159" type="curve" smooth="yes"/>
      <point x="1393" y="1159"/>
      <point x="1447" y="1080"/>
      <point x="1447" y="920" type="curve" smooth="yes"/>
      <point x="1447" y="364" type="line" smooth="yes"/>
      <point x="1447" y="191"/>
      <point x="1413" y="70"/>
      <point x="1353" y="-2.27374e-13" type="curve"/>
      <point x="1395" y="-2.27374e-13" type="line"/>
      <point x="1454" y="70"/>
      <point x="1482" y="190"/>
      <point x="1482" y="362" type="curve" smooth="yes"/>
      <point x="1482" y="920" type="line" smooth="yes"/>
      <point x="1482" y="1102"/>
      <point x="1419" y="1192"/>
      <point x="1275" y="1192" type="curve" smooth="yes"/>
      <point x="1167" y="1192"/>
      <point x="1103" y="1130"/>
      <point x="1086" y="1019" type="curve"/>
      <point x="1075" y="1019" type="line"/>
      <point x="1075" y="696" type="line"/>
    </contour>
  </outline>
</glyph>
<glyph name="Da.mlm" format="2">
  <advance width="685"/>
  <unicode hex="0D26"/>
  <outline>
    <contour>
      <point x="575" y="900" type="line" smooth="yes"/>
      <point x="575" y="1091"/>
      <point x="501" y="1192"/>
      <point x="343" y="1192" type="curve" smooth="yes"/>
      <point x="185" y="1192"/>
      <point x="113" y="1091"/>
      <point x="113" y="900" type="curve" smooth="yes"/>
      <point x="113" y="294" type="line" smooth="yes"/>
      <point x="113" y="151"/>
      <point x="130" y="57"/>
      <point x="157" y="0" type="curve"/>
      <point x="196" y="0" type="line"/>
      <point x="167" y="59"/>
      <point x="148" y="153"/>
      <point x="148" y="296" type="curve" smooth="yes"/>
      <point x="148" y="900" type="line" smooth="yes"/>
      <point x="148" y="1069"/>
      <point x="209" y="1159"/>
      <point x="343" y="1159" type="curve" smooth="yes"/>
      <point x="478" y="1159"/>
      <point x="540" y="1069"/>
      <point x="540" y="900" type="curve" smooth="yes"/>
      <point x="540" y="835" type="line" smooth="yes"/>
      <point x="540" y="684"/>
      <point x="487" y="619"/>
      <point x="371" y="616" type="curve" smooth="yes"/>
      <point x="332" y="615" type="line"/>
      <point x="332" y="586" type="line"/>
      <point x="378" y="585" type="line" smooth="yes"/>
      <point x="501" y="582"/>
      <point x="551" y="512"/>
      <point x="551" y="368" type="curve" smooth="yes"/>
      <point x="551" y="252" type="line" smooth="yes"/>
      <point x="551" y="98"/>
      <point x="501" y="26"/>
      <point x="391" y="26" type="curve" smooth="yes"/>
      <point x="371" y="26"/>
      <point x="343" y="28"/>
      <point x="325" y="31" type="curve"/>
      <point x="334" y="-4" type="line"/>
      <point x="352" y="-7"/>
      <point x="376" y="-7"/>
      <point x="395" y="-7" type="curve" smooth="yes"/>
      <point x="525" y="-7"/>
      <point x="586" y="75"/>
      <point x="586" y="250" type="curve" smooth="yes"/>
      <point x="586" y="366" type="line" smooth="yes"/>
      <point x="586" y="512"/>
      <point x="538" y="586"/>
      <point x="433" y="601" type="curve"/>
      <point x="433" y="603" type="line"/>
      <point x="531" y="617"/>
      <point x="575" y="694"/>
      <point x="575" y="835" type="curve" smooth="yes"/>
    </contour>
  </outline>
</glyph>
<glyph name="Dha.mlm" format="2">
  <advance width="1005"/>
  <unicode hex="0D27"/>
  <outline>
    <contour>
      <point x="520" y="385" type="line"/>
      <point x="520" y="1168" type="line"/>
      <point x="485" y="1168" type="line"/>
      <point x="485" y="385" type="line"/>
    </contour>
    <contour>
      <point x="485" y="523" type="line"/>
      <point x="485" y="256" type="line" smooth="yes"/>
      <point x="485" y="98"/>
      <point x="430" y="20"/>
      <point x="316" y="20" type="curve" smooth="yes"/>
      <point x="198" y="20"/>
      <point x="148" y="98"/>
      <point x="148" y="256" type="curve" smooth="yes"/>
      <point x="148" y="804" type="line" smooth="yes"/>
      <point x="148" y="979"/>
      <point x="185" y="1102"/>
      <point x="248" y="1172" type="curve"/>
      <point x="207" y="1172" type="line"/>
      <point x="146" y="1102"/>
      <point x="113" y="981"/>
      <point x="113" y="806" type="curve" smooth="yes"/>
      <point x="113" y="256" type="line" smooth="yes"/>
      <point x="113" y="75"/>
      <point x="174" y="-13"/>
      <point x="316" y="-13" type="curve" smooth="yes"/>
      <point x="421" y="-13"/>
      <point x="485" y="48"/>
      <point x="501" y="156" type="curve"/>
      <point x="513" y="156" type="line"/>
      <point x="513" y="477" type="line"/>
    </contour>
    <contour>
      <point x="503" y="156" type="line"/>
      <point x="520" y="48"/>
      <point x="584" y="-13"/>
      <point x="689" y="-13" type="curve" smooth="yes"/>
      <point x="831" y="-13"/>
      <point x="892" y="75"/>
      <point x="892" y="256" type="curve" smooth="yes"/>
      <point x="892" y="806" type="line" smooth="yes"/>
      <point x="892" y="981"/>
      <point x="859" y="1102"/>
      <point x="798" y="1172" type="curve"/>
      <point x="757" y="1172" type="line"/>
      <point x="820" y="1102"/>
      <point x="857" y="979"/>
      <point x="857" y="804" type="curve" smooth="yes"/>
      <point x="857" y="256" type="line" smooth="yes"/>
      <point x="857" y="98"/>
      <point x="807" y="20"/>
      <point x="689" y="20" type="curve" smooth="yes"/>
      <point x="575" y="20"/>
      <point x="520" y="98"/>
      <point x="520" y="256" type="curve" smooth="yes"/>
      <point x="520" y="523" type="line"/>
      <point x="503" y="523" type="line"/>
    </contour>
  </outline>
</glyph>
<glyph name="Na.mlm" format="2">
  <advance width="1019"/>
  <unicode hex="0D28"/>
  <outline>
    <contour>
      <point x="492" y="788" type="line"/>
      <point x="492" y="2" type="line"/>
      <point x="527" y="2" type="line"/>
      <point x="527" y="788" type="line"/>
    </contour>
    <contour>
      <point x="113" y="920" type="curve" smooth="yes"/>
      <point x="113" y="362" type="line" smooth="yes"/>
      <point x="113" y="190"/>
      <point x="141" y="70"/>
      <point x="200" y="0" type="curve"/>
      <point x="242" y="0" type="line"/>
      <point x="181" y="70"/>
      <point x="148" y="191"/>
      <point x="148" y="364" type="curve" smooth="yes"/>
      <point x="148" y="920" type="line" smooth="yes"/>
      <point x="148" y="1080"/>
      <point x="202" y="1159"/>
      <point x="319" y="1159" type="curve" smooth="yes"/>
      <point x="437" y="1159"/>
      <point x="492" y="1080"/>
      <point x="492" y="920" type="curve" smooth="yes"/>
      <point x="492" y="650" type="line"/>
      <point x="509" y="650" type="line"/>
      <point x="509" y="1019" type="line"/>
      <point x="492" y="1130"/>
      <point x="428" y="1192"/>
      <point x="319" y="1192" type="curve" smooth="yes"/>
      <point x="176" y="1192"/>
      <point x="113" y="1102"/>
    </contour>
    <contour>
      <point x="527" y="650" type="line"/>
      <point x="527" y="920" type="line" smooth="yes"/>
      <point x="527" y="1080"/>
      <point x="583" y="1159"/>
      <point x="700" y="1159" type="curve" smooth="yes"/>
      <point x="818" y="1159"/>
      <point x="871" y="1080"/>
      <point x="871" y="920" type="curve" smooth="yes"/>
      <point x="871" y="364" type="line" smooth="yes"/>
      <point x="871" y="191"/>
      <point x="838" y="70"/>
      <point x="778" y="0" type="curve"/>
      <point x="820" y="0" type="line"/>
      <point x="879" y="70"/>
      <point x="906" y="190"/>
      <point x="906" y="362" type="curve" smooth="yes"/>
      <point x="906" y="920" type="line" smooth="yes"/>
      <point x="906" y="1102"/>
      <point x="844" y="1192"/>
      <point x="700" y="1192" type="curve" smooth="yes"/>
      <point x="592" y="1192"/>
      <point x="527" y="1130"/>
      <point x="511" y="1019" type="curve"/>
      <point x="500" y="1019" type="line"/>
      <point x="500" y="696" type="line"/>
    </contour>
  </outline>
</glyph>
<glyph name="Ya.mlm" format="2">
  <advance width="1199"/>
  <unicode hex="0D2F"/>
  <outline>
    <contour>
      <point x="603" y="52" type="curve"/>
      <point x="595" y="50" type="line"/>
      <point x="559" y="28"/>
      <point x="505" y="15"/>
      <point x="446" y="15" type="curve" smooth="yes"/>
      <point x="249" y="15"/>
      <point x="148" y="138"/>
      <point x="148" y="383" type="curve" smooth="yes"/>
      <point x="148" y="972" type="line" smooth="yes"/>
      <point x="148" y="1093"/>
      <point x="194" y="1157"/>
      <point x="286" y="1157" type="curve" smooth="yes"/>
      <point x="382" y="1157"/>
      <point x="419" y="1086"/>
      <point x="422" y="964" type="curve" smooth="yes"/>
      <point x="444" y="381" type="line" smooth="yes"/>
      <point x="450" y="212"/>
      <point x="503" y="94"/>
      <point x="592" y="33" type="curve"/>
      <point x="603" y="28" type="line"/>
      <point x="649" y="-2"/>
      <point x="708" y="-18"/>
      <point x="781" y="-18" type="curve" smooth="yes"/>
      <point x="982" y="-18"/>
      <point x="1087" y="116"/>
      <point x="1087" y="383" type="curve" smooth="yes"/>
      <point x="1087" y="808" type="line" smooth="yes"/>
      <point x="1087" y="979"/>
      <point x="1052" y="1104"/>
      <point x="989" y="1174" type="curve"/>
      <point x="947" y="1174" type="line"/>
      <point x="1013" y="1104"/>
      <point x="1052" y="983"/>
      <point x="1052" y="806" type="curve" smooth="yes"/>
      <point x="1052" y="383" type="line" smooth="yes"/>
      <point x="1052" y="138"/>
      <point x="961" y="15"/>
      <point x="781" y="15" type="curve" smooth="yes"/>
      <point x="719" y="15"/>
      <point x="669" y="28"/>
      <point x="632" y="50" type="curve"/>
      <point x="625" y="52" type="line"/>
      <point x="533" y="105"/>
      <point x="485" y="221"/>
      <point x="479" y="381" type="curve" smooth="yes"/>
      <point x="457" y="964" type="line" smooth="yes"/>
      <point x="455" y="999"/>
      <point x="454" y="1021"/>
      <point x="450" y="1047" type="curve"/>
      <point x="448" y="1056" type="line"/>
      <point x="422" y="1146"/>
      <point x="373" y="1192"/>
      <point x="286" y="1192" type="curve" smooth="yes"/>
      <point x="172" y="1192"/>
      <point x="113" y="1117"/>
      <point x="113" y="972" type="curve" smooth="yes"/>
      <point x="113" y="383" type="line" smooth="yes"/>
      <point x="113" y="116"/>
      <point x="229" y="-18"/>
      <point x="446" y="-18" type="curve" smooth="yes"/>
      <point x="524" y="-18"/>
      <point x="579" y="-2"/>
      <point x="625" y="28" type="curve"/>
      <point x="638" y="35" type="line"/>
      <point x="733" y="107"/>
      <point x="766" y="245"/>
      <point x="776" y="381" type="curve" smooth="yes"/>
      <point x="787" y="556"/>
      <point x="800" y="785"/>
      <point x="800" y="943" type="curve" smooth="yes"/>
      <point x="800" y="1106"/>
      <point x="742" y="1192"/>
      <point x="614" y="1192" type="curve" smooth="yes"/>
      <point x="522" y="1192"/>
      <point x="466" y="1142"/>
      <point x="441" y="1070" type="curve"/>
      <point x="430" y="1068" type="line"/>
      <point x="452" y="1017" type="line"/>
      <point x="473" y="1108"/>
      <point x="530" y="1157"/>
      <point x="612" y="1157" type="curve" smooth="yes"/>
      <point x="718" y="1157"/>
      <point x="765" y="1085"/>
      <point x="765" y="943" type="curve" smooth="yes"/>
      <point x="765" y="792"/>
      <point x="752" y="543"/>
      <point x="741" y="381" type="curve" smooth="yes"/>
      <point x="731" y="248"/>
      <point x="702" y="109"/>
    </contour>
  </outline>
</glyph>
<glyph name="Ra.mlm" format="2">
  <advance width="876"/>
  <unicode hex="0D30"/>
  <outline>
    <contour>
      <point x="438" y="1159" type="curve" smooth="yes"/>
      <point x="635" y="1159"/>
      <point x="730" y="1030"/>
      <point x="730" y="776" type="curve" smooth="yes"/>
      <point x="730" y="729" type="line"/>
      <point x="720" y="729" type="line"/>
      <point x="730" y="708" type="line"/>
      <point x="730" y="223" type="line" smooth="yes"/>
      <point x="730" y="90"/>
      <point x="684" y="24"/>
      <point x="587" y="24" type="curve" smooth="yes"/>
      <point x="491" y="24"/>
      <point x="445" y="90"/>
      <point x="445" y="223" type="curve" smooth="yes"/>
      <point x="445" y="589" type="line" smooth="yes"/>
      <point x="445" y="712"/>
      <point x="489" y="773"/>
      <point x="589" y="773" type="curve" smooth="yes"/>
      <point x="651" y="773"/>
      <point x="703" y="745"/>
      <point x="730" y="684" type="curve"/>
      <point x="743" y="696" type="line"/>
      <point x="727" y="760"/>
      <point x="666" y="806"/>
      <point x="585" y="806" type="curve" smooth="yes"/>
      <point x="469" y="806"/>
      <point x="410" y="732"/>
      <point x="410" y="592" type="curve" smooth="yes"/>
      <point x="410" y="223" type="line" smooth="yes"/>
      <point x="410" y="68"/>
      <point x="467" y="-9"/>
      <point x="587" y="-9" type="curve" smooth="yes"/>
      <point x="708" y="-9"/>
      <point x="765" y="68"/>
      <point x="765" y="223" type="curve" smooth="yes"/>
      <point x="765" y="776" type="line" smooth="yes"/>
      <point x="765" y="1051"/>
      <point x="659" y="1192"/>
      <point x="438" y="1192" type="curve" smooth="yes"/>
      <point x="215" y="1192"/>
      <point x="112" y="1052"/>
      <point x="112" y="782" type="curve" smooth="yes"/>
      <point x="112" y="362" type="line" smooth="yes"/>
      <point x="112" y="190"/>
      <point x="140" y="70"/>
      <point x="199" y="0" type="curve"/>
      <point x="241" y="0" type="line"/>
      <point x="180" y="70"/>
      <point x="147" y="191"/>
      <point x="147" y="364" type="curve" smooth="yes"/>
      <point x="147" y="782" type="line" smooth="yes"/>
      <point x="147" y="1032"/>
      <point x="239" y="1159"/>
    </contour>
  </outline>
</glyph>
<glyph name="La.mlm" format="2">
  <advance width="946"/>
  <unicode hex="0D32"/>
  <outline>
    <contour>
      <point x="486" y="351" type="line"/>
      <point x="158" y="351" type="line"/>
      <point x="158" y="933" type="line" smooth="yes"/>
      <point x="158" y="1084"/>
      <point x="212" y="1159"/>
      <point x="322" y="1159" type="curve" smooth="yes"/>
      <point x="432" y="1159"/>
      <point x="486" y="1084"/>
      <point x="486" y="933" type="curve" smooth="yes"/>
    </contour>
    <contour>
      <point x="123" y="0" type="line"/>
      <point x="819" y="0" type="line"/>
      <point x="819" y="1174" type="line"/>
      <point x="784" y="1174" type="line"/>
      <point x="784" y="31" type="line"/>
      <point x="158" y="31" type="line"/>
      <point x="158" y="320" type="line"/>
      <point x="521" y="320" type="line"/>
      <point x="521" y="933" type="line" smooth="yes"/>
      <point x="521" y="1104"/>
      <point x="456" y="1192"/>
      <point x="322" y="1192" type="curve" smooth="yes"/>
      <point x="188" y="1192"/>
      <point x="123" y="1104"/>
      <point x="123" y="933" type="curve" smooth="yes"/>
    </contour>
  </outline>
</glyph>
<glyph name="Lla.mlm" format="2">
  <advance width="868"/>
  <unicode hex="0D33"/>
  <outline>
    <contour>
      <point x="266" y="-283" type="curve" smooth="yes"/>
      <point x="760" y="-283" type="line"/>
      <point x="767" y="-252" type="line"/>
      <point x="266" y="-252" type="line" smooth="yes"/>
      <point x="179" y="-252"/>
      <point x="137" y="-206"/>
      <point x="137" y="-125" type="curve" smooth="yes"/>
      <point x="137" y="-46"/>
      <point x="179" y="0"/>
      <point x="266" y="0" type="curve" smooth="yes"/>
      <point x="541" y="0" type="line" smooth="yes"/>
      <point x="695" y="0"/>
      <point x="769" y="87"/>
      <point x="769" y="261" type="curve" smooth="yes"/>
      <point x="769" y="318" type="line" smooth="yes"/>
      <point x="769" y="481"/>
      <point x="718" y="554"/>
      <point x="605" y="574" type="curve"/>
      <point x="605" y="576" type="line"/>
      <point x="713" y="594"/>
      <point x="761" y="668"/>
      <point x="761" y="821" type="curve" smooth="yes"/>
      <point x="761" y="861" type="line" smooth="yes"/>
      <point x="761" y="1072"/>
      <point x="660" y="1192"/>
      <point x="447" y="1192" type="curve" smooth="yes"/>
      <point x="217" y="1192"/>
      <point x="108" y="1056"/>
      <point x="108" y="800" type="curve" smooth="yes"/>
      <point x="108" y="392" type="line" smooth="yes"/>
      <point x="108" y="255"/>
      <point x="159" y="180"/>
      <point x="276" y="180" type="curve" smooth="yes"/>
      <point x="390" y="180"/>
      <point x="443" y="259"/>
      <point x="443" y="392" type="curve" smooth="yes"/>
      <point x="443" y="677" type="line" smooth="yes"/>
      <point x="443" y="803"/>
      <point x="390" y="872"/>
      <point x="287" y="872" type="curve" smooth="yes"/>
      <point x="198" y="872"/>
      <point x="147" y="817"/>
      <point x="128" y="742" type="curve"/>
      <point x="143" y="730" type="line"/>
      <point x="168" y="803"/>
      <point x="219" y="839"/>
      <point x="283" y="839" type="curve" smooth="yes"/>
      <point x="366" y="839"/>
      <point x="408" y="783"/>
      <point x="408" y="673" type="curve" smooth="yes"/>
      <point x="408" y="392" type="line" smooth="yes"/>
      <point x="408" y="275"/>
      <point x="367" y="213"/>
      <point x="276" y="213" type="curve" smooth="yes"/>
      <point x="185" y="213"/>
      <point x="143" y="275"/>
      <point x="143" y="392" type="curve" smooth="yes"/>
      <point x="143" y="754" type="line"/>
      <point x="153" y="783" type="line"/>
      <point x="143" y="783" type="line"/>
      <point x="143" y="800" type="line" smooth="yes"/>
      <point x="143" y="1036"/>
      <point x="239" y="1159"/>
      <point x="447" y="1159" type="curve" smooth="yes"/>
      <point x="638" y="1159"/>
      <point x="726" y="1051"/>
      <point x="726" y="861" type="curve" smooth="yes"/>
      <point x="726" y="819" type="line" smooth="yes"/>
      <point x="726" y="661"/>
      <point x="672" y="598"/>
      <point x="548" y="589" type="curve" smooth="yes"/>
      <point x="522" y="587" type="line"/>
      <point x="522" y="559" type="line"/>
      <point x="555" y="558" type="line" smooth="yes"/>
      <point x="679" y="551"/>
      <point x="734" y="483"/>
      <point x="734" y="320" type="curve" smooth="yes"/>
      <point x="734" y="261" type="line" smooth="yes"/>
      <point x="734" y="107"/>
      <point x="673" y="31"/>
      <point x="541" y="31" type="curve" smooth="yes"/>
      <point x="266" y="31" type="line" smooth="yes"/>
      <point x="156" y="31"/>
      <point x="101" y="-26"/>
      <point x="101" y="-125" type="curve" smooth="yes"/>
      <point x="101" y="-226"/>
      <point x="156" y="-283"/>
    </contour>
  </outline>
</glyph>
<glyph name="Zha.mlm" format="2">
  <advance width="825"/>
  <unicode hex="0D34"/>
  <outline>
    <contour>
      <point x="420" y="878" type="curve" smooth="yes"/>
      <point x="420" y="964" type="line" smooth="yes"/>
      <point x="420" y="1091"/>
      <point x="464" y="1159"/>
      <point x="554" y="1159" type="curve" smooth="yes"/>
      <point x="644" y="1159"/>
      <point x="688" y="1091"/>
      <point x="688" y="964" type="curve" smooth="yes"/>
      <point x="688" y="679" type="line" smooth="yes"/>
      <point x="688" y="456"/>
      <point x="594" y="342"/>
      <point x="414" y="342" type="curve" smooth="yes"/>
      <point x="230" y="342"/>
      <point x="138" y="456"/>
      <point x="138" y="679" type="curve" smooth="yes"/>
      <point x="138" y="861" type="line" smooth="yes"/>
      <point x="138" y="1010"/>
      <point x="167" y="1115"/>
      <point x="219" y="1174" type="curve"/>
      <point x="180" y="1174" type="line"/>
      <point x="131" y="1115"/>
      <point x="103" y="1012"/>
      <point x="103" y="863" type="curve" smooth="yes"/>
      <point x="103" y="679" type="line" smooth="yes"/>
      <point x="103" y="436"/>
      <point x="208" y="309"/>
      <point x="414" y="309" type="curve" smooth="yes"/>
      <point x="618" y="309"/>
      <point x="723" y="436"/>
      <point x="723" y="679" type="curve" smooth="yes"/>
      <point x="723" y="964" type="line" smooth="yes"/>
      <point x="723" y="1111"/>
      <point x="672" y="1192"/>
      <point x="554" y="1192" type="curve" smooth="yes"/>
      <point x="436" y="1192"/>
      <point x="385" y="1111"/>
      <point x="385" y="964" type="curve" smooth="yes"/>
      <point x="385" y="876" type="line" smooth="yes"/>
      <point x="385" y="627"/>
      <point x="440" y="473"/>
      <point x="475" y="339" type="curve"/>
      <point x="478" y="324" type="line"/>
      <point x="488" y="285"/>
      <point x="493" y="247"/>
      <point x="493" y="208" type="curve" smooth="yes"/>
      <point x="493" y="81"/>
      <point x="443" y="18"/>
      <point x="333" y="18" type="curve" smooth="yes"/>
      <point x="296" y="18"/>
      <point x="254" y="28"/>
      <point x="224" y="37" type="curve"/>
      <point x="236" y="2" type="line"/>
      <point x="263" y="-9"/>
      <point x="304" y="-15"/>
      <point x="337" y="-15" type="curve" smooth="yes"/>
      <point x="467" y="-15"/>
      <point x="528" y="59"/>
      <point x="528" y="206" type="curve" smooth="yes"/>
      <point x="528" y="248"/>
      <point x="523" y="287"/>
      <point x="512" y="329" type="curve"/>
      <point x="508" y="346" type="line"/>
      <point x="473" y="478"/>
      <point x="420" y="631"/>
    </contour>
  </outline>
</glyph>
<glyph name="Ssa.mlm" format="2">
  <advance width="1361"/>
  <unicode hex="0D37"/>
  <outline>
    <contour>
      <point x="293" y="771" type="curve" smooth="yes"/>
      <point x="165" y="771"/>
      <point x="102" y="684"/>
      <point x="102" y="521" type="curve" smooth="yes"/>
      <point x="102" y="258" type="line" smooth="yes"/>
      <point x="102" y="132"/>
      <point x="119" y="50"/>
      <point x="154" y="0" type="curve"/>
      <point x="194" y="0" type="line"/>
      <point x="157" y="52"/>
      <point x="137" y="134"/>
      <point x="137" y="259" type="curve" smooth="yes"/>
      <point x="137" y="521" type="line" smooth="yes"/>
      <point x="137" y="664"/>
      <point x="189" y="738"/>
      <point x="293" y="738" type="curve" smooth="yes"/>
      <point x="398" y="738"/>
      <point x="450" y="664"/>
      <point x="450" y="521" type="curve" smooth="yes"/>
      <point x="450" y="259" type="line" smooth="yes"/>
      <point x="450" y="138"/>
      <point x="430" y="57"/>
      <point x="391" y="6" type="curve"/>
      <point x="391" y="0" type="line"/>
      <point x="420" y="0" type="line"/>
      <point x="465" y="50"/>
      <point x="485" y="132"/>
      <point x="485" y="258" type="curve" smooth="yes"/>
      <point x="485" y="521" type="line" smooth="yes"/>
      <point x="485" y="684"/>
      <point x="422" y="771"/>
    </contour>
    <contour>
      <point x="391" y="0" type="line"/>
      <point x="1234" y="0" type="line"/>
      <point x="1234" y="1174" type="line"/>
      <point x="1199" y="1174" type="line"/>
      <point x="1199" y="31" type="line"/>
      <point x="417" y="31" type="line"/>
    </contour>
    <contour>
      <point x="941" y="677" type="line" smooth="yes"/>
      <point x="941" y="574"/>
      <point x="930" y="489"/>
      <point x="890" y="361" type="curve"/>
      <point x="890" y="360"/>
      <point x="887" y="349"/>
      <point x="886" y="348" type="curve"/>
      <point x="772" y="13" type="line"/>
      <point x="807" y="9" type="line"/>
      <point x="921" y="350" type="line"/>
      <point x="921" y="351"/>
      <point x="925" y="361"/>
      <point x="925" y="362" type="curve"/>
      <point x="965" y="491"/>
      <point x="976" y="576"/>
      <point x="976" y="677" type="curve" smooth="yes"/>
      <point x="976" y="968" type="line" smooth="yes"/>
      <point x="976" y="1117"/>
      <point x="927" y="1192"/>
      <point x="809" y="1192" type="curve" smooth="yes"/>
      <point x="691" y="1192"/>
      <point x="638" y="1117"/>
      <point x="638" y="968" type="curve" smooth="yes"/>
      <point x="638" y="670" type="line" smooth="yes"/>
      <point x="638" y="447"/>
      <point x="728" y="339"/>
      <point x="905" y="339" type="curve" smooth="yes"/>
      <point x="912" y="339" type="line"/>
      <point x="914" y="339"/>
      <point x="914" y="339"/>
      <point x="916" y="339" type="curve"/>
      <point x="1033" y="339"/>
      <point x="1127" y="368"/>
      <point x="1212" y="429" type="curve"/>
      <point x="1208" y="462" type="line"/>
      <point x="1125" y="401"/>
      <point x="1032" y="370"/>
      <point x="919" y="370" type="curve"/>
      <point x="917" y="370"/>
      <point x="916" y="370"/>
      <point x="914" y="370" type="curve"/>
      <point x="906" y="370" type="line" smooth="yes"/>
      <point x="752" y="370"/>
      <point x="673" y="466"/>
      <point x="673" y="670" type="curve" smooth="yes"/>
      <point x="673" y="968" type="line" smooth="yes"/>
      <point x="673" y="1098"/>
      <point x="717" y="1159"/>
      <point x="809" y="1159" type="curve" smooth="yes"/>
      <point x="901" y="1159"/>
      <point x="941" y="1098"/>
      <point x="941" y="968" type="curve" smooth="yes"/>
    </contour>
  </outline>
</glyph>
<glyph name="Ha.mlm" format="2">
  <advance width="1269"/>
  <unicode hex="0D39"/>
  <outline>
    <contour>
      <point x="293" y="771" type="curve" smooth="yes"/>
      <point x="165" y="771"/>
      <point x="102" y="684"/>
      <point x="102" y="521" type="curve" smooth="yes"/>
      <point x="102" y="258" type="line" smooth="yes"/>
      <point x="102" y="132"/>
      <point x="119" y="50"/>
      <point x="154" y="0" type="curve"/>
      <point x="194" y="0" type="line"/>
      <point x="157" y="52"/>
      <point x="137" y="134"/>
      <point x="137" y="259" type="curve" smooth="yes"/>
      <point x="137" y="521" type="line" smooth="yes"/>
      <point x="137" y="664"/>
      <point x="189" y="738"/>
      <point x="293" y="738" type="curve" smooth="yes"/>
      <point x="398" y="738"/>
      <point x="450" y="664"/>
      <point x="450" y="521" type="curve" smooth="yes"/>
      <point x="450" y="259" type="line" smooth="yes"/>
      <point x="450" y="138"/>
      <point x="430" y="57"/>
      <point x="391" y="6" type="curve"/>
      <point x="391" y="0" type="line"/>
      <point x="420" y="0" type="line"/>
      <point x="465" y="50"/>
      <point x="485" y="132"/>
      <point x="485" y="258" type="curve" smooth="yes"/>
      <point x="485" y="521" type="line" smooth="yes"/>
      <point x="485" y="684"/>
      <point x="422" y="771"/>
    </contour>
    <contour>
      <point x="435" y="31" type="line"/>
      <point x="391" y="0" type="line"/>
      <point x="827" y="0" type="line"/>
      <point x="798" y="31" type="line"/>
    </contour>
    <contour>
      <point x="936" y="1159" type="curve" smooth="yes"/>
      <point x="1063" y="1159"/>
      <point x="1121" y="1075"/>
      <point x="1121" y="905" type="curve" smooth="yes"/>
      <point x="1121" y="361" type="line" smooth="yes"/>
      <point x="1121" y="190"/>
      <point x="1092" y="68"/>
      <point x="1040" y="0" type="curve"/>
      <point x="1083" y="0" type="line"/>
      <point x="1132" y="68"/>
      <point x="1156" y="188"/>
      <point x="1156" y="359" type="curve" smooth="yes"/>
      <point x="1156" y="905" type="line" smooth="yes"/>
      <point x="1156" y="1095"/>
      <point x="1086" y="1192"/>
      <point x="936" y="1192" type="curve" smooth="yes"/>
      <point x="785" y="1192"/>
      <point x="715" y="1095"/>
      <point x="715" y="905" type="curve" smooth="yes"/>
      <point x="715" y="359" type="line" smooth="yes"/>
      <point x="715" y="188"/>
      <point x="741" y="68"/>
      <point x="792" y="0" type="curve"/>
      <point x="827" y="0" type="line"/>
      <point x="827" y="6" type="line"/>
      <point x="775" y="75"/>
      <point x="750" y="193"/>
      <point x="750" y="361" type="curve" smooth="yes"/>
      <point x="750" y="905" type="line" smooth="yes"/>
      <point x="750" y="1075"/>
      <point x="809" y="1159"/>
    </contour>
  </outline>
</glyph>
<glyph name="verticalbarviramasign.mlm" format="2">
  <unicode hex="0D3B"/>
  <outline>
    <contour>
      <point x="-344" y="1562" type="line"/>
      <point x="-344" y="1266" type="line"/>
      <point x="-311" y="1266" type="line"/>
      <point x="-311" y="1562" type="line"/>
    </contour>
  </outline>
</glyph>
<glyph name="circularviramasign.mlm" format="2">
  <unicode hex="0D3C"/>
  <outline>
    <contour>
      <point x="-147" y="1395" type="line" smooth="yes"/>
      <point x="-147" y="1291"/>
      <point x="-97" y="1239"/>
      <point x="-6" y="1239" type="curve" smooth="yes"/>
      <point x="86" y="1239"/>
      <point x="136" y="1291"/>
      <point x="136" y="1395" type="curve" smooth="yes"/>
      <point x="136" y="1425" type="line" smooth="yes"/>
      <point x="136" y="1529"/>
      <point x="86" y="1581"/>
      <point x="-6" y="1581" type="curve" smooth="yes"/>
      <point x="-97" y="1581"/>
      <point x="-147" y="1529"/>
      <point x="-147" y="1425" type="curve" smooth="yes"/>
    </contour>
    <contour>
      <point x="103" y="1395" type="line" smooth="yes"/>
      <point x="103" y="1314"/>
      <point x="64" y="1271"/>
      <point x="-6" y="1271" type="curve" smooth="yes"/>
      <point x="-75" y="1271"/>
      <point x="-114" y="1314"/>
      <point x="-114" y="1395" type="curve" smooth="yes"/>
      <point x="-114" y="1425" type="line" smooth="yes"/>
      <point x="-114" y="1506"/>
      <point x="-75" y="1549"/>
      <point x="-6" y="1549" type="curve" smooth="yes"/>
      <point x="64" y="1549"/>
      <point x="103" y="1506"/>
      <point x="103" y="1425" type="curve" smooth="yes"/>
    </contour>
  </outline>
</glyph>
<glyph name="matraA.mlm" format="2">
  <advance width="457"/>
  <unicode hex="0D3E"/>
  <outline>
    <contour>
      <point x="162" y="17" type="curve" smooth="yes"/>
      <point x="112" y="17"/>
      <point x="70" y="31"/>
      <point x="31" y="57" type="curve"/>
      <point x="39" y="18" type="line"/>
      <point x="74" y="-4"/>
      <point x="116" y="-17"/>
      <point x="164" y="-17" type="curve" smooth="yes"/>
      <point x="285" y="-17"/>
      <point x="344" y="63"/>
      <point x="344" y="237" type="curve" smooth="yes"/>
      <point x="344" y="937" type="line" smooth="yes"/>
      <point x="344" y="1111"/>
      <point x="285" y="1190"/>
      <point x="166" y="1190" type="curve" smooth="yes"/>
      <point x="118" y="1190"/>
      <point x="77" y="1178"/>
      <point x="42" y="1157" type="curve"/>
      <point x="35" y="1121" type="line"/>
      <point x="75" y="1143"/>
      <point x="114" y="1157"/>
      <point x="164" y="1157" type="curve" smooth="yes"/>
      <point x="263" y="1157"/>
      <point x="309" y="1089"/>
      <point x="309" y="933" type="curve" smooth="yes"/>
      <point x="309" y="241" type="line" smooth="yes"/>
      <point x="309" y="85"/>
      <point x="263" y="17"/>
    </contour>
  </outline>
</glyph>
<glyph name="matraI.mlm" format="2">
  <advance width="309"/>
  <unicode hex="0D3F"/>
  <outline>
    <contour>
      <point x="182" y="0" type="line"/>
      <point x="182" y="1264" type="line" smooth="yes"/>
      <point x="182" y="1447"/>
      <point x="112" y="1529"/>
      <point x="-20" y="1529" type="curve" smooth="yes"/>
      <point x="-104" y="1529"/>
      <point x="-172" y="1494"/>
      <point x="-234" y="1444" type="curve"/>
      <point x="-245" y="1397" type="line"/>
      <point x="-179" y="1451"/>
      <point x="-108" y="1496"/>
      <point x="-22" y="1496" type="curve" smooth="yes"/>
      <point x="90" y="1496"/>
      <point x="147" y="1425"/>
      <point x="147" y="1260" type="curve" smooth="yes"/>
      <point x="147" y="0" type="line"/>
    </contour>
  </outline>
</glyph>
<glyph name="matraU.mlm" format="2">
  <advance width="464"/>
  <unicode hex="0D41"/>
  <outline>
    <contour>
      <point x="222" y="-260" type="curve" smooth="yes"/>
      <point x="128" y="-260"/>
      <point x="87" y="-199"/>
      <point x="87" y="-57" type="curve" smooth="yes"/>
      <point x="87" y="83" type="line" smooth="yes"/>
      <point x="87" y="223"/>
      <point x="128" y="283"/>
      <point x="222" y="283" type="curve" smooth="yes"/>
      <point x="316" y="283"/>
      <point x="357" y="223"/>
      <point x="357" y="83" type="curve" smooth="yes"/>
      <point x="357" y="-57" type="line" smooth="yes"/>
      <point x="357" y="-199"/>
      <point x="316" y="-260"/>
    </contour>
    <contour>
      <point x="222" y="316" type="curve" smooth="yes"/>
      <point x="105" y="316"/>
      <point x="52" y="248"/>
      <point x="52" y="86" type="curve" smooth="yes"/>
      <point x="52" y="-61" type="line" smooth="yes"/>
      <point x="52" y="-225"/>
      <point x="105" y="-293"/>
      <point x="222" y="-293" type="curve" smooth="yes"/>
      <point x="339" y="-293"/>
      <point x="392" y="-225"/>
      <point x="392" y="-61" type="curve" smooth="yes"/>
      <point x="392" y="86" type="line" smooth="yes"/>
      <point x="392" y="242"/>
      <point x="343" y="310"/>
      <point x="236" y="316" type="curve"/>
      <point x="231" y="316"/>
      <point x="227" y="316"/>
    </contour>
    <contour>
      <point x="366" y="920" type="curve" smooth="yes"/>
      <point x="366" y="944" type="line" smooth="yes"/>
      <point x="366" y="1113"/>
      <point x="308" y="1190"/>
      <point x="193" y="1190" type="curve" smooth="yes"/>
      <point x="149" y="1190"/>
      <point x="107" y="1179"/>
      <point x="75" y="1161" type="curve"/>
      <point x="68" y="1124" type="line"/>
      <point x="104" y="1144"/>
      <point x="145" y="1157"/>
      <point x="191" y="1157" type="curve" smooth="yes"/>
      <point x="290" y="1157"/>
      <point x="331" y="1091"/>
      <point x="331" y="940" type="curve" smooth="yes"/>
      <point x="331" y="916" type="line" smooth="yes"/>
      <point x="331" y="662"/>
      <point x="278" y="466"/>
      <point x="208" y="302" type="curve"/>
      <point x="241" y="289" type="line"/>
      <point x="304" y="438"/>
      <point x="366" y="665"/>
    </contour>
  </outline>
</glyph>
<glyph name="matrashortE.mlm" format="2">
  <advance width="878"/>
  <unicode hex="0D46"/>
  <outline>
    <contour>
      <point x="438" y="1159" type="curve" smooth="yes"/>
      <point x="637" y="1159"/>
      <point x="731" y="1032"/>
      <point x="731" y="782" type="curve" smooth="yes"/>
      <point x="731" y="364" type="line" smooth="yes"/>
      <point x="731" y="191"/>
      <point x="698" y="70"/>
      <point x="637" y="0" type="curve"/>
      <point x="679" y="0" type="line"/>
      <point x="738" y="70"/>
      <point x="766" y="190"/>
      <point x="766" y="362" type="curve" smooth="yes"/>
      <point x="766" y="782" type="line" smooth="yes"/>
      <point x="766" y="1052"/>
      <point x="661" y="1192"/>
      <point x="438" y="1192" type="curve" smooth="yes"/>
      <point x="215" y="1192"/>
      <point x="112" y="1052"/>
      <point x="112" y="782" type="curve" smooth="yes"/>
      <point x="112" y="223" type="line" smooth="yes"/>
      <point x="112" y="68"/>
      <point x="169" y="-9"/>
      <point x="291" y="-9" type="curve" smooth="yes"/>
      <point x="410" y="-9"/>
      <point x="469" y="68"/>
      <point x="469" y="223" type="curve" smooth="yes"/>
      <point x="469" y="585" type="line" smooth="yes"/>
      <point x="469" y="725"/>
      <point x="410" y="799"/>
      <point x="304" y="799" type="curve" smooth="yes"/>
      <point x="212" y="799"/>
      <point x="153" y="736"/>
      <point x="134" y="650" type="curve"/>
      <point x="147" y="638" type="line"/>
      <point x="177" y="725"/>
      <point x="228" y="765"/>
      <point x="300" y="765" type="curve" smooth="yes"/>
      <point x="390" y="765"/>
      <point x="434" y="705"/>
      <point x="434" y="581" type="curve" smooth="yes"/>
      <point x="434" y="223" type="line" smooth="yes"/>
      <point x="434" y="90"/>
      <point x="388" y="24"/>
      <point x="291" y="24" type="curve" smooth="yes"/>
      <point x="193" y="24"/>
      <point x="147" y="90"/>
      <point x="147" y="223" type="curve" smooth="yes"/>
      <point x="147" y="663" type="line"/>
      <point x="147.492" y="664.53"/>
      <point x="155.564" y="689.644"/>
      <point x="156" y="691" type="curve"/>
      <point x="155.562" y="691"/>
      <point x="147.491" y="691"/>
      <point x="147" y="691" type="curve"/>
      <point x="147" y="782" type="line" smooth="yes"/>
      <point x="147" y="1032"/>
      <point x="239" y="1159"/>
    </contour>
  </outline>
</glyph>
<glyph name="matraE.mlm" format="2">
  <advance width="566"/>
  <unicode hex="0D47"/>
  <outline>
    <contour>
      <point x="146" y="794" type="line"/>
      <point x="157" y="794" type="line"/>
      <point x="146" y="827" type="line"/>
      <point x="146" y="955" type="line" smooth="yes"/>
      <point x="146" y="1089"/>
      <point x="192" y="1159"/>
      <point x="295" y="1159" type="curve" smooth="yes"/>
      <point x="398" y="1159"/>
      <point x="444" y="1089"/>
      <point x="444" y="955" type="curve" smooth="yes"/>
      <point x="444" y="902" type="line" smooth="yes"/>
      <point x="444" y="776"/>
      <point x="400" y="712"/>
      <point x="304" y="712" type="curve" smooth="yes"/>
      <point x="233" y="712"/>
      <point x="176" y="756"/>
      <point x="146" y="845" type="curve"/>
      <point x="133" y="834" type="line"/>
      <point x="155" y="743"/>
      <point x="211" y="679"/>
      <point x="308" y="679" type="curve" smooth="yes"/>
      <point x="419" y="679"/>
      <point x="479" y="756"/>
      <point x="479" y="898" type="curve" smooth="yes"/>
      <point x="479" y="955" type="line" smooth="yes"/>
      <point x="479" y="1111"/>
      <point x="422" y="1192"/>
      <point x="295" y="1192" type="curve" smooth="yes"/>
      <point x="168" y="1192"/>
      <point x="111" y="1111"/>
      <point x="111" y="955" type="curve" smooth="yes"/>
      <point x="111" y="220" type="line" smooth="yes"/>
      <point x="111" y="64"/>
      <point x="170" y="-17"/>
      <point x="295" y="-17" type="curve" smooth="yes"/>
      <point x="422" y="-17"/>
      <point x="479" y="64"/>
      <point x="479" y="220" type="curve" smooth="yes"/>
      <point x="479" y="281" type="line" smooth="yes"/>
      <point x="479" y="423"/>
      <point x="419" y="500"/>
      <point x="308" y="500" type="curve" smooth="yes"/>
      <point x="211" y="500"/>
      <point x="155" y="435"/>
      <point x="133" y="345" type="curve"/>
      <point x="146" y="334" type="line"/>
      <point x="176" y="423"/>
      <point x="233" y="467"/>
      <point x="304" y="467" type="curve" smooth="yes"/>
      <point x="400" y="467"/>
      <point x="444" y="402"/>
      <point x="444" y="277" type="curve" smooth="yes"/>
      <point x="444" y="220" type="line" smooth="yes"/>
      <point x="444" y="86"/>
      <point x="398" y="16"/>
      <point x="295" y="16" type="curve" smooth="yes"/>
      <point x="194" y="16"/>
      <point x="146" y="86"/>
      <point x="146" y="220" type="curve" smooth="yes"/>
      <point x="146" y="353" type="line"/>
      <point x="158" y="385" type="line"/>
      <point x="146" y="385" type="line"/>
    </contour>
  </outline>
</glyph>
<glyph name="Virama.mlm" format="2">
  <unicode hex="0D4D"/>
  <outline>
    <contour>
      <point x="-151" y="1332" type="curve" smooth="yes"/>
      <point x="-247" y="1332"/>
      <point x="-304" y="1387"/>
      <point x="-304" y="1496" type="curve" smooth="yes"/>
      <point x="-304" y="1553" type="line"/>
      <point x="-337" y="1553" type="line"/>
      <point x="-337" y="1496" type="line" smooth="yes"/>
      <point x="-337" y="1368"/>
      <point x="-269" y="1301"/>
      <point x="-151" y="1301" type="curve" smooth="yes"/>
      <point x="-32" y="1301"/>
      <point x="35" y="1368"/>
      <point x="35" y="1496" type="curve" smooth="yes"/>
      <point x="35" y="1553" type="line"/>
      <point x="2" y="1553" type="line"/>
      <point x="2" y="1496" type="line" smooth="yes"/>
      <point x="2" y="1385"/>
      <point x="-54" y="1332"/>
    </contour>
  </outline>
</glyph>
<glyph name="dotreph.mlm" format="2">
  <unicode hex="0D4E"/>
  <outline>
    <contour>
      <point x="-543" y="1397" type="line" smooth="yes"/>
      <point x="-543" y="1365"/>
      <point x="-530" y="1351"/>
      <point x="-504" y="1351" type="curve" smooth="yes"/>
      <point x="-478" y="1351"/>
      <point x="-466" y="1365"/>
      <point x="-466" y="1397" type="curve" smooth="yes"/>
      <point x="-466" y="1408" type="line" smooth="yes"/>
      <point x="-466" y="1439"/>
      <point x="-478" y="1454"/>
      <point x="-504" y="1454" type="curve" smooth="yes"/>
      <point x="-530" y="1454"/>
      <point x="-543" y="1439"/>
      <point x="-543" y="1408" type="curve" smooth="yes"/>
    </contour>
  </outline>
</glyph>
<glyph name="parasign.mlm" format="2">
  <advance width="1517"/>
  <unicode hex="0D4F"/>
  <outline>
    <contour>
      <point x="145" y="309" type="curve" smooth="yes"/>
      <point x="145" y="631" type="line" smooth="yes"/>
      <point x="145" y="902"/>
      <point x="195" y="1065"/>
      <point x="280" y="1174" type="curve"/>
      <point x="241" y="1174" type="line"/>
      <point x="156" y="1067"/>
      <point x="110" y="898"/>
      <point x="110" y="633" type="curve" smooth="yes"/>
      <point x="110" y="309" type="line" smooth="yes"/>
      <point x="110" y="-96"/>
      <point x="322" y="-300"/>
      <point x="758" y="-300" type="curve" smooth="yes"/>
      <point x="1198" y="-300"/>
      <point x="1404" y="-96"/>
      <point x="1404" y="309" type="curve" smooth="yes"/>
      <point x="1404" y="920" type="line" smooth="yes"/>
      <point x="1404" y="1102"/>
      <point x="1341" y="1192"/>
      <point x="1198" y="1192" type="curve" smooth="yes"/>
      <point x="1087" y="1192"/>
      <point x="1016" y="1130"/>
      <point x="1005" y="990" type="curve"/>
      <point x="997" y="990" type="line"/>
      <point x="997" y="696" type="line"/>
      <point x="1025" y="694" type="line"/>
      <point x="1025" y="920" type="line" smooth="yes"/>
      <point x="1025" y="1080"/>
      <point x="1082" y="1159"/>
      <point x="1198" y="1159" type="curve" smooth="yes"/>
      <point x="1316" y="1159"/>
      <point x="1369" y="1080"/>
      <point x="1369" y="920" type="curve" smooth="yes"/>
      <point x="1369" y="309" type="line" smooth="yes"/>
      <point x="1369" y="-77"/>
      <point x="1174" y="-267"/>
      <point x="758" y="-267" type="curve" smooth="yes"/>
      <point x="346" y="-267"/>
      <point x="145" y="-77"/>
    </contour>
    <contour>
      <point x="990" y="2" type="line"/>
      <point x="1025" y="2" type="line"/>
      <point x="1025" y="788" type="line"/>
      <point x="990" y="788" type="line"/>
    </contour>
    <contour>
      <point x="727" y="1192" type="curve" smooth="yes"/>
      <point x="510" y="1192"/>
      <point x="407" y="1062"/>
      <point x="407" y="811" type="curve" smooth="yes"/>
      <point x="407" y="223" type="line" smooth="yes"/>
      <point x="407" y="68"/>
      <point x="464" y="-9"/>
      <point x="585" y="-9" type="curve" smooth="yes"/>
      <point x="705" y="-9"/>
      <point x="764" y="68"/>
      <point x="764" y="223" type="curve" smooth="yes"/>
      <point x="764" y="585" type="line" smooth="yes"/>
      <point x="764" y="725"/>
      <point x="705" y="799"/>
      <point x="598" y="799" type="curve" smooth="yes"/>
      <point x="506" y="799"/>
      <point x="447" y="736"/>
      <point x="429" y="650" type="curve"/>
      <point x="442" y="638" type="line"/>
      <point x="471" y="725"/>
      <point x="523" y="765"/>
      <point x="594" y="765" type="curve" smooth="yes"/>
      <point x="685" y="765"/>
      <point x="729" y="705"/>
      <point x="729" y="581" type="curve" smooth="yes"/>
      <point x="729" y="223" type="line" smooth="yes"/>
      <point x="729" y="90"/>
      <point x="683" y="24"/>
      <point x="585" y="24" type="curve" smooth="yes"/>
      <point x="488" y="24"/>
      <point x="442" y="90"/>
      <point x="442" y="223" type="curve" smooth="yes"/>
      <point x="442" y="663" type="line"/>
      <point x="454" y="692" type="line"/>
      <point x="442" y="692" type="line"/>
      <point x="442" y="811" type="line" smooth="yes"/>
      <point x="442" y="1041"/>
      <point x="534" y="1159"/>
      <point x="727" y="1159" type="curve" smooth="yes"/>
      <point x="900" y="1159"/>
      <point x="990" y="1067"/>
      <point x="990" y="881" type="curve" smooth="yes"/>
      <point x="990" y="672" type="line"/>
      <point x="1003" y="672" type="line"/>
      <point x="1003" y="990" type="line"/>
      <point x="979" y="1115"/>
      <point x="891" y="1192"/>
    </contour>
  </outline>
</glyph>
<glyph name="chilluZh.mlm" format="2">
  <advance width="936"/>
  <unicode hex="0D56"/>
  <outline>
    <contour>
      <point x="361" y="1135" type="curve" smooth="yes"/>
      <point x="361" y="883"/>
      <point x="316" y="581"/>
      <point x="293" y="366" type="curve"/>
      <point x="293" y="361"/>
      <point x="291" y="357"/>
      <point x="291" y="353" type="curve"/>
      <point x="283" y="296"/>
      <point x="278" y="247"/>
      <point x="278" y="204" type="curve" smooth="yes"/>
      <point x="278" y="59"/>
      <point x="333" y="-15"/>
      <point x="454" y="-15" type="curve" smooth="yes"/>
      <point x="576" y="-15"/>
      <point x="631" y="59"/>
      <point x="631" y="204" type="curve" smooth="yes"/>
      <point x="631" y="248"/>
      <point x="627" y="296"/>
      <point x="618" y="340" type="curve"/>
      <point x="615" y="357" type="line"/>
      <point x="585" y="488"/>
      <point x="530" y="637"/>
      <point x="530" y="878" type="curve" smooth="yes"/>
      <point x="530" y="964" type="line" smooth="yes"/>
      <point x="530" y="1091"/>
      <point x="574" y="1159"/>
      <point x="664" y="1159" type="curve" smooth="yes"/>
      <point x="754" y="1159"/>
      <point x="799" y="1091"/>
      <point x="799" y="964" type="curve" smooth="yes"/>
      <point x="799" y="679" type="line" smooth="yes"/>
      <point x="799" y="456"/>
      <point x="684" y="342"/>
      <point x="469" y="342" type="curve" smooth="yes"/>
      <point x="250" y="342"/>
      <point x="138" y="456"/>
      <point x="138" y="679" type="curve" smooth="yes"/>
      <point x="138" y="861" type="line" smooth="yes"/>
      <point x="138" y="1010"/>
      <point x="167" y="1115"/>
      <point x="219" y="1174" type="curve"/>
      <point x="180" y="1174" type="line"/>
      <point x="131" y="1115"/>
      <point x="103" y="1012"/>
      <point x="103" y="863" type="curve" smooth="yes"/>
      <point x="103" y="679" type="line" smooth="yes"/>
      <point x="103" y="436"/>
      <point x="228" y="309"/>
      <point x="469" y="309" type="curve" smooth="yes"/>
      <point x="708" y="309"/>
      <point x="834" y="436"/>
      <point x="834" y="679" type="curve" smooth="yes"/>
      <point x="834" y="964" type="line" smooth="yes"/>
      <point x="834" y="1111"/>
      <point x="782" y="1192"/>
      <point x="664" y="1192" type="curve" smooth="yes"/>
      <point x="546" y="1192"/>
      <point x="495" y="1111"/>
      <point x="495" y="964" type="curve" smooth="yes"/>
      <point x="495" y="876" type="line" smooth="yes"/>
      <point x="495" y="633"/>
      <point x="554" y="482"/>
      <point x="581" y="350" type="curve"/>
      <point x="583" y="335" type="line"/>
      <point x="592" y="293"/>
      <point x="596" y="247"/>
      <point x="596" y="204" type="curve" smooth="yes"/>
      <point x="596" y="81"/>
      <point x="552" y="18"/>
      <point x="454" y="18" type="curve" smooth="yes"/>
      <point x="357" y="18"/>
      <point x="313" y="81"/>
      <point x="313" y="204" type="curve" smooth="yes"/>
      <point x="313" y="243"/>
      <point x="318" y="289"/>
      <point x="324" y="342" type="curve"/>
      <point x="324" y="346"/>
      <point x="326" y="350"/>
      <point x="326" y="355" type="curve"/>
      <point x="350" y="570"/>
      <point x="396" y="878"/>
      <point x="396" y="1133" type="curve" smooth="yes"/>
      <point x="396" y="1248"/>
      <point x="383" y="1349"/>
      <point x="355" y="1455" type="curve"/>
      <point x="320" y="1455" type="line"/>
      <point x="348" y="1349"/>
      <point x="361" y="1249"/>
    </contour>
  </outline>
</glyph>
<glyph name="lengthAu.mlm" format="2">
  <advance width="882"/>
  <unicode hex="0D57"/>
  <outline>
    <contour>
      <point x="419" y="26" type="curve" smooth="yes"/>
      <point x="358" y="26"/>
      <point x="290" y="39"/>
      <point x="240" y="53" type="curve"/>
      <point x="253" y="17" type="line"/>
      <point x="299" y="4"/>
      <point x="367" y="-7"/>
      <point x="422" y="-7" type="curve" smooth="yes"/>
      <point x="656" y="-7"/>
      <point x="770" y="127"/>
      <point x="770" y="390" type="curve" smooth="yes"/>
      <point x="770" y="964" type="line" smooth="yes"/>
      <point x="770" y="1119"/>
      <point x="713" y="1192"/>
      <point x="595" y="1192" type="curve" smooth="yes"/>
      <point x="503" y="1192"/>
      <point x="452" y="1146"/>
      <point x="435" y="1060" type="curve"/>
      <point x="433" y="1060" type="line"/>
      <point x="417" y="1146"/>
      <point x="365" y="1192"/>
      <point x="277" y="1192" type="curve" smooth="yes"/>
      <point x="154" y="1192"/>
      <point x="102" y="1119"/>
      <point x="102" y="966" type="curve" smooth="yes"/>
      <point x="102" y="673" type="line" smooth="yes"/>
      <point x="102" y="561"/>
      <point x="115" y="482"/>
      <point x="143" y="436" type="curve"/>
      <point x="179" y="436" type="line"/>
      <point x="152" y="484"/>
      <point x="137" y="563"/>
      <point x="137" y="675" type="curve" smooth="yes"/>
      <point x="137" y="966" type="line" smooth="yes"/>
      <point x="137" y="1098"/>
      <point x="179" y="1159"/>
      <point x="277" y="1159" type="curve" smooth="yes"/>
      <point x="376" y="1159"/>
      <point x="417" y="1098"/>
      <point x="417" y="968" type="curve" smooth="yes"/>
      <point x="417" y="441" type="line"/>
      <point x="452" y="441" type="line"/>
      <point x="452" y="968" type="line" smooth="yes"/>
      <point x="452" y="1098"/>
      <point x="494" y="1159"/>
      <point x="595" y="1159" type="curve" smooth="yes"/>
      <point x="691" y="1159"/>
      <point x="735" y="1098"/>
      <point x="735" y="964" type="curve" smooth="yes"/>
      <point x="735" y="392" type="line" smooth="yes"/>
      <point x="735" y="149"/>
      <point x="634" y="26"/>
    </contour>
  </outline>
</glyph>
<glyph name="oneonehundredandsixtieth.mlm" format="2">
  <advance width="1359"/>
  <unicode hex="0D58"/>
  <outline>
    <contour>
      <point x="484" y="385" type="line"/>
      <point x="519" y="385" type="line"/>
      <point x="519" y="1168" type="line"/>
      <point x="484" y="1168" type="line"/>
    </contour>
    <contour>
      <point x="501" y="156" type="curve"/>
      <point x="501" y="523" type="line"/>
      <point x="484" y="523" type="line"/>
      <point x="484" y="256" type="line" smooth="yes"/>
      <point x="484" y="98"/>
      <point x="429" y="20"/>
      <point x="315" y="20" type="curve" smooth="yes"/>
      <point x="197" y="20"/>
      <point x="148" y="98"/>
      <point x="148" y="256" type="curve" smooth="yes"/>
      <point x="148" y="804" type="line" smooth="yes"/>
      <point x="148" y="979"/>
      <point x="184" y="1102"/>
      <point x="247" y="1172" type="curve"/>
      <point x="206" y="1172" type="line"/>
      <point x="146" y="1102"/>
      <point x="113" y="981"/>
      <point x="113" y="806" type="curve" smooth="yes"/>
      <point x="113" y="256" type="line" smooth="yes"/>
      <point x="113" y="75"/>
      <point x="173" y="-13"/>
      <point x="315" y="-13" type="curve" smooth="yes"/>
      <point x="420" y="-13"/>
      <point x="484" y="48"/>
    </contour>
    <contour>
      <point x="679" y="-13" type="curve" smooth="yes"/>
      <point x="782" y="-13"/>
      <point x="838" y="46"/>
      <point x="856" y="156" type="curve"/>
      <point x="867" y="156" type="line"/>
      <point x="867" y="477" type="line"/>
      <point x="839" y="523" type="line"/>
      <point x="839" y="256" type="line" smooth="yes"/>
      <point x="839" y="98"/>
      <point x="788" y="20"/>
      <point x="679" y="20" type="curve" smooth="yes"/>
      <point x="571" y="20"/>
      <point x="519" y="98"/>
      <point x="519" y="256" type="curve" smooth="yes"/>
      <point x="519" y="523" type="line"/>
      <point x="492" y="477" type="line"/>
      <point x="492" y="156" type="line"/>
      <point x="503" y="156" type="line"/>
      <point x="521" y="46"/>
      <point x="578" y="-13"/>
    </contour>
    <contour>
      <point x="874" y="385" type="line"/>
      <point x="874" y="1168" type="line"/>
      <point x="839" y="1168" type="line"/>
      <point x="839" y="385" type="line"/>
    </contour>
    <contour>
      <point x="1211" y="256" type="line" smooth="yes"/>
      <point x="1211" y="98"/>
      <point x="1161" y="20"/>
      <point x="1044" y="20" type="curve" smooth="yes"/>
      <point x="930" y="20"/>
      <point x="874" y="98"/>
      <point x="874" y="256" type="curve" smooth="yes"/>
      <point x="874" y="523" type="line"/>
      <point x="858" y="523" type="line"/>
      <point x="858" y="156" type="line"/>
      <point x="874" y="48"/>
      <point x="939" y="-13"/>
      <point x="1044" y="-13" type="curve" smooth="yes"/>
      <point x="1185" y="-13"/>
      <point x="1246" y="75"/>
      <point x="1246" y="256" type="curve" smooth="yes"/>
      <point x="1246" y="896" type="line" smooth="yes"/>
      <point x="1246" y="1236"/>
      <point x="1104" y="1413"/>
      <point x="779" y="1413" type="curve" smooth="yes"/>
      <point x="681" y="1413"/>
      <point x="582" y="1398"/>
      <point x="486" y="1367" type="curve"/>
      <point x="473" y="1330" type="line"/>
      <point x="571" y="1362"/>
      <point x="677" y="1380"/>
      <point x="779" y="1380" type="curve" smooth="yes"/>
      <point x="1080" y="1380"/>
      <point x="1211" y="1216"/>
      <point x="1211" y="896" type="curve" smooth="yes"/>
    </contour>
  </outline>
</glyph>
<glyph name="onetwentieth.mlm" format="2">
  <advance width="983"/>
  <unicode hex="0D5B"/>
  <outline>
    <contour>
      <point x="158" y="0" type="line"/>
      <point x="158" y="1174" type="line"/>
      <point x="123" y="1174" type="line"/>
      <point x="123" y="0" type="line"/>
    </contour>
    <contour>
      <point x="517" y="1143" type="line"/>
      <point x="558" y="1174" type="line"/>
      <point x="129" y="1174" type="line"/>
      <point x="129" y="1143" type="line"/>
    </contour>
    <contour>
      <point x="657" y="15" type="curve" smooth="yes"/>
      <point x="534" y="15"/>
      <point x="478" y="98"/>
      <point x="478" y="265" type="curve" smooth="yes"/>
      <point x="478" y="813" type="line" smooth="yes"/>
      <point x="478" y="981"/>
      <point x="504" y="1098"/>
      <point x="558" y="1168" type="curve"/>
      <point x="558" y="1174" type="line"/>
      <point x="526" y="1174" type="line"/>
      <point x="471" y="1106"/>
      <point x="443" y="986"/>
      <point x="443" y="815" type="curve" smooth="yes"/>
      <point x="443" y="265" type="line" smooth="yes"/>
      <point x="443" y="77"/>
      <point x="510" y="-18"/>
      <point x="657" y="-18" type="curve" smooth="yes"/>
      <point x="802" y="-18"/>
      <point x="870" y="77"/>
      <point x="870" y="265" type="curve" smooth="yes"/>
      <point x="870" y="815" type="line" smooth="yes"/>
      <point x="870" y="986"/>
      <point x="845" y="1106"/>
      <point x="791" y="1174" type="curve"/>
      <point x="753" y="1174" type="line"/>
      <point x="806" y="1106"/>
      <point x="835" y="984"/>
      <point x="835" y="813" type="curve" smooth="yes"/>
      <point x="835" y="265" type="line" smooth="yes"/>
      <point x="835" y="98"/>
      <point x="778" y="15"/>
    </contour>
  </outline>
</glyph>
<glyph name="threetwentieths.mlm" format="2">
  <advance width="2111"/>
  <unicode hex="0D5D"/>
  <outline>
    <contour>
      <point x="261" y="385" type="line"/>
      <point x="296" y="385" type="line"/>
      <point x="296" y="1168" type="line"/>
      <point x="261" y="1168" type="line"/>
    </contour>
    <contour>
      <point x="106" y="-13" type="curve" smooth="yes"/>
      <point x="206" y="-13"/>
      <point x="259" y="46"/>
      <point x="277" y="156" type="curve"/>
      <point x="288" y="156" type="line"/>
      <point x="288" y="477" type="line"/>
      <point x="261" y="523" type="line"/>
      <point x="261" y="256" type="line" smooth="yes"/>
      <point x="261" y="98"/>
      <point x="211" y="20"/>
      <point x="106" y="20" type="curve" smooth="yes"/>
      <point x="70" y="20"/>
      <point x="36" y="26"/>
      <point x="0" y="37" type="curve"/>
      <point x="12" y="0" type="line"/>
      <point x="46" y="-9"/>
      <point x="73" y="-13"/>
    </contour>
    <contour>
      <point x="791" y="1192" type="curve" smooth="yes"/>
      <point x="656" y="1192"/>
      <point x="592" y="1104"/>
      <point x="592" y="929" type="curve" smooth="yes"/>
      <point x="592" y="736"/>
      <point x="622" y="443"/>
      <point x="622" y="250" type="curve" smooth="yes"/>
      <point x="622" y="96"/>
      <point x="570" y="20"/>
      <point x="456" y="20" type="curve" smooth="yes"/>
      <point x="347" y="20"/>
      <point x="296" y="98"/>
      <point x="296" y="256" type="curve" smooth="yes"/>
      <point x="296" y="523" type="line"/>
      <point x="268" y="477" type="line"/>
      <point x="279" y="156" type="line"/>
      <point x="298" y="46"/>
      <point x="353" y="-13"/>
      <point x="456" y="-13" type="curve" smooth="yes"/>
      <point x="592" y="-13"/>
      <point x="656" y="75"/>
      <point x="656" y="250" type="curve" smooth="yes"/>
      <point x="656" y="443"/>
      <point x="627" y="736"/>
      <point x="627" y="929" type="curve" smooth="yes"/>
      <point x="627" y="1084"/>
      <point x="679" y="1159"/>
      <point x="791" y="1159" type="curve" smooth="yes"/>
      <point x="903" y="1159"/>
      <point x="955" y="1084"/>
      <point x="955" y="929" type="curve" smooth="yes"/>
      <point x="955" y="736"/>
      <point x="925" y="443"/>
      <point x="925" y="250" type="curve" smooth="yes"/>
      <point x="925" y="75"/>
      <point x="990" y="-13"/>
      <point x="1126" y="-13" type="curve" smooth="yes"/>
      <point x="1262" y="-13"/>
      <point x="1326" y="75"/>
      <point x="1326" y="250" type="curve" smooth="yes"/>
      <point x="1326" y="443"/>
      <point x="1297" y="736"/>
      <point x="1297" y="929" type="curve" smooth="yes"/>
      <point x="1297" y="1084"/>
      <point x="1348" y="1159"/>
      <point x="1461" y="1159" type="curve" smooth="yes"/>
      <point x="1573" y="1159"/>
      <point x="1624" y="1084"/>
      <point x="1624" y="929" type="curve" smooth="yes"/>
      <point x="1624" y="736"/>
      <point x="1595" y="443"/>
      <point x="1595" y="250" type="curve" smooth="yes"/>
      <point x="1595" y="75"/>
      <point x="1659" y="-13"/>
      <point x="1795" y="-13" type="curve" smooth="yes"/>
      <point x="1932" y="-13"/>
      <point x="1998" y="75"/>
      <point x="1998" y="250" type="curve" smooth="yes"/>
      <point x="1998" y="808" type="line" smooth="yes"/>
      <point x="1998" y="983"/>
      <point x="1965" y="1104"/>
      <point x="1904" y="1174" type="curve"/>
      <point x="1864" y="1174" type="line"/>
      <point x="1926" y="1104"/>
      <point x="1963" y="981"/>
      <point x="1963" y="806" type="curve" smooth="yes"/>
      <point x="1963" y="250" type="line" smooth="yes"/>
      <point x="1963" y="96"/>
      <point x="1910" y="20"/>
      <point x="1795" y="20" type="curve" smooth="yes"/>
      <point x="1681" y="20"/>
      <point x="1630" y="96"/>
      <point x="1630" y="250" type="curve" smooth="yes"/>
      <point x="1630" y="443"/>
      <point x="1659" y="736"/>
      <point x="1659" y="929" type="curve" smooth="yes"/>
      <point x="1659" y="1104"/>
      <point x="1595" y="1192"/>
      <point x="1461" y="1192" type="curve" smooth="yes"/>
      <point x="1326" y="1192"/>
      <point x="1262" y="1104"/>
      <point x="1262" y="929" type="curve" smooth="yes"/>
      <point x="1262" y="736"/>
      <point x="1291" y="443"/>
      <point x="1291" y="250" type="curve" smooth="yes"/>
      <point x="1291" y="96"/>
      <point x="1240" y="20"/>
      <point x="1126" y="20" type="curve" smooth="yes"/>
      <point x="1012" y="20"/>
      <point x="960" y="96"/>
      <point x="960" y="250" type="curve" smooth="yes"/>
      <point x="960" y="443"/>
      <point x="990" y="736"/>
      <point x="990" y="929" type="curve" smooth="yes"/>
      <point x="990" y="1104"/>
      <point x="925" y="1192"/>
    </contour>
  </outline>
</glyph>
<glyph name="vowelRuu.mlm" format="2">
  <advance width="1034"/>
  <unicode hex="0D60"/>
  <outline>
    <contour>
      <point x="598" y="-109" type="line" smooth="yes"/>
      <point x="782" y="-109"/>
      <point x="878" y="-35"/>
      <point x="878" y="108" type="curve" smooth="yes"/>
      <point x="878" y="237"/>
      <point x="807" y="295"/>
      <point x="693" y="313" type="curve"/>
      <point x="693" y="317" type="line"/>
      <point x="598" y="326" type="line"/>
      <point x="436" y="326" type="line"/>
      <point x="342" y="315" type="line"/>
      <point x="342" y="313" type="line"/>
      <point x="227" y="294"/>
      <point x="156" y="237"/>
      <point x="156" y="108" type="curve" smooth="yes"/>
      <point x="156" y="-35"/>
      <point x="252" y="-109"/>
      <point x="436" y="-109" type="curve" smooth="yes"/>
    </contour>
    <contour>
      <point x="598" y="294" type="line" smooth="yes"/>
      <point x="766" y="294"/>
      <point x="843" y="238"/>
      <point x="843" y="108" type="curve" smooth="yes"/>
      <point x="843" y="-15"/>
      <point x="759" y="-77"/>
      <point x="598" y="-77" type="curve" smooth="yes"/>
      <point x="436" y="-77" type="line" smooth="yes"/>
      <point x="275" y="-77"/>
      <point x="191" y="-15"/>
      <point x="191" y="108" type="curve" smooth="yes"/>
      <point x="191" y="238"/>
      <point x="268" y="294"/>
      <point x="436" y="294" type="curve" smooth="yes"/>
    </contour>
    <contour>
      <point x="420" y="186" type="curve" smooth="yes"/>
      <point x="344" y="186"/>
      <point x="305" y="139"/>
      <point x="305" y="57" type="curve" smooth="yes"/>
      <point x="305" y="37" type="line"/>
      <point x="338" y="34" type="line"/>
      <point x="338" y="57" type="line" smooth="yes"/>
      <point x="338" y="121"/>
      <point x="367" y="156"/>
      <point x="420" y="156" type="curve" smooth="yes"/>
      <point x="474" y="156"/>
      <point x="495" y="121"/>
      <point x="500" y="63" type="curve"/>
      <point x="501" y="39" type="line"/>
      <point x="533" y="39" type="line"/>
      <point x="535" y="63" type="line" smooth="yes"/>
      <point x="539.828" y="120.937"/>
      <point x="560" y="156"/>
      <point x="614" y="156" type="curve" smooth="yes"/>
      <point x="668" y="156"/>
      <point x="698" y="121"/>
      <point x="698" y="57" type="curve" smooth="yes"/>
      <point x="698" y="34" type="line"/>
      <point x="731" y="37" type="line"/>
      <point x="731" y="57" type="line" smooth="yes"/>
      <point x="731" y="139"/>
      <point x="691" y="186"/>
      <point x="614" y="186" type="curve" smooth="yes"/>
      <point x="557" y="186"/>
      <point x="525" y="154"/>
      <point x="517" y="103" type="curve"/>
      <point x="517" y="103" type="line"/>
      <point x="509" y="154"/>
      <point x="478" y="186"/>
    </contour>
    <contour>
      <point x="895.802" y="646.674" type="line" smooth="yes"/>
      <point x="896.088" y="468.752"/>
      <point x="794.656" y="326"/>
      <point x="591" y="326" type="curve"/>
      <point x="642" y="309" type="line"/>
      <point x="660" y="309"/>
      <point x="676.973" y="311.15"/>
      <point x="693" y="314" type="curve" smooth="yes"/>
      <point x="854.554" y="342.729"/>
      <point x="931" y="492.113"/>
      <point x="931" y="649" type="curve" smooth="yes"/>
      <point x="931" y="979" type="line" smooth="yes"/>
      <point x="931" y="1122"/>
      <point x="880" y="1192"/>
      <point x="765" y="1192" type="curve" smooth="yes"/>
      <point x="651" y="1192"/>
      <point x="600" y="1122"/>
      <point x="600" y="979" type="curve" smooth="yes"/>
      <point x="600" y="744" type="line" smooth="yes"/>
      <point x="600" y="616"/>
      <point x="655" y="549"/>
      <point x="753" y="549" type="curve" smooth="yes"/>
      <point x="839" y="549"/>
      <point x="889" y="606"/>
      <point x="909" y="684" type="curve"/>
      <point x="896" y="695" type="line"/>
      <point x="868" y="617"/>
      <point x="821" y="583"/>
      <point x="756" y="583" type="curve" smooth="yes"/>
      <point x="673" y="583"/>
      <point x="635" y="636"/>
      <point x="635" y="748" type="curve" smooth="yes"/>
      <point x="635" y="979" type="line" smooth="yes"/>
      <point x="635" y="1100"/>
      <point x="677" y="1159"/>
      <point x="765" y="1159" type="curve" smooth="yes"/>
      <point x="854" y="1159"/>
      <point x="896" y="1100"/>
      <point x="896" y="979" type="curve" smooth="yes"/>
      <point x="896" y="680" type="line"/>
      <point x="891" y="663" type="line"/>
      <point x="896" y="663" type="line"/>
    </contour>
    <contour>
      <point x="443" y="326" type="line"/>
      <point x="239.344" y="326"/>
      <point x="137.912" y="468.752"/>
      <point x="138.198" y="646.674" type="curve" smooth="yes"/>
      <point x="138" y="663" type="line"/>
      <point x="143" y="663" type="line"/>
      <point x="138" y="680" type="line"/>
      <point x="138" y="979" type="line" smooth="yes"/>
      <point x="138" y="1100"/>
      <point x="180" y="1159"/>
      <point x="269" y="1159" type="curve" smooth="yes"/>
      <point x="357" y="1159"/>
      <point x="399" y="1100"/>
      <point x="399" y="979" type="curve" smooth="yes"/>
      <point x="399" y="748" type="line" smooth="yes"/>
      <point x="399" y="636"/>
      <point x="361" y="583"/>
      <point x="278" y="583" type="curve" smooth="yes"/>
      <point x="213" y="583"/>
      <point x="166" y="617"/>
      <point x="138" y="695" type="curve"/>
      <point x="125" y="684" type="line"/>
      <point x="145" y="606"/>
      <point x="195" y="549"/>
      <point x="281" y="549" type="curve" smooth="yes"/>
      <point x="379" y="549"/>
      <point x="434" y="616"/>
      <point x="434" y="744" type="curve" smooth="yes"/>
      <point x="434" y="979" type="line" smooth="yes"/>
      <point x="434" y="1122"/>
      <point x="383" y="1192"/>
      <point x="269" y="1192" type="curve" smooth="yes"/>
      <point x="154" y="1192"/>
      <point x="103" y="1122"/>
      <point x="103" y="979" type="curve" smooth="yes"/>
      <point x="103" y="649" type="line" smooth="yes"/>
      <point x="103" y="492.113"/>
      <point x="179.779" y="342.788"/>
      <point x="342" y="314" type="curve" smooth="yes"/>
      <point x="357.725" y="311.209"/>
      <point x="374.353" y="309"/>
      <point x="392" y="309" type="curve"/>
    </contour>
  </outline>
</glyph>
<glyph name="vowelLruu.mlm" format="2">
  <advance width="1691"/>
  <unicode hex="0D61"/>
  <outline>
    <contour>
      <point x="1288" y="886" type="line"/>
      <point x="1465" y="878"/>
      <point x="1547" y="766"/>
      <point x="1547" y="551" type="curve" smooth="yes"/>
      <point x="1547" y="177" type="line" smooth="yes"/>
      <point x="1547" y="-84"/>
      <point x="1453" y="-203"/>
      <point x="1249" y="-203" type="curve" smooth="yes"/>
      <point x="1168" y="-203"/>
      <point x="1107" y="-189"/>
      <point x="1047" y="-169" type="curve"/>
      <point x="1056" y="-205" type="line"/>
      <point x="1113" y="-224"/>
      <point x="1181" y="-237"/>
      <point x="1249" y="-237" type="curve" smooth="yes"/>
      <point x="1477" y="-237"/>
      <point x="1582" y="-104"/>
      <point x="1582" y="176" type="curve" smooth="yes"/>
      <point x="1582" y="551" type="line" smooth="yes"/>
      <point x="1582" y="786"/>
      <point x="1489" y="911"/>
      <point x="1286" y="919" type="curve"/>
    </contour>
    <contour>
      <point x="991" y="1159" type="curve" smooth="yes"/>
      <point x="1149" y="1159"/>
      <point x="1239" y="1080"/>
      <point x="1263" y="917" type="curve"/>
      <point x="1264" y="906" type="line"/>
      <point x="1268" y="879"/>
      <point x="1269" y="850"/>
      <point x="1269" y="819" type="curve" smooth="yes"/>
      <point x="1269" y="249" type="line" smooth="yes"/>
      <point x="1269" y="128"/>
      <point x="1227" y="63"/>
      <point x="1131" y="63" type="curve" smooth="yes"/>
      <point x="1037" y="63"/>
      <point x="993" y="128"/>
      <point x="993" y="249" type="curve" smooth="yes"/>
      <point x="993" y="551" type="line" smooth="yes"/>
      <point x="993" y="773"/>
      <point x="1083" y="886"/>
      <point x="1267" y="886" type="curve"/>
      <point x="1269" y="886"/>
      <point x="1275" y="886"/>
      <point x="1277" y="886" type="curve"/>
      <point x="1275" y="919" type="line"/>
      <point x="1275" y="919"/>
      <point x="1269" y="919"/>
      <point x="1267" y="919" type="curve"/>
      <point x="1059" y="919"/>
      <point x="958" y="794"/>
      <point x="958" y="551" type="curve" smooth="yes"/>
      <point x="958" y="249" type="line" smooth="yes"/>
      <point x="958" y="106"/>
      <point x="1015" y="30"/>
      <point x="1131" y="30" type="curve" smooth="yes"/>
      <point x="1249" y="30"/>
      <point x="1304" y="106"/>
      <point x="1304" y="249" type="curve" smooth="yes"/>
      <point x="1304" y="819" type="line" smooth="yes"/>
      <point x="1304" y="851"/>
      <point x="1303" y="880"/>
      <point x="1299" y="908" type="curve"/>
      <point x="1298" y="912" type="line"/>
      <point x="1273" y="1097"/>
      <point x="1170" y="1192"/>
      <point x="991" y="1192" type="curve" smooth="yes"/>
      <point x="830" y="1192"/>
      <point x="736" y="1113"/>
      <point x="714" y="972" type="curve"/>
      <point x="703" y="972" type="line"/>
      <point x="703" y="672" type="line"/>
      <point x="730" y="672" type="line"/>
      <point x="730" y="881" type="line" smooth="yes"/>
      <point x="730" y="1065"/>
      <point x="820" y="1159"/>
    </contour>
    <contour>
      <point x="432" y="1192" type="curve" smooth="yes"/>
      <point x="215" y="1192"/>
      <point x="112" y="1062"/>
      <point x="112" y="811" type="curve" smooth="yes"/>
      <point x="112" y="223" type="line" smooth="yes"/>
      <point x="112" y="68"/>
      <point x="169" y="-9"/>
      <point x="290" y="-9" type="curve" smooth="yes"/>
      <point x="410" y="-9"/>
      <point x="469" y="68"/>
      <point x="469" y="223" type="curve" smooth="yes"/>
      <point x="469" y="585" type="line" smooth="yes"/>
      <point x="469" y="725"/>
      <point x="410" y="799"/>
      <point x="303" y="799" type="curve" smooth="yes"/>
      <point x="211" y="799"/>
      <point x="152" y="736"/>
      <point x="134" y="650" type="curve"/>
      <point x="147" y="638" type="line"/>
      <point x="176" y="725"/>
      <point x="227" y="765"/>
      <point x="299" y="765" type="curve" smooth="yes"/>
      <point x="389" y="765"/>
      <point x="434" y="705"/>
      <point x="434" y="581" type="curve" smooth="yes"/>
      <point x="434" y="223" type="line" smooth="yes"/>
      <point x="434" y="90"/>
      <point x="388" y="24"/>
      <point x="290" y="24" type="curve" smooth="yes"/>
      <point x="193" y="24"/>
      <point x="147" y="90"/>
      <point x="147" y="223" type="curve" smooth="yes"/>
      <point x="147" y="663" type="line"/>
      <point x="157" y="692" type="line"/>
      <point x="147" y="692" type="line"/>
      <point x="147" y="811" type="line" smooth="yes"/>
      <point x="147" y="1041"/>
      <point x="239" y="1159"/>
      <point x="432" y="1159" type="curve" smooth="yes"/>
      <point x="605" y="1159"/>
      <point x="695" y="1065"/>
      <point x="695" y="881" type="curve" smooth="yes"/>
      <point x="695" y="672" type="line"/>
      <point x="711" y="672" type="line"/>
      <point x="711" y="972" type="line"/>
      <point x="689" y="1113"/>
      <point x="595" y="1192"/>
    </contour>
    <contour>
      <point x="695" y="2" type="line"/>
      <point x="730" y="2" type="line"/>
      <point x="730" y="788" type="line"/>
      <point x="695" y="788" type="line"/>
    </contour>
  </outline>
</glyph>
<glyph name="uni0D62" format="2">
  <unicode hex="0D62"/>
  <outline>
    <contour>
      <point x="-493" y="-431" type="line"/>
      <point x="-461" y="-431" type="line"/>
      <point x="-461" y="-110" type="line"/>
      <point x="-493" y="-110" type="line"/>
    </contour>
    <contour>
      <point x="-659" y="30" type="curve" smooth="yes"/>
      <point x="-800" y="30"/>
      <point x="-867" y="-42"/>
      <point x="-867" y="-186" type="curve" smooth="yes"/>
      <point x="-867" y="-315" type="line" smooth="yes"/>
      <point x="-867" y="-397"/>
      <point x="-826" y="-442"/>
      <point x="-750" y="-442" type="curve" smooth="yes"/>
      <point x="-671" y="-442"/>
      <point x="-632" y="-397"/>
      <point x="-632" y="-315" type="curve" smooth="yes"/>
      <point x="-632" y="-260" type="line" smooth="yes"/>
      <point x="-632" y="-178"/>
      <point x="-671" y="-134"/>
      <point x="-737" y="-134" type="curve" smooth="yes"/>
      <point x="-798" y="-134"/>
      <point x="-836" y="-167"/>
      <point x="-852" y="-225" type="curve"/>
      <point x="-837" y="-230" type="line"/>
      <point x="-820" y="-182"/>
      <point x="-783" y="-164"/>
      <point x="-745" y="-164" type="curve" smooth="yes"/>
      <point x="-688" y="-164"/>
      <point x="-664" y="-199"/>
      <point x="-664" y="-260" type="curve" smooth="yes"/>
      <point x="-664" y="-316" type="line" smooth="yes"/>
      <point x="-664" y="-379"/>
      <point x="-691" y="-412"/>
      <point x="-750" y="-412" type="curve" smooth="yes"/>
      <point x="-807" y="-412"/>
      <point x="-835" y="-379"/>
      <point x="-835" y="-316" type="curve" smooth="yes"/>
      <point x="-835" y="-210" type="line"/>
      <point x="-828" y="-185" type="line"/>
      <point x="-835" y="-185" type="line"/>
      <point x="-835" y="-61.0106"/>
      <point x="-778" y="0"/>
      <point x="-659" y="0" type="curve" smooth="yes"/>
      <point x="-547" y="0"/>
      <point x="-493" y="-54"/>
      <point x="-493" y="-163" type="curve" smooth="yes"/>
      <point x="-493" y="-222" type="line"/>
      <point x="-473" y="-166" type="line"/>
      <point x="-478" y="-89" type="line"/>
      <point x="-498" y="-8"/>
      <point x="-564" y="30"/>
    </contour>
    <contour>
      <point x="-294" y="30" type="curve" smooth="yes"/>
      <point x="-389" y="30"/>
      <point x="-455" y="-8"/>
      <point x="-476" y="-89" type="curve"/>
      <point x="-481" y="-89" type="line"/>
      <point x="-480" y="-166" type="line"/>
      <point x="-461" y="-222" type="line"/>
      <point x="-461" y="-163" type="line" smooth="yes"/>
      <point x="-461" y="-54"/>
      <point x="-407" y="0"/>
      <point x="-294" y="0" type="curve" smooth="yes"/>
      <point x="-176" y="0"/>
      <point x="-119" y="-60.6809"/>
      <point x="-119" y="-184" type="curve"/>
      <point x="-125" y="-184" type="line"/>
      <point x="-119" y="-210" type="line"/>
      <point x="-119" y="-316" type="line" smooth="yes"/>
      <point x="-119" y="-379"/>
      <point x="-147" y="-412"/>
      <point x="-204" y="-412" type="curve" smooth="yes"/>
      <point x="-262" y="-412"/>
      <point x="-290" y="-379"/>
      <point x="-290" y="-316" type="curve" smooth="yes"/>
      <point x="-290" y="-260" type="line" smooth="yes"/>
      <point x="-290" y="-199"/>
      <point x="-266" y="-164"/>
      <point x="-209" y="-164" type="curve" smooth="yes"/>
      <point x="-170" y="-164"/>
      <point x="-134" y="-182"/>
      <point x="-117" y="-230" type="curve"/>
      <point x="-101" y="-225" type="line"/>
      <point x="-118" y="-167"/>
      <point x="-155" y="-134"/>
      <point x="-216" y="-134" type="curve" smooth="yes"/>
      <point x="-283" y="-134"/>
      <point x="-322" y="-178"/>
      <point x="-322" y="-260" type="curve" smooth="yes"/>
      <point x="-322" y="-315" type="line" smooth="yes"/>
      <point x="-322" y="-397"/>
      <point x="-283" y="-442"/>
      <point x="-204" y="-442" type="curve" smooth="yes"/>
      <point x="-127" y="-442"/>
      <point x="-87" y="-397"/>
      <point x="-87" y="-315" type="curve" smooth="yes"/>
      <point x="-87" y="-185" type="line" smooth="yes"/>
      <point x="-87" y="-41.6667"/>
      <point x="-153" y="30"/>
    </contour>
  </outline>
</glyph>
<glyph name="uni0D63" format="2">
  <unicode hex="0D63"/>
  <outline>
    <contour>
      <point x="-135" y="-57" type="curve"/>
      <point x="-130" y="-86" type="line"/>
      <point x="-16" y="-94"/>
      <point x="35" y="-151"/>
      <point x="35" y="-269" type="curve" smooth="yes"/>
      <point x="35" y="-285" type="line" smooth="yes"/>
      <point x="35" y="-413"/>
      <point x="-24" y="-471"/>
      <point x="-153" y="-471" type="curve" smooth="yes"/>
      <point x="-205" y="-471"/>
      <point x="-241" y="-464"/>
      <point x="-278" y="-453" type="curve"/>
      <point x="-269" y="-483" type="line"/>
      <point x="-233" y="-494"/>
      <point x="-193" y="-500"/>
      <point x="-153" y="-500" type="curve" smooth="yes"/>
      <point x="-2" y="-500"/>
      <point x="67" y="-432"/>
      <point x="67" y="-285" type="curve" smooth="yes"/>
      <point x="67" y="-269" type="line" smooth="yes"/>
      <point x="67" y="-132"/>
      <point x="2" y="-63"/>
    </contour>
    <contour>
      <point x="-294" y="0" type="curve" smooth="yes"/>
      <point x="-229" y="0"/>
      <point x="-182" y="-22"/>
      <point x="-156" y="-65" type="curve"/>
      <point x="-149" y="-79" type="line"/>
      <point x="-139" y="-105"/>
      <point x="-134" y="-138"/>
      <point x="-134" y="-178" type="curve" smooth="yes"/>
      <point x="-134" y="-253" type="line" smooth="yes"/>
      <point x="-134" y="-314"/>
      <point x="-161" y="-347"/>
      <point x="-218" y="-347" type="curve" smooth="yes"/>
      <point x="-275" y="-347"/>
      <point x="-301" y="-314"/>
      <point x="-301" y="-253" type="curve" smooth="yes"/>
      <point x="-301" y="-224" type="line" smooth="yes"/>
      <point x="-301" y="-138"/>
      <point x="-257" y="-88"/>
      <point x="-144" y="-87" type="curve" smooth="yes"/>
      <point x="-141" y="-87"/>
      <point x="-138" y="-87"/>
      <point x="-136" y="-87" type="curve"/>
      <point x="-146" y="-57" type="line"/>
      <point x="-149" y="-57"/>
      <point x="-151" y="-57"/>
      <point x="-154" y="-57" type="curve" smooth="yes"/>
      <point x="-269" y="-60"/>
      <point x="-333" y="-118"/>
      <point x="-333" y="-224" type="curve" smooth="yes"/>
      <point x="-333" y="-251" type="line" smooth="yes"/>
      <point x="-333" y="-333"/>
      <point x="-295" y="-377"/>
      <point x="-218" y="-377" type="curve" smooth="yes"/>
      <point x="-143" y="-377"/>
      <point x="-102" y="-333"/>
      <point x="-102" y="-251" type="curve" smooth="yes"/>
      <point x="-102" y="-180" type="line" smooth="yes"/>
      <point x="-102" y="-141"/>
      <point x="-107" y="-108"/>
      <point x="-117" y="-79" type="curve"/>
      <point x="-123" y="-64" type="line"/>
      <point x="-151" y="-2"/>
      <point x="-208" y="30"/>
      <point x="-294" y="30" type="curve" smooth="yes"/>
      <point x="-390" y="30"/>
      <point x="-455" y="-8"/>
      <point x="-476" y="-89" type="curve"/>
      <point x="-482" y="-89" type="line"/>
      <point x="-480" y="-166" type="line"/>
      <point x="-461" y="-222" type="line"/>
      <point x="-461" y="-163" type="line" smooth="yes"/>
      <point x="-461" y="-54"/>
      <point x="-406" y="0"/>
    </contour>
    <contour>
      <point x="-493" y="-431" type="line"/>
      <point x="-461" y="-431" type="line"/>
      <point x="-461" y="-110" type="line"/>
      <point x="-493" y="-110" type="line"/>
    </contour>
    <contour>
      <point x="-659" y="30" type="curve" smooth="yes"/>
      <point x="-800" y="30"/>
      <point x="-867" y="-42"/>
      <point x="-867" y="-186" type="curve" smooth="yes"/>
      <point x="-867" y="-315" type="line" smooth="yes"/>
      <point x="-867" y="-397"/>
      <point x="-826" y="-442"/>
      <point x="-750" y="-442" type="curve" smooth="yes"/>
      <point x="-671" y="-442"/>
      <point x="-632" y="-397"/>
      <point x="-632" y="-315" type="curve" smooth="yes"/>
      <point x="-632" y="-260" type="line" smooth="yes"/>
      <point x="-632" y="-178"/>
      <point x="-671" y="-134"/>
      <point x="-737" y="-134" type="curve" smooth="yes"/>
      <point x="-798" y="-134"/>
      <point x="-836" y="-167"/>
      <point x="-852" y="-225" type="curve"/>
      <point x="-837" y="-230" type="line"/>
      <point x="-820" y="-182"/>
      <point x="-783" y="-164"/>
      <point x="-745" y="-164" type="curve" smooth="yes"/>
      <point x="-688" y="-164"/>
      <point x="-664" y="-199"/>
      <point x="-664" y="-260" type="curve" smooth="yes"/>
      <point x="-664" y="-316" type="line" smooth="yes"/>
      <point x="-664" y="-379"/>
      <point x="-691" y="-412"/>
      <point x="-750" y="-412" type="curve" smooth="yes"/>
      <point x="-807" y="-412"/>
      <point x="-835" y="-379"/>
      <point x="-835" y="-316" type="curve" smooth="yes"/>
      <point x="-835" y="-210" type="line"/>
      <point x="-828" y="-185" type="line"/>
      <point x="-835" y="-185" type="line"/>
      <point x="-835" y="-61.0106"/>
      <point x="-778" y="0"/>
      <point x="-659" y="0" type="curve" smooth="yes"/>
      <point x="-547" y="0"/>
      <point x="-493" y="-54"/>
      <point x="-493" y="-163" type="curve" smooth="yes"/>
      <point x="-493" y="-222" type="line"/>
      <point x="-473" y="-166" type="line"/>
      <point x="-478" y="-89" type="line"/>
      <point x="-498" y="-8"/>
      <point x="-564" y="30"/>
    </contour>
  </outline>
</glyph>
<glyph name="four.mlm" format="2">
  <advance width="884"/>
  <unicode hex="0D6A"/>
  <outline>
    <contour>
      <point x="418" y="585" type="curve" smooth="yes"/>
      <point x="418" y="223" type="line" smooth="yes"/>
      <point x="418" y="68"/>
      <point x="475" y="-9"/>
      <point x="596" y="-9" type="curve" smooth="yes"/>
      <point x="718" y="-9"/>
      <point x="773" y="68"/>
      <point x="773" y="223" type="curve" smooth="yes"/>
      <point x="773" y="778" type="line" smooth="yes"/>
      <point x="773" y="929"/>
      <point x="742" y="1040"/>
      <point x="673" y="1110" type="curve" smooth="yes"/>
      <point x="662" y="1121" type="line"/>
      <point x="609" y="1168"/>
      <point x="537" y="1192"/>
      <point x="443" y="1192" type="curve" smooth="yes"/>
      <point x="215" y="1192"/>
      <point x="112" y="1052"/>
      <point x="112" y="782" type="curve" smooth="yes"/>
      <point x="112" y="362" type="line" smooth="yes"/>
      <point x="112" y="190"/>
      <point x="140" y="70"/>
      <point x="199" y="0" type="curve"/>
      <point x="241" y="0" type="line"/>
      <point x="180" y="70"/>
      <point x="147" y="191"/>
      <point x="147" y="364" type="curve" smooth="yes"/>
      <point x="147" y="782" type="line" smooth="yes"/>
      <point x="147" y="1032"/>
      <point x="239" y="1159"/>
      <point x="443" y="1159" type="curve" smooth="yes"/>
      <point x="523" y="1159"/>
      <point x="585" y="1139"/>
      <point x="633" y="1100" type="curve"/>
      <point x="646" y="1089" type="line"/>
      <point x="708" y="1027"/>
      <point x="738" y="922"/>
      <point x="738" y="778" type="curve" smooth="yes"/>
      <point x="738" y="223" type="line" smooth="yes"/>
      <point x="738" y="90"/>
      <point x="694" y="24"/>
      <point x="596" y="24" type="curve" smooth="yes"/>
      <point x="499" y="24"/>
      <point x="453" y="90"/>
      <point x="453" y="223" type="curve" smooth="yes"/>
      <point x="453" y="581" type="line" smooth="yes"/>
      <point x="453" y="856"/>
      <point x="497" y="964"/>
      <point x="657" y="1084" type="curve" smooth="yes"/>
      <point x="672" y="1095" type="line"/>
      <point x="729" y="1141"/>
      <point x="767" y="1207"/>
      <point x="767" y="1295" type="curve" smooth="yes"/>
      <point x="767" y="1352"/>
      <point x="756" y="1404"/>
      <point x="730" y="1455" type="curve"/>
      <point x="692" y="1455" type="line"/>
      <point x="719" y="1404"/>
      <point x="732" y="1352"/>
      <point x="732" y="1295" type="curve" smooth="yes"/>
      <point x="732" y="1214"/>
      <point x="697" y="1159"/>
      <point x="644" y="1115" type="curve"/>
      <point x="633" y="1108" type="line"/>
      <point x="475" y="986"/>
      <point x="418" y="883"/>
    </contour>
  </outline>
</glyph>
<glyph name="seven.mlm" format="2">
  <advance width="878"/>
  <unicode hex="0D6D"/>
  <outline>
    <contour>
      <point x="134" y="650" type="curve"/>
      <point x="147" y="638" type="line"/>
      <point x="177" y="725"/>
      <point x="228" y="765"/>
      <point x="300" y="765" type="curve" smooth="yes"/>
      <point x="390" y="765"/>
      <point x="434" y="705"/>
      <point x="434" y="581" type="curve" smooth="yes"/>
      <point x="434" y="223" type="line" smooth="yes"/>
      <point x="434" y="90"/>
      <point x="388" y="24"/>
      <point x="291" y="24" type="curve" smooth="yes"/>
      <point x="193" y="24"/>
      <point x="147" y="90"/>
      <point x="147" y="223" type="curve" smooth="yes"/>
      <point x="147" y="663" type="line"/>
      <point x="156" y="691" type="line"/>
      <point x="147" y="691" type="line"/>
      <point x="147" y="782" type="line" smooth="yes"/>
      <point x="147" y="1032"/>
      <point x="239" y="1159"/>
      <point x="438" y="1159" type="curve" smooth="yes"/>
      <point x="637" y="1159"/>
      <point x="731" y="1032"/>
      <point x="731" y="782" type="curve" smooth="yes"/>
      <point x="731" y="175" type="line" smooth="yes"/>
      <point x="731" y="-72"/>
      <point x="639" y="-199"/>
      <point x="442" y="-199" type="curve" smooth="yes"/>
      <point x="379" y="-199"/>
      <point x="324" y="-191"/>
      <point x="278" y="-173" type="curve"/>
      <point x="291" y="-210" type="line"/>
      <point x="335" y="-226"/>
      <point x="385" y="-232"/>
      <point x="442" y="-232" type="curve" smooth="yes"/>
      <point x="663" y="-232"/>
      <point x="766" y="-92"/>
      <point x="766" y="175" type="curve" smooth="yes"/>
      <point x="766" y="782" type="line" smooth="yes"/>
      <point x="766" y="1052"/>
      <point x="661" y="1192"/>
      <point x="438" y="1192" type="curve" smooth="yes"/>
      <point x="215" y="1192"/>
      <point x="112" y="1052"/>
      <point x="112" y="782" type="curve" smooth="yes"/>
      <point x="112" y="223" type="line" smooth="yes"/>
      <point x="112" y="68"/>
      <point x="169" y="-9"/>
      <point x="291" y="-9" type="curve" smooth="yes"/>
      <point x="410" y="-9"/>
      <point x="469" y="68"/>
      <point x="469" y="223" type="curve" smooth="yes"/>
      <point x="469" y="585" type="line" smooth="yes"/>
      <point x="469" y="725"/>
      <point x="410" y="799"/>
      <point x="304" y="799" type="curve" smooth="yes"/>
      <point x="212" y="799"/>
      <point x="153" y="736"/>
    </contour>
  </outline>
</glyph>
<glyph name="eight.mlm" format="2">
  <advance width="982"/>
  <unicode hex="0D6E"/>
  <outline>
    <contour>
      <point x="849" y="31" type="line"/>
      <point x="485" y="31" type="line"/>
      <point x="444" y="0" type="line"/>
      <point x="849" y="0" type="line"/>
    </contour>
    <contour>
      <point x="820" y="22" type="line"/>
      <point x="820" y="18" type="line" smooth="yes"/>
      <point x="820" y="-147"/>
      <point x="752" y="-234"/>
      <point x="605" y="-234" type="curve" smooth="yes"/>
      <point x="542" y="-234"/>
      <point x="487" y="-226"/>
      <point x="441" y="-208" type="curve"/>
      <point x="454" y="-245" type="line"/>
      <point x="498" y="-261"/>
      <point x="547" y="-267"/>
      <point x="605" y="-267" type="curve" smooth="yes"/>
      <point x="776" y="-267"/>
      <point x="855" y="-166"/>
      <point x="855" y="18" type="curve" smooth="yes"/>
      <point x="855" y="1174" type="line"/>
      <point x="820" y="1174" type="line"/>
    </contour>
    <contour>
      <point x="336" y="1159" type="curve" smooth="yes"/>
      <point x="465" y="1159"/>
      <point x="524" y="1075"/>
      <point x="524" y="903" type="curve" smooth="yes"/>
      <point x="524" y="361" type="line" smooth="yes"/>
      <point x="524" y="193"/>
      <point x="498" y="75"/>
      <point x="444" y="6" type="curve"/>
      <point x="444" y="0" type="line"/>
      <point x="479" y="0" type="line"/>
      <point x="533" y="68"/>
      <point x="559" y="188"/>
      <point x="559" y="359" type="curve" smooth="yes"/>
      <point x="559" y="903" type="line" smooth="yes"/>
      <point x="559" y="1095"/>
      <point x="489" y="1192"/>
      <point x="336" y="1192" type="curve" smooth="yes"/>
      <point x="183" y="1192"/>
      <point x="113" y="1095"/>
      <point x="113" y="903" type="curve" smooth="yes"/>
      <point x="113" y="359" type="line" smooth="yes"/>
      <point x="113" y="188"/>
      <point x="137" y="68"/>
      <point x="189" y="0" type="curve"/>
      <point x="231" y="0" type="line"/>
      <point x="178" y="68"/>
      <point x="148" y="190"/>
      <point x="148" y="361" type="curve" smooth="yes"/>
      <point x="148" y="903" type="line" smooth="yes"/>
      <point x="148" y="1075"/>
      <point x="207" y="1159"/>
    </contour>
  </outline>
</glyph>
<glyph name="nine.mlm" format="2">
  <advance width="1233"/>
  <unicode hex="0D6F"/>
  <outline>
    <contour>
      <point x="492" y="788" type="line"/>
      <point x="492" y="2" type="line"/>
      <point x="527" y="2" type="line"/>
      <point x="527" y="788" type="line"/>
    </contour>
    <contour>
      <point x="319" y="1159" type="curve" smooth="yes"/>
      <point x="436" y="1159"/>
      <point x="492" y="1080"/>
      <point x="492" y="920" type="curve" smooth="yes"/>
      <point x="492" y="650" type="line"/>
      <point x="508" y="650" type="line"/>
      <point x="512" y="990" type="line"/>
      <point x="501" y="1130"/>
      <point x="429" y="1192"/>
      <point x="319" y="1192" type="curve" smooth="yes"/>
      <point x="175" y="1192"/>
      <point x="113" y="1102"/>
      <point x="113" y="920" type="curve" smooth="yes"/>
      <point x="113" y="362" type="line" smooth="yes"/>
      <point x="113" y="190"/>
      <point x="140" y="70"/>
      <point x="199" y="0" type="curve"/>
      <point x="241" y="0" type="line"/>
      <point x="181" y="70"/>
      <point x="148" y="191"/>
      <point x="148" y="364" type="curve" smooth="yes"/>
      <point x="148" y="920" type="line" smooth="yes"/>
      <point x="148" y="1080"/>
      <point x="201" y="1159"/>
    </contour>
    <contour>
      <point x="793" y="1159" type="curve" smooth="yes"/>
      <point x="872" y="1159"/>
      <point x="935" y="1139"/>
      <point x="983" y="1100" type="curve"/>
      <point x="995" y="1089" type="line"/>
      <point x="1058" y="1027"/>
      <point x="1087" y="922"/>
      <point x="1087" y="778" type="curve" smooth="yes"/>
      <point x="1087" y="223" type="line" smooth="yes"/>
      <point x="1087" y="90"/>
      <point x="1043" y="24"/>
      <point x="946" y="24" type="curve" smooth="yes"/>
      <point x="848" y="24"/>
      <point x="802" y="90"/>
      <point x="802" y="223" type="curve" smooth="yes"/>
      <point x="802" y="581" type="line" smooth="yes"/>
      <point x="802" y="856"/>
      <point x="846" y="964"/>
      <point x="1006" y="1084" type="curve" smooth="yes"/>
      <point x="1021" y="1095" type="line"/>
      <point x="1078" y="1141"/>
      <point x="1117" y="1207"/>
      <point x="1117" y="1295" type="curve" smooth="yes"/>
      <point x="1117" y="1352"/>
      <point x="1106" y="1404"/>
      <point x="1080" y="1455" type="curve"/>
      <point x="1041" y="1455" type="line"/>
      <point x="1069" y="1404"/>
      <point x="1082" y="1352"/>
      <point x="1082" y="1295" type="curve" smooth="yes"/>
      <point x="1082" y="1214"/>
      <point x="1047" y="1159"/>
      <point x="994" y="1115" type="curve"/>
      <point x="983" y="1108" type="line"/>
      <point x="824" y="986"/>
      <point x="767" y="883"/>
      <point x="767" y="585" type="curve" smooth="yes"/>
      <point x="767" y="223" type="line" smooth="yes"/>
      <point x="767" y="68"/>
      <point x="824" y="-9"/>
      <point x="946" y="-9" type="curve" smooth="yes"/>
      <point x="1067" y="-9"/>
      <point x="1122" y="68"/>
      <point x="1122" y="223" type="curve" smooth="yes"/>
      <point x="1122" y="778" type="line" smooth="yes"/>
      <point x="1122" y="929"/>
      <point x="1091" y="1040"/>
      <point x="1023" y="1110" type="curve" smooth="yes"/>
      <point x="1012" y="1121" type="line"/>
      <point x="959" y="1168"/>
      <point x="887" y="1192"/>
      <point x="793" y="1192" type="curve" smooth="yes"/>
      <point x="628" y="1192"/>
      <point x="538" y="1115"/>
      <point x="514" y="990" type="curve"/>
      <point x="500" y="990" type="line"/>
      <point x="500" y="672" type="line"/>
      <point x="526" y="672" type="line"/>
      <point x="526" y="881" type="line" smooth="yes"/>
      <point x="526" y="1067"/>
      <point x="618" y="1159"/>
    </contour>
  </outline>
</glyph>
<glyph name="ten.mlm" format="2">
  <advance width="1030"/>
  <unicode hex="0D70"/>
  <outline>
    <contour>
      <point x="350" y="-13" type="curve" smooth="yes"/>
      <point x="453" y="-13"/>
      <point x="508" y="46"/>
      <point x="526" y="156" type="curve"/>
      <point x="537" y="156" type="line"/>
      <point x="537" y="477" type="line"/>
      <point x="510" y="523" type="line"/>
      <point x="510" y="256" type="line" smooth="yes"/>
      <point x="510" y="98"/>
      <point x="458" y="20"/>
      <point x="350" y="20" type="curve" smooth="yes"/>
      <point x="241" y="20"/>
      <point x="190" y="98"/>
      <point x="190" y="256" type="curve" smooth="yes"/>
      <point x="190" y="523" type="line"/>
      <point x="162" y="477" type="line"/>
      <point x="167" y="109" type="line"/>
      <point x="188" y="109" type="line"/>
      <point x="210" y="29"/>
      <point x="265" y="-13"/>
    </contour>
    <contour>
      <point x="545" y="385" type="line"/>
      <point x="545" y="1168" type="line"/>
      <point x="510" y="1168" type="line"/>
      <point x="510" y="385" type="line"/>
    </contour>
    <contour>
      <point x="155" y="24" type="line" smooth="yes"/>
      <point x="155" y="-109"/>
      <point x="101" y="-178"/>
      <point x="2" y="-178" type="curve" smooth="yes"/>
      <point x="-40" y="-178"/>
      <point x="-81" y="-171"/>
      <point x="-123" y="-156" type="curve"/>
      <point x="-110" y="-193" type="line"/>
      <point x="-72" y="-206"/>
      <point x="-37" y="-212"/>
      <point x="2" y="-212" type="curve" smooth="yes"/>
      <point x="123" y="-212"/>
      <point x="186" y="-129"/>
      <point x="186" y="24" type="curve" smooth="yes"/>
      <point x="186" y="131" type="line"/>
      <point x="190" y="145" type="line"/>
      <point x="190" y="1174" type="line"/>
      <point x="155" y="1174" type="line"/>
    </contour>
    <contour>
      <point x="529" y="156" type="line"/>
      <point x="545" y="48"/>
      <point x="610" y="-13"/>
      <point x="714" y="-13" type="curve" smooth="yes"/>
      <point x="856" y="-13"/>
      <point x="917" y="75"/>
      <point x="917" y="256" type="curve" smooth="yes"/>
      <point x="917" y="806" type="line" smooth="yes"/>
      <point x="917" y="981"/>
      <point x="884" y="1102"/>
      <point x="823" y="1172" type="curve"/>
      <point x="783" y="1172" type="line"/>
      <point x="845" y="1102"/>
      <point x="882" y="979"/>
      <point x="882" y="804" type="curve" smooth="yes"/>
      <point x="882" y="256" type="line" smooth="yes"/>
      <point x="882" y="98"/>
      <point x="832" y="20"/>
      <point x="714" y="20" type="curve" smooth="yes"/>
      <point x="600" y="20"/>
      <point x="545" y="98"/>
      <point x="545" y="256" type="curve" smooth="yes"/>
      <point x="545" y="523" type="line"/>
      <point x="529" y="523" type="line"/>
    </contour>
  </outline>
</glyph>
<glyph name="onequarter.mlm" format="2">
  <advance width="704"/>
  <unicode hex="0D73"/>
  <outline>
    <contour>
      <point x="147" y="642" type="line"/>
      <point x="176" y="727"/>
      <point x="226" y="765"/>
      <point x="296" y="765" type="curve" smooth="yes"/>
      <point x="382" y="765"/>
      <point x="426" y="707"/>
      <point x="426" y="585" type="curve" smooth="yes"/>
      <point x="426" y="223" type="line" smooth="yes"/>
      <point x="426" y="90"/>
      <point x="380" y="24"/>
      <point x="286" y="24" type="curve" smooth="yes"/>
      <point x="191" y="24"/>
      <point x="147" y="90"/>
      <point x="147" y="223" type="curve" smooth="yes"/>
      <point x="147" y="664" type="line"/>
      <point x="159" y="695" type="line"/>
      <point x="147" y="695" type="line"/>
      <point x="147" y="740" type="line" smooth="yes"/>
      <point x="147" y="990"/>
      <point x="242" y="1115"/>
      <point x="450" y="1115" type="curve" smooth="yes"/>
      <point x="667" y="1115" type="line"/>
      <point x="662" y="1146" type="line"/>
      <point x="450" y="1146" type="line" smooth="yes"/>
      <point x="218" y="1146"/>
      <point x="112" y="1008"/>
      <point x="112" y="740" type="curve" smooth="yes"/>
      <point x="112" y="223" type="line" smooth="yes"/>
      <point x="112" y="68"/>
      <point x="167" y="-9"/>
      <point x="286" y="-9" type="curve" smooth="yes"/>
      <point x="402" y="-9"/>
      <point x="461" y="68"/>
      <point x="461" y="223" type="curve" smooth="yes"/>
      <point x="461" y="589" type="line" smooth="yes"/>
      <point x="461" y="727"/>
      <point x="404" y="799"/>
      <point x="299" y="799" type="curve" smooth="yes"/>
      <point x="209" y="799"/>
      <point x="152" y="738"/>
      <point x="134" y="653" type="curve"/>
    </contour>
  </outline>
</glyph>
<glyph name="onehalf.mlm" format="2">
  <advance width="1099"/>
  <unicode hex="0D74"/>
  <outline>
    <contour>
      <point x="812" y="-9" type="curve" smooth="yes"/>
      <point x="933" y="-9"/>
      <point x="988" y="68"/>
      <point x="988" y="223" type="curve" smooth="yes"/>
      <point x="988" y="727" type="line" smooth="yes"/>
      <point x="988" y="956"/>
      <point x="913" y="1102"/>
      <point x="749" y="1162" type="curve"/>
      <point x="744" y="1164"/>
      <point x="739" y="1165"/>
      <point x="733" y="1167" type="curve" smooth="yes"/>
      <point x="681" y="1184"/>
      <point x="620" y="1192"/>
      <point x="550" y="1192" type="curve" smooth="yes"/>
      <point x="249.437" y="1192"/>
      <point x="112" y="1033.22"/>
      <point x="112" y="727" type="curve" smooth="yes"/>
      <point x="112" y="223" type="line" smooth="yes"/>
      <point x="112" y="68"/>
      <point x="167" y="-9"/>
      <point x="287" y="-9" type="curve" smooth="yes"/>
      <point x="403" y="-9"/>
      <point x="462" y="68"/>
      <point x="462" y="223" type="curve" smooth="yes"/>
      <point x="462" y="589" type="line" smooth="yes"/>
      <point x="462" y="727"/>
      <point x="405" y="799"/>
      <point x="300" y="799" type="curve" smooth="yes"/>
      <point x="210" y="799"/>
      <point x="153" y="738"/>
      <point x="134" y="653" type="curve"/>
      <point x="147" y="642" type="line"/>
      <point x="177" y="727"/>
      <point x="226" y="765"/>
      <point x="296" y="765" type="curve" smooth="yes"/>
      <point x="383" y="765"/>
      <point x="427" y="707"/>
      <point x="427" y="585" type="curve" smooth="yes"/>
      <point x="427" y="223" type="line" smooth="yes"/>
      <point x="427" y="90"/>
      <point x="381" y="24"/>
      <point x="287" y="24" type="curve" smooth="yes"/>
      <point x="191" y="24"/>
      <point x="147" y="90"/>
      <point x="147" y="223" type="curve" smooth="yes"/>
      <point x="147" y="662" type="line"/>
      <point x="158" y="694" type="line"/>
      <point x="147" y="694" type="line"/>
      <point x="147" y="727" type="line" smooth="yes"/>
      <point x="147" y="1013.47"/>
      <point x="273.431" y="1159"/>
      <point x="550" y="1159" type="curve" smooth="yes"/>
      <point x="615" y="1159"/>
      <point x="672" y="1152"/>
      <point x="721" y="1135" type="curve"/>
      <point x="723" y="1135"/>
      <point x="734" y="1130"/>
      <point x="736" y="1130" type="curve"/>
      <point x="882" y="1076"/>
      <point x="953" y="942"/>
      <point x="953" y="727" type="curve" smooth="yes"/>
      <point x="953" y="223" type="line" smooth="yes"/>
      <point x="953" y="90"/>
      <point x="909" y="24"/>
      <point x="812" y="24" type="curve" smooth="yes"/>
      <point x="714" y="24"/>
      <point x="668" y="90"/>
      <point x="668" y="223" type="curve" smooth="yes"/>
      <point x="668" y="718" type="line" smooth="yes"/>
      <point x="668" y="911"/>
      <point x="696" y="1010"/>
      <point x="751" y="1137" type="curve"/>
      <point x="753" y="1141"/>
      <point x="753" y="1146"/>
      <point x="755" y="1150" type="curve" smooth="yes"/>
      <point x="777" y="1196"/>
      <point x="786" y="1242"/>
      <point x="786" y="1295" type="curve" smooth="yes"/>
      <point x="786" y="1358"/>
      <point x="775" y="1411"/>
      <point x="749" y="1468" type="curve"/>
      <point x="710" y="1468" type="line"/>
      <point x="738" y="1411"/>
      <point x="751" y="1358"/>
      <point x="751" y="1295" type="curve" smooth="yes"/>
      <point x="751" y="1246"/>
      <point x="742" y="1202"/>
      <point x="721" y="1159" type="curve"/>
      <point x="720" y="1154"/>
      <point x="718" y="1148"/>
      <point x="716" y="1143" type="curve"/>
      <point x="661" y="1018"/>
      <point x="633" y="918"/>
      <point x="633" y="721" type="curve" smooth="yes"/>
      <point x="633" y="223" type="line" smooth="yes"/>
      <point x="633" y="68"/>
      <point x="690" y="-9"/>
    </contour>
  </outline>
</glyph>
<glyph name="threequarters.mlm" format="2">
  <advance width="1437"/>
  <unicode hex="0D75"/>
  <outline>
    <contour>
      <point x="432" y="1192" type="curve" smooth="yes"/>
      <point x="215" y="1192"/>
      <point x="112" y="1062"/>
      <point x="112" y="811" type="curve" smooth="yes"/>
      <point x="112" y="223" type="line" smooth="yes"/>
      <point x="112" y="68"/>
      <point x="169" y="-9"/>
      <point x="290" y="-9" type="curve" smooth="yes"/>
      <point x="410" y="-9"/>
      <point x="469" y="68"/>
      <point x="469" y="223" type="curve" smooth="yes"/>
      <point x="469" y="585" type="line" smooth="yes"/>
      <point x="469" y="725"/>
      <point x="410" y="799"/>
      <point x="303" y="799" type="curve" smooth="yes"/>
      <point x="211" y="799"/>
      <point x="152" y="736"/>
      <point x="134" y="650" type="curve"/>
      <point x="147" y="638" type="line"/>
      <point x="176" y="725"/>
      <point x="227" y="765"/>
      <point x="299" y="765" type="curve" smooth="yes"/>
      <point x="389" y="765"/>
      <point x="434" y="705"/>
      <point x="434" y="581" type="curve" smooth="yes"/>
      <point x="434" y="223" type="line" smooth="yes"/>
      <point x="434" y="90"/>
      <point x="388" y="24"/>
      <point x="290" y="24" type="curve" smooth="yes"/>
      <point x="193" y="24"/>
      <point x="147" y="90"/>
      <point x="147" y="223" type="curve" smooth="yes"/>
      <point x="147" y="663" type="line"/>
      <point x="157" y="692" type="line"/>
      <point x="147" y="692" type="line"/>
      <point x="147" y="811" type="line" smooth="yes"/>
      <point x="147" y="1041"/>
      <point x="239" y="1159"/>
      <point x="432" y="1159" type="curve" smooth="yes"/>
      <point x="605" y="1159"/>
      <point x="695" y="1065"/>
      <point x="695" y="881" type="curve" smooth="yes"/>
      <point x="695" y="672" type="line"/>
      <point x="711" y="672" type="line"/>
      <point x="711" y="972" type="line"/>
      <point x="689" y="1113"/>
      <point x="595" y="1192"/>
    </contour>
    <contour>
      <point x="695" y="2" type="line"/>
      <point x="730" y="2" type="line"/>
      <point x="730" y="788" type="line"/>
      <point x="695" y="788" type="line"/>
    </contour>
    <contour>
      <point x="996" y="1159" type="curve" smooth="yes"/>
      <point x="1022" y="1159"/>
      <point x="1044" y="1157"/>
      <point x="1066" y="1154" type="curve"/>
      <point x="1083" y="1150" type="line" smooth="yes"/>
      <point x="1225" y="1115"/>
      <point x="1291" y="990"/>
      <point x="1291" y="778" type="curve" smooth="yes"/>
      <point x="1291" y="223" type="line" smooth="yes"/>
      <point x="1291" y="90"/>
      <point x="1247" y="24"/>
      <point x="1149" y="24" type="curve" smooth="yes"/>
      <point x="1052" y="24"/>
      <point x="1006" y="90"/>
      <point x="1006" y="223" type="curve" smooth="yes"/>
      <point x="1006" y="718" type="line" smooth="yes"/>
      <point x="1006" y="920"/>
      <point x="1035" y="1025"/>
      <point x="1096" y="1159" type="curve"/>
      <point x="1098" y="1163"/>
      <point x="1098" y="1168"/>
      <point x="1099" y="1172" type="curve"/>
      <point x="1114" y="1211"/>
      <point x="1120" y="1249"/>
      <point x="1120" y="1295" type="curve" smooth="yes"/>
      <point x="1120" y="1358"/>
      <point x="1109" y="1411"/>
      <point x="1083" y="1468" type="curve"/>
      <point x="1044" y="1468" type="line"/>
      <point x="1072" y="1411"/>
      <point x="1085" y="1358"/>
      <point x="1085" y="1295" type="curve" smooth="yes"/>
      <point x="1085" y="1253"/>
      <point x="1079" y="1216"/>
      <point x="1066" y="1181" type="curve"/>
      <point x="1065" y="1176"/>
      <point x="1065" y="1170"/>
      <point x="1061" y="1165" type="curve"/>
      <point x="1000" y="1032"/>
      <point x="971" y="929"/>
      <point x="971" y="721" type="curve" smooth="yes"/>
      <point x="971" y="223" type="line" smooth="yes"/>
      <point x="971" y="68"/>
      <point x="1028" y="-9"/>
      <point x="1149" y="-9" type="curve" smooth="yes"/>
      <point x="1271" y="-9"/>
      <point x="1326" y="68"/>
      <point x="1326" y="223" type="curve" smooth="yes"/>
      <point x="1326" y="778" type="line" smooth="yes"/>
      <point x="1326" y="1008"/>
      <point x="1250" y="1143"/>
      <point x="1092" y="1181" type="curve" smooth="yes"/>
      <point x="1077" y="1185" type="line"/>
      <point x="1052" y="1190"/>
      <point x="1026" y="1192"/>
      <point x="996" y="1192" type="curve" smooth="yes"/>
      <point x="829" y="1192"/>
      <point x="735" y="1113"/>
      <point x="713" y="972" type="curve"/>
      <point x="702" y="972" type="line"/>
      <point x="702" y="672" type="line"/>
      <point x="730" y="672" type="line"/>
      <point x="730" y="881" type="line" smooth="yes"/>
      <point x="730" y="1065"/>
      <point x="820" y="1159"/>
    </contour>
  </outline>
</glyph>
<glyph name="onesixteenth.mlm" format="2">
  <advance width="1454"/>
  <unicode hex="0D76"/>
  <outline>
    <contour>
      <point x="428" y="31" type="line"/>
      <point x="409" y="0" type="line"/>
      <point x="748" y="0" type="line"/>
      <point x="748" y="31" type="line"/>
    </contour>
    <contour>
      <point x="293" y="771" type="curve" smooth="yes"/>
      <point x="165" y="771"/>
      <point x="102" y="684"/>
      <point x="102" y="521" type="curve" smooth="yes"/>
      <point x="102" y="258" type="line" smooth="yes"/>
      <point x="102" y="132"/>
      <point x="119" y="50"/>
      <point x="154" y="0" type="curve"/>
      <point x="194" y="0" type="line"/>
      <point x="157" y="52"/>
      <point x="137" y="134"/>
      <point x="137" y="259" type="curve" smooth="yes"/>
      <point x="137" y="521" type="line" smooth="yes"/>
      <point x="137" y="664"/>
      <point x="189" y="738"/>
      <point x="293" y="738" type="curve" smooth="yes"/>
      <point x="398" y="738"/>
      <point x="450" y="664"/>
      <point x="450" y="521" type="curve" smooth="yes"/>
      <point x="450" y="259" type="line" smooth="yes"/>
      <point x="450" y="138"/>
      <point x="430" y="57"/>
      <point x="391" y="6" type="curve"/>
      <point x="391" y="0" type="line"/>
      <point x="420" y="0" type="line"/>
      <point x="465" y="50"/>
      <point x="485" y="132"/>
      <point x="485" y="258" type="curve" smooth="yes"/>
      <point x="485" y="521" type="line" smooth="yes"/>
      <point x="485" y="684"/>
      <point x="422" y="771"/>
    </contour>
    <contour>
      <point x="758" y="31" type="line"/>
      <point x="756" y="0" type="line"/>
      <point x="1321" y="0" type="line"/>
      <point x="1321" y="31" type="line"/>
    </contour>
    <contour>
      <point x="1036" y="1159" type="curve" smooth="yes"/>
      <point x="1213" y="1159"/>
      <point x="1295" y="1043"/>
      <point x="1295" y="813" type="curve" smooth="yes"/>
      <point x="1295" y="0" type="line"/>
      <point x="1330" y="0" type="line"/>
      <point x="1330" y="813" type="line" smooth="yes"/>
      <point x="1330" y="1063"/>
      <point x="1237" y="1192"/>
      <point x="1036" y="1192" type="curve" smooth="yes"/>
      <point x="834" y="1192"/>
      <point x="741" y="1063"/>
      <point x="741" y="813" type="curve" smooth="yes"/>
      <point x="741" y="0" type="line"/>
      <point x="776" y="0" type="line"/>
      <point x="776" y="813" type="line" smooth="yes"/>
      <point x="776" y="1043"/>
      <point x="858" y="1159"/>
    </contour>
    <contour>
      <point x="1084.24" y="769" type="line" smooth="yes"/>
      <point x="1084.24" y="974.732"/>
      <point x="1020.24" y="1073"/>
      <point x="886.242" y="1073" type="curve" smooth="yes"/>
      <point x="860.242" y="1073"/>
      <point x="832.242" y="1067"/>
      <point x="804.242" y="1055" type="curve"/>
      <point x="800.242" y="1024" type="line"/>
      <point x="829.319" y="1037.6"/>
      <point x="856.319" y="1041"/>
      <point x="881.242" y="1041" type="curve" smooth="yes"/>
      <point x="996.771" y="1041"/>
      <point x="1049.24" y="955.421"/>
      <point x="1049.24" y="767" type="curve" smooth="yes"/>
      <point x="1049.24" y="714" type="line" smooth="yes"/>
      <point x="1049.24" y="425.579"/>
      <point x="979.242" y="218.534"/>
      <point x="836.242" y="29" type="curve"/>
      <point x="867.242" y="17" type="line"/>
      <point x="1008.24" y="196.156"/>
      <point x="1084.24" y="421.644"/>
      <point x="1084.24" y="712" type="curve" smooth="yes"/>
    </contour>
  </outline>
</glyph>
<glyph name="date.mlm" format="2">
  <advance width="1390"/>
  <unicode hex="0D79"/>
  <outline>
    <contour>
      <point x="492" y="788" type="line"/>
      <point x="492" y="2" type="line"/>
      <point x="527" y="2" type="line"/>
      <point x="527" y="788" type="line"/>
    </contour>
    <contour>
      <point x="319" y="1159" type="curve" smooth="yes"/>
      <point x="436" y="1159"/>
      <point x="492" y="1080"/>
      <point x="492" y="920" type="curve" smooth="yes"/>
      <point x="492" y="650" type="line"/>
      <point x="508" y="650" type="line"/>
      <point x="512" y="990" type="line"/>
      <point x="501" y="1130"/>
      <point x="429" y="1192"/>
      <point x="319" y="1192" type="curve" smooth="yes"/>
      <point x="175" y="1192"/>
      <point x="113" y="1102"/>
      <point x="113" y="920" type="curve" smooth="yes"/>
      <point x="113" y="362" type="line" smooth="yes"/>
      <point x="113" y="190"/>
      <point x="140" y="70"/>
      <point x="199" y="0" type="curve"/>
      <point x="241" y="0" type="line"/>
      <point x="181" y="70"/>
      <point x="148" y="191"/>
      <point x="148" y="364" type="curve" smooth="yes"/>
      <point x="148" y="920" type="line" smooth="yes"/>
      <point x="148" y="1080"/>
      <point x="201" y="1159"/>
    </contour>
    <contour>
      <point x="784" y="1192" type="curve" smooth="yes"/>
      <point x="628" y="1192"/>
      <point x="538" y="1115"/>
      <point x="514" y="990" type="curve"/>
      <point x="501" y="990" type="line"/>
      <point x="501" y="672" type="line"/>
      <point x="527" y="672" type="line"/>
      <point x="527" y="881" type="line" smooth="yes"/>
      <point x="527" y="1067"/>
      <point x="619" y="1159"/>
      <point x="784" y="1159" type="curve" smooth="yes"/>
      <point x="974" y="1159"/>
      <point x="1060" y="1041"/>
      <point x="1060" y="813" type="curve" smooth="yes"/>
      <point x="1060" y="219" type="line" smooth="yes"/>
      <point x="1060" y="90"/>
      <point x="1012" y="24"/>
      <point x="920" y="24" type="curve" smooth="yes"/>
      <point x="828" y="24"/>
      <point x="780" y="90"/>
      <point x="780" y="219" type="curve" smooth="yes"/>
      <point x="780" y="526" type="line" smooth="yes"/>
      <point x="780" y="666"/>
      <point x="828" y="729"/>
      <point x="944" y="729" type="curve" smooth="yes"/>
      <point x="1366" y="729" type="line"/>
      <point x="1371" y="760" type="line"/>
      <point x="941" y="760" type="line" smooth="yes"/>
      <point x="812" y="760"/>
      <point x="746" y="684"/>
      <point x="746" y="530" type="curve" smooth="yes"/>
      <point x="746" y="219" type="line" smooth="yes"/>
      <point x="746" y="68"/>
      <point x="806" y="-9"/>
      <point x="920" y="-9" type="curve" smooth="yes"/>
      <point x="1036" y="-9"/>
      <point x="1095" y="68"/>
      <point x="1095" y="219" type="curve" smooth="yes"/>
      <point x="1095" y="813" type="line" smooth="yes"/>
      <point x="1095" y="1062"/>
      <point x="998" y="1192"/>
    </contour>
  </outline>
</glyph>
<glyph name="chilluNn.mlm" format="2">
  <advance width="1821"/>
  <unicode hex="0D7A"/>
  <outline>
    <contour>
      <point x="695" y="2" type="line"/>
      <point x="730" y="2" type="line"/>
      <point x="730" y="788" type="line"/>
      <point x="695" y="788" type="line"/>
    </contour>
    <contour>
      <point x="432" y="1192" type="curve" smooth="yes"/>
      <point x="215" y="1192"/>
      <point x="112" y="1062"/>
      <point x="112" y="811" type="curve" smooth="yes"/>
      <point x="112" y="223" type="line" smooth="yes"/>
      <point x="112" y="68"/>
      <point x="169" y="-9"/>
      <point x="290" y="-9" type="curve" smooth="yes"/>
      <point x="410" y="-9"/>
      <point x="469" y="68"/>
      <point x="469" y="223" type="curve" smooth="yes"/>
      <point x="469" y="585" type="line" smooth="yes"/>
      <point x="469" y="725"/>
      <point x="410" y="799"/>
      <point x="303" y="799" type="curve" smooth="yes"/>
      <point x="211" y="799"/>
      <point x="152" y="736"/>
      <point x="134" y="650" type="curve"/>
      <point x="147" y="638" type="line"/>
      <point x="176" y="725"/>
      <point x="228" y="765"/>
      <point x="299" y="765" type="curve" smooth="yes"/>
      <point x="390" y="765"/>
      <point x="434" y="705"/>
      <point x="434" y="581" type="curve" smooth="yes"/>
      <point x="434" y="223" type="line" smooth="yes"/>
      <point x="434" y="90"/>
      <point x="388" y="24"/>
      <point x="290" y="24" type="curve" smooth="yes"/>
      <point x="193" y="24"/>
      <point x="147" y="90"/>
      <point x="147" y="223" type="curve" smooth="yes"/>
      <point x="147" y="663" type="line"/>
      <point x="159" y="692" type="line"/>
      <point x="147" y="692" type="line"/>
      <point x="147" y="811" type="line" smooth="yes"/>
      <point x="147" y="1041"/>
      <point x="239" y="1159"/>
      <point x="432" y="1159" type="curve" smooth="yes"/>
      <point x="605" y="1159"/>
      <point x="695" y="1067"/>
      <point x="695" y="881" type="curve" smooth="yes"/>
      <point x="695" y="672" type="line"/>
      <point x="708" y="672" type="line"/>
      <point x="708" y="990" type="line"/>
      <point x="684" y="1115"/>
      <point x="596" y="1192"/>
    </contour>
    <contour>
      <point x="1068" y="788" type="line"/>
      <point x="1068" y="2" type="line"/>
      <point x="1103" y="2" type="line"/>
      <point x="1103" y="788" type="line"/>
    </contour>
    <contour>
      <point x="1088" y="990" type="line"/>
      <point x="1079" y="1130"/>
      <point x="1007" y="1192"/>
      <point x="899" y="1192" type="curve" smooth="yes"/>
      <point x="790" y="1192"/>
      <point x="720" y="1130"/>
      <point x="710" y="990" type="curve"/>
      <point x="702" y="990" type="line"/>
      <point x="702" y="696" type="line"/>
      <point x="730" y="694" type="line"/>
      <point x="730" y="920" type="line" smooth="yes"/>
      <point x="730" y="1080"/>
      <point x="781" y="1159"/>
      <point x="899" y="1159" type="curve" smooth="yes"/>
      <point x="1017" y="1159"/>
      <point x="1068" y="1080"/>
      <point x="1068" y="920" type="curve" smooth="yes"/>
      <point x="1068" y="650" type="line"/>
      <point x="1085" y="650" type="line"/>
    </contour>
    <contour>
      <point x="1461" y="1185" type="line" smooth="yes"/>
      <point x="1434" y="1192"/>
      <point x="1406" y="1192"/>
      <point x="1375" y="1192" type="curve" smooth="yes"/>
      <point x="1206" y="1192"/>
      <point x="1115" y="1115"/>
      <point x="1091" y="990" type="curve"/>
      <point x="1077" y="990" type="line"/>
      <point x="1077" y="672" type="line"/>
      <point x="1103" y="672" type="line"/>
      <point x="1103" y="881" type="line" smooth="yes"/>
      <point x="1103" y="1067"/>
      <point x="1196" y="1159"/>
      <point x="1375" y="1159" type="curve" smooth="yes"/>
      <point x="1402" y="1159"/>
      <point x="1426" y="1157"/>
      <point x="1450" y="1154" type="curve"/>
      <point x="1467" y="1150" type="line" smooth="yes"/>
      <point x="1609" y="1115"/>
      <point x="1675" y="990"/>
      <point x="1675" y="778" type="curve" smooth="yes"/>
      <point x="1675" y="223" type="line" smooth="yes"/>
      <point x="1675" y="90"/>
      <point x="1631" y="24"/>
      <point x="1533" y="24" type="curve" smooth="yes"/>
      <point x="1436" y="24"/>
      <point x="1390" y="90"/>
      <point x="1390" y="223" type="curve" smooth="yes"/>
      <point x="1390" y="718" type="line" smooth="yes"/>
      <point x="1390" y="920"/>
      <point x="1419" y="1025"/>
      <point x="1480" y="1159" type="curve"/>
      <point x="1482" y="1163"/>
      <point x="1482" y="1168"/>
      <point x="1483" y="1172" type="curve"/>
      <point x="1498" y="1211"/>
      <point x="1504" y="1249"/>
      <point x="1504" y="1295" type="curve" smooth="yes"/>
      <point x="1504" y="1356"/>
      <point x="1493" y="1413"/>
      <point x="1467" y="1468" type="curve"/>
      <point x="1428" y="1468" type="line"/>
      <point x="1456" y="1413"/>
      <point x="1469" y="1356"/>
      <point x="1469" y="1295" type="curve" smooth="yes"/>
      <point x="1469" y="1253"/>
      <point x="1463" y="1216"/>
      <point x="1450" y="1181" type="curve" smooth="yes"/>
      <point x="1448" y="1176"/>
      <point x="1448" y="1170"/>
      <point x="1445" y="1165" type="curve"/>
      <point x="1384" y="1032"/>
      <point x="1355" y="929"/>
      <point x="1355" y="721" type="curve" smooth="yes"/>
      <point x="1355" y="223" type="line" smooth="yes"/>
      <point x="1355" y="68"/>
      <point x="1412" y="-9"/>
      <point x="1533" y="-9" type="curve" smooth="yes"/>
      <point x="1655" y="-9"/>
      <point x="1710" y="68"/>
      <point x="1710" y="223" type="curve" smooth="yes"/>
      <point x="1710" y="778" type="line" smooth="yes"/>
      <point x="1710" y="1008"/>
      <point x="1634" y="1143"/>
      <point x="1476" y="1181" type="curve" smooth="yes"/>
    </contour>
  </outline>
</glyph>
<glyph name="chilluRr.mlm" format="2">
  <advance width="884"/>
  <unicode hex="0D7C"/>
  <outline>
    <contour>
      <point x="418" y="721" type="curve" smooth="yes"/>
      <point x="418" y="223" type="line" smooth="yes"/>
      <point x="418" y="68"/>
      <point x="475" y="-9"/>
      <point x="596" y="-9" type="curve" smooth="yes"/>
      <point x="718" y="-9"/>
      <point x="773" y="68"/>
      <point x="773" y="223" type="curve" smooth="yes"/>
      <point x="773" y="778" type="line" smooth="yes"/>
      <point x="773" y="1008"/>
      <point x="697" y="1143"/>
      <point x="539" y="1181" type="curve" smooth="yes"/>
      <point x="524" y="1185" type="line"/>
      <point x="499" y="1190"/>
      <point x="473" y="1192"/>
      <point x="443" y="1192" type="curve" smooth="yes"/>
      <point x="215" y="1192"/>
      <point x="112" y="1052"/>
      <point x="112" y="782" type="curve" smooth="yes"/>
      <point x="112" y="362" type="line" smooth="yes"/>
      <point x="112" y="190"/>
      <point x="140" y="70"/>
      <point x="199" y="0" type="curve"/>
      <point x="241" y="0" type="line"/>
      <point x="180" y="70"/>
      <point x="147" y="191"/>
      <point x="147" y="364" type="curve" smooth="yes"/>
      <point x="147" y="782" type="line" smooth="yes"/>
      <point x="147" y="1032"/>
      <point x="239" y="1159"/>
      <point x="443" y="1159" type="curve" smooth="yes"/>
      <point x="469" y="1159"/>
      <point x="491" y="1157"/>
      <point x="513" y="1154" type="curve"/>
      <point x="530" y="1150" type="line" smooth="yes"/>
      <point x="672" y="1115"/>
      <point x="738" y="990"/>
      <point x="738" y="778" type="curve" smooth="yes"/>
      <point x="738" y="223" type="line" smooth="yes"/>
      <point x="738" y="90"/>
      <point x="694" y="24"/>
      <point x="596" y="24" type="curve" smooth="yes"/>
      <point x="499" y="24"/>
      <point x="453" y="90"/>
      <point x="453" y="223" type="curve" smooth="yes"/>
      <point x="453" y="718" type="line" smooth="yes"/>
      <point x="453" y="920"/>
      <point x="482" y="1025"/>
      <point x="543" y="1159" type="curve"/>
      <point x="545" y="1163"/>
      <point x="545" y="1168"/>
      <point x="546" y="1172" type="curve"/>
      <point x="561" y="1205"/>
      <point x="567" y="1238"/>
      <point x="567" y="1277" type="curve" smooth="yes"/>
      <point x="567" y="1346"/>
      <point x="556" y="1405"/>
      <point x="530" y="1468" type="curve"/>
      <point x="491" y="1468" type="line"/>
      <point x="519" y="1405"/>
      <point x="532" y="1346"/>
      <point x="532" y="1277" type="curve" smooth="yes"/>
      <point x="532" y="1241"/>
      <point x="526" y="1211"/>
      <point x="513" y="1181" type="curve"/>
      <point x="511" y="1176"/>
      <point x="512" y="1170"/>
      <point x="508" y="1165" type="curve"/>
      <point x="447" y="1032"/>
      <point x="418" y="929"/>
    </contour>
  </outline>
</glyph>
<glyph name="chilluLl.mlm" format="2">
  <advance width="1187"/>
  <unicode hex="0D7E"/>
  <outline>
    <contour>
      <point x="827" y="1185" type="line"/>
      <point x="803" y="1190"/>
      <point x="781" y="1192"/>
      <point x="754" y="1192" type="curve" smooth="yes"/>
      <point x="544" y="1192"/>
      <point x="444" y="1067"/>
      <point x="444" y="819" type="curve" smooth="yes"/>
      <point x="444" y="668"/>
      <point x="474" y="397"/>
      <point x="474" y="247" type="curve" smooth="yes"/>
      <point x="474" y="94"/>
      <point x="424" y="20"/>
      <point x="312" y="20" type="curve" smooth="yes"/>
      <point x="200" y="20"/>
      <point x="148" y="94"/>
      <point x="148" y="247" type="curve" smooth="yes"/>
      <point x="148" y="806" type="line" smooth="yes"/>
      <point x="148" y="981"/>
      <point x="185" y="1104"/>
      <point x="248" y="1174" type="curve"/>
      <point x="207" y="1174" type="line"/>
      <point x="146" y="1104"/>
      <point x="113" y="983"/>
      <point x="113" y="808" type="curve" smooth="yes"/>
      <point x="113" y="247" type="line" smooth="yes"/>
      <point x="113" y="74"/>
      <point x="178" y="-13"/>
      <point x="312" y="-13" type="curve" smooth="yes"/>
      <point x="446" y="-13"/>
      <point x="509" y="74"/>
      <point x="509" y="247" type="curve" smooth="yes"/>
      <point x="509" y="397"/>
      <point x="479" y="668"/>
      <point x="479" y="819" type="curve" smooth="yes"/>
      <point x="479" y="1047"/>
      <point x="568" y="1159"/>
      <point x="754" y="1159" type="curve" smooth="yes"/>
      <point x="777" y="1159"/>
      <point x="796" y="1157"/>
      <point x="816" y="1154" type="curve"/>
      <point x="833" y="1150" type="line" smooth="yes"/>
      <point x="974" y="1115"/>
      <point x="1041" y="990"/>
      <point x="1041" y="778" type="curve" smooth="yes"/>
      <point x="1041" y="223" type="line" smooth="yes"/>
      <point x="1041" y="90"/>
      <point x="996" y="24"/>
      <point x="899" y="24" type="curve" smooth="yes"/>
      <point x="801" y="24"/>
      <point x="755" y="90"/>
      <point x="755" y="223" type="curve" smooth="yes"/>
      <point x="755" y="718" type="line" smooth="yes"/>
      <point x="755" y="920"/>
      <point x="785" y="1025"/>
      <point x="846" y="1159" type="curve"/>
      <point x="847" y="1163"/>
      <point x="847" y="1168"/>
      <point x="849" y="1172" type="curve"/>
      <point x="864" y="1211"/>
      <point x="869" y="1249"/>
      <point x="869" y="1295" type="curve" smooth="yes"/>
      <point x="869" y="1358"/>
      <point x="858" y="1411"/>
      <point x="833" y="1468" type="curve"/>
      <point x="794" y="1468" type="line"/>
      <point x="822" y="1411"/>
      <point x="835" y="1358"/>
      <point x="835" y="1295" type="curve" smooth="yes"/>
      <point x="835" y="1253"/>
      <point x="829" y="1216"/>
      <point x="816" y="1181" type="curve" smooth="yes"/>
      <point x="814" y="1176"/>
      <point x="814" y="1170"/>
      <point x="811" y="1165" type="curve"/>
      <point x="750" y="1032"/>
      <point x="720" y="929"/>
      <point x="720" y="721" type="curve" smooth="yes"/>
      <point x="720" y="223" type="line" smooth="yes"/>
      <point x="720" y="68"/>
      <point x="777" y="-9"/>
      <point x="899" y="-9" type="curve" smooth="yes"/>
      <point x="1020" y="-9"/>
      <point x="1076" y="68"/>
      <point x="1076" y="223" type="curve" smooth="yes"/>
      <point x="1076" y="778" type="line" smooth="yes"/>
      <point x="1076" y="1008"/>
      <point x="1000" y="1143"/>
      <point x="842" y="1181" type="curve" smooth="yes"/>
    </contour>
  </outline>
</glyph>
